<svg width="57" height="57" viewBox="0 0 57 57" fill="none" xmlns="http://www.w3.org/2000/svg">
<g clip-path="url(#clip0_258_722)">
<path d="M26.7436 24.4873L28.4359 26.7437L29 30.6924L27.3077 30.1283L23.9231 28.436L23.359 24.4873H26.7436Z" fill="#F0C200"/>
<path d="M31.2564 19.4102L29 21.6666V25.6153H29.5641L33.5128 23.923L34.0769 21.6666V19.4102H31.2564Z" fill="#F0C200"/>
<path d="M31.2563 29.5641L28.4358 31.8205V35.7692L29.564 35.2051L34.0768 32.9487V29L31.2563 29.5641Z" fill="#F0C200"/>
<path d="M44.4637 40.188L41.7866 41.9246L40.8462 46.3384L42.6189 46.1393L46.517 44.0861L47.2223 40.7758L44.4637 40.188Z" fill="#F0C200"/>
<path d="M40.8462 29.5642L43.1027 32.3848L41.9744 36.3335L40.8898 35.0065L38.0257 32.9488L38.0257 29.0001L40.8462 29.5642Z" fill="#F0C200"/>
<path d="M12.0768 26.1795L14.3333 28.4358L14.8973 31.8204L11.5128 30.6922L9.82046 30.1281L8.12818 26.1794L12.0768 26.1795Z" fill="#F0C200"/>
<path d="M21.1026 36.3334L19.9743 38.5898L16.5897 41.4103L15.4615 38.0257L17.1538 35.2051L20.5545 33.1012L21.1026 36.3334Z" fill="#F0C200"/>
<path d="M26.1795 34.0771L29 36.3336V40.8464L26.7436 40.2823L23.9231 37.4618L23.359 34.0771H26.1795Z" fill="#F0C200"/>
<path d="M34.5 11.2969C34.3633 11.2969 34.2321 11.3512 34.1354 11.4479C34.0387 11.5446 33.9844 11.6757 33.9844 11.8125V14.0469H33.125C32.4323 14.047 31.7484 14.2025 31.1237 14.502C30.4991 14.8015 29.9496 15.2373 29.5157 15.7773V7.6875C29.5157 7.55075 29.4613 7.4196 29.3646 7.3229C29.2679 7.2262 29.1368 7.17188 29 7.17188C28.8633 7.17188 28.7321 7.2262 28.6354 7.3229C28.5387 7.4196 28.4844 7.55075 28.4844 7.6875V15.7773C28.0505 15.2373 27.501 14.8015 26.8763 14.502C26.2517 14.2025 25.5678 14.047 24.875 14.0469H24.0157V11.8125C24.0157 11.6757 23.9613 11.5446 23.8646 11.4479C23.7679 11.3512 23.6368 11.2969 23.5 11.2969C23.3633 11.2969 23.2321 11.3512 23.1354 11.4479C23.0387 11.5446 22.9844 11.6757 22.9844 11.8125V15.9375C22.9808 16.9603 23.2413 17.9667 23.7407 18.8594H23.5C23.3633 18.8594 23.2321 18.9137 23.1354 19.0104C23.0387 19.1071 22.9844 19.2382 22.9844 19.375V20.75C22.9808 21.7728 23.2413 22.7792 23.7407 23.6719H23.5C23.3633 23.6719 23.2321 23.7262 23.1354 23.8229C23.0387 23.9196 22.9844 24.0507 22.9844 24.1875V25.5625C22.9808 26.5853 23.2413 27.5917 23.7407 28.4844H23.5C23.3633 28.4844 23.2321 28.5387 23.1354 28.6354C23.0387 28.7321 22.9844 28.8632 22.9844 29V30.375C22.9808 31.3978 23.2413 32.4042 23.7407 33.2969H23.5C23.3633 33.2969 23.2321 33.3512 23.1354 33.4479C23.0387 33.5446 22.9844 33.6757 22.9844 33.8125V35.1875C22.9865 36.6927 23.5524 38.1425 24.5704 39.2511C25.5885 40.3598 26.9849 41.0469 28.4844 41.177V48.9375C28.4844 49.0743 28.5387 49.2054 28.6354 49.3021C28.7321 49.3988 28.8633 49.4531 29 49.4531C29.1368 49.4531 29.2679 49.3988 29.3646 49.3021C29.4613 49.2054 29.5157 49.0743 29.5157 48.9375V41.177C31.0152 41.0469 32.4116 40.3598 33.4297 39.2511C34.4477 38.1425 35.0136 36.6927 35.0157 35.1875V33.8125C35.0157 33.6757 34.9613 33.5446 34.8646 33.4479C34.7679 33.3512 34.6368 33.2969 34.5 33.2969H34.258C34.7579 32.4044 35.0188 31.3979 35.0157 30.375V29C35.0157 28.8632 34.9613 28.7321 34.8646 28.6354C34.7679 28.5387 34.6368 28.4844 34.5 28.4844H34.258C34.7579 27.5919 35.0188 26.5854 35.0157 25.5625V24.1875C35.0157 24.0507 34.9613 23.9196 34.8646 23.8229C34.7679 23.7262 34.6368 23.6719 34.5 23.6719H34.258C34.7579 22.7794 35.0188 21.7729 35.0157 20.75V19.375C35.0157 19.2382 34.9613 19.1071 34.8646 19.0104C34.7679 18.9137 34.6368 18.8594 34.5 18.8594H34.258C34.7579 17.9669 35.0188 16.9604 35.0157 15.9375V11.8125C35.0157 11.6757 34.9613 11.5446 34.8646 11.4479C34.7679 11.3512 34.6368 11.2969 34.5 11.2969ZM28.4844 40.1458C27.259 40.0165 26.1246 39.4385 25.2996 38.5232C24.4747 37.6078 24.0173 36.4197 24.0157 35.1875V34.3281H24.875C25.832 34.3292 26.7494 34.7098 27.426 35.3865C28.1027 36.0631 28.4833 36.9806 28.4844 37.9375V40.1458ZM28.4844 35.0273C28.062 34.5026 27.5301 34.0764 26.926 33.7785C26.3218 33.4805 25.6599 33.318 24.9864 33.3024C24.357 32.4561 24.0167 31.4297 24.0157 30.375V29.5156H24.875C25.832 29.5167 26.7494 29.8973 27.426 30.574C28.1027 31.2506 28.4833 32.1681 28.4844 33.125V35.0273ZM28.4844 30.2148C28.062 29.6901 27.5301 29.2639 26.926 28.966C26.3218 28.668 25.6599 28.5055 24.9864 28.4899C24.357 27.6436 24.0167 26.6172 24.0157 25.5625V24.7031H24.875C25.832 24.7042 26.7494 25.0848 27.426 25.7615C28.1027 26.4381 28.4833 27.3556 28.4844 28.3125V30.2148ZM28.4844 25.4023C28.062 24.8776 27.5301 24.4514 26.926 24.1535C26.3218 23.8555 25.6599 23.693 24.9864 23.6774C24.357 22.8311 24.0167 21.8047 24.0157 20.75V19.8906H24.875C25.832 19.8917 26.7494 20.2723 27.426 20.949C28.1027 21.6256 28.4833 22.5431 28.4844 23.5V25.4023ZM28.4844 20.5898C28.062 20.0651 27.5301 19.6389 26.926 19.341C26.3218 19.043 25.6599 18.8805 24.9864 18.8649C24.357 18.0186 24.0167 16.9922 24.0157 15.9375V15.0781H24.875C25.832 15.0792 26.7494 15.4598 27.426 16.1365C28.1027 16.8131 28.4833 17.7306 28.4844 18.6875V20.5898ZM33.9844 35.1875C33.9827 36.4197 33.5254 37.6078 32.7004 38.5232C31.8755 39.4385 30.7411 40.0165 29.5157 40.1458V37.9375C29.5168 36.9806 29.8974 36.0631 30.574 35.3865C31.2507 34.7098 32.1681 34.3292 33.125 34.3281H33.9844V35.1875ZM33.9844 30.375C33.9834 31.4297 33.643 32.4561 33.0137 33.3024C32.3402 33.318 31.6783 33.4805 31.0741 33.7785C30.47 34.0764 29.9381 34.5026 29.5157 35.0273V33.125C29.5168 32.1681 29.8974 31.2506 30.574 30.574C31.2507 29.8973 32.1681 29.5167 33.125 29.5156H33.9844V30.375ZM33.9844 25.5625C33.9834 26.6172 33.643 27.6436 33.0137 28.4899C32.3402 28.5055 31.6783 28.668 31.0741 28.966C30.47 29.2639 29.9381 29.6901 29.5157 30.2148V28.3125C29.5168 27.3556 29.8974 26.4381 30.574 25.7615C31.2507 25.0848 32.1681 24.7042 33.125 24.7031H33.9844V25.5625ZM33.9844 20.75C33.9834 21.8047 33.643 22.8311 33.0137 23.6774C32.3402 23.693 31.6783 23.8555 31.0741 24.1535C30.47 24.4514 29.9381 24.8776 29.5157 25.4023V23.5C29.5168 22.5431 29.8974 21.6256 30.574 20.949C31.2507 20.2723 32.1681 19.8917 33.125 19.8906H33.9844V20.75ZM33.9844 15.9375C33.9834 16.9922 33.643 18.0186 33.0137 18.8649C32.3402 18.8805 31.6783 19.043 31.0741 19.341C30.47 19.6389 29.9381 20.0651 29.5157 20.5898V18.6875C29.5168 17.7306 29.8974 16.8131 30.574 16.1365C31.2507 15.4598 32.1681 15.0792 33.125 15.0781H33.9844V15.9375Z" fill="black"/>
<path d="M50.8204 23.5977C50.8337 23.5304 50.8333 23.4612 50.8195 23.394C50.8056 23.3269 50.7785 23.2632 50.7397 23.2066C50.7009 23.1501 50.6512 23.1018 50.5935 23.0647C50.5359 23.0276 50.4714 23.0024 50.4039 22.9905C50.3364 22.9786 50.2671 22.9803 50.2003 22.9955C50.1334 23.0107 50.0702 23.0391 50.0145 23.079C49.9587 23.1189 49.9115 23.1695 49.8755 23.2278C49.8395 23.2862 49.8156 23.3512 49.805 23.4189L49.4166 25.6189L48.5703 25.4698C47.9704 25.3622 47.3551 25.3747 46.76 25.5067C46.165 25.6386 45.6021 25.8873 45.1039 26.2384C44.9683 26.3381 44.8384 26.4452 44.7148 26.5594L46.0024 19.2575C46.0262 19.1228 45.9955 18.9841 45.9171 18.872C45.8386 18.7599 45.7189 18.6835 45.5841 18.6597C45.4494 18.6359 45.3107 18.6666 45.1986 18.7451C45.0865 18.8235 45.0101 18.9433 44.9863 19.0781L43.6966 26.3876C43.3661 25.7767 42.9022 25.2482 42.3393 24.8414C41.7764 24.4346 41.1291 24.1599 40.4454 24.0377L39.5998 23.8892L39.9875 21.6892C40.0094 21.5553 39.9778 21.4182 39.8993 21.3076C39.8209 21.1969 39.702 21.1216 39.5684 21.098C39.4348 21.0744 39.2973 21.1044 39.1857 21.1815C39.0741 21.2585 38.9973 21.3765 38.9721 21.5097L38.2557 25.5715C38.0795 26.5793 38.1627 27.6154 38.4977 28.5821L38.2557 28.5394C38.121 28.5157 37.9825 28.5463 37.8704 28.6247C37.7584 28.7031 37.6821 28.8228 37.6583 28.9574L37.4197 30.3118C37.2438 31.3189 37.3271 32.3543 37.6617 33.3203L37.4204 33.2784C37.2857 33.2546 37.1471 33.2853 37.0351 33.3637C36.9231 33.442 36.8468 33.5617 36.8229 33.6964L36.5844 35.0508C36.4078 36.0583 36.4911 37.0942 36.8264 38.0606L36.5844 38.018C36.5177 38.0062 36.4493 38.0077 36.3831 38.0224C36.317 38.0371 36.2544 38.0646 36.1989 38.1035C36.1434 38.1424 36.0961 38.1919 36.0598 38.249C36.0234 38.3062 35.9987 38.37 35.9869 38.4367L35.7484 39.7904C35.4892 41.2731 35.7948 42.7991 36.6049 44.0677C37.415 45.3363 38.6709 46.2554 40.125 46.6441L39.4932 50.2246C39.4695 50.3593 39.5003 50.498 39.5788 50.61C39.6573 50.722 39.7771 50.7983 39.9119 50.822C40.0466 50.8457 40.1853 50.8149 40.2973 50.7364C40.4094 50.6579 40.4856 50.5381 40.5093 50.4033L41.1404 46.8228C42.6398 46.9552 44.1343 46.5211 45.3294 45.6061C46.5244 44.6911 47.3334 43.3616 47.5968 41.8797L47.836 40.5253C47.8596 40.3907 47.8287 40.2522 47.7502 40.1403C47.6717 40.0284 47.552 39.9522 47.4173 39.9286L47.176 39.8859C47.821 39.0917 48.2534 38.1466 48.4328 37.1394L48.6713 35.7857C48.6833 35.719 48.682 35.6505 48.6674 35.5843C48.6529 35.5181 48.6254 35.4554 48.5866 35.3998C48.5477 35.3442 48.4983 35.2969 48.4411 35.2605C48.3839 35.224 48.3201 35.1993 48.2533 35.1876L48.0127 35.1449C48.6576 34.3516 49.0898 33.4071 49.2688 32.4004L49.508 31.0454C49.5198 30.9787 49.5183 30.9103 49.5036 30.8441C49.4889 30.778 49.4614 30.7154 49.4225 30.6599C49.3836 30.6044 49.3342 30.5571 49.277 30.5208C49.2198 30.4844 49.1561 30.4596 49.0893 30.4479L48.8487 30.4053C49.4939 29.6117 49.9266 28.667 50.1061 27.6601L50.8204 23.5977ZM39.2704 25.7496L39.4196 24.9039L40.2659 25.0524C41.2082 25.2199 42.0455 25.7543 42.5944 26.5382C43.1433 27.3222 43.3589 28.2918 43.194 29.2345L42.8647 31.1018C42.5392 30.5124 42.089 30.0012 41.5455 29.6039C41.002 29.2066 40.3783 28.9327 39.718 28.8014C39.2454 27.8584 39.0887 26.7884 39.2711 25.7496H39.2704ZM38.4344 30.4892L38.5836 29.6429L39.4299 29.7921C39.8967 29.8743 40.3426 30.0477 40.7423 30.3024C41.142 30.557 41.4876 30.8879 41.7593 31.2761C42.0311 31.6644 42.2238 32.1023 42.3262 32.565C42.4287 33.0277 42.4391 33.5061 42.3566 33.9728L42.0266 35.8455C41.7019 35.2553 41.2524 34.7431 40.7094 34.3445C40.1664 33.9459 39.543 33.6705 38.8827 33.5376C38.4108 32.5956 38.2539 31.527 38.4351 30.4892H38.4344ZM40.6874 43.4527L40.3038 45.6273C39.1195 45.287 38.1028 44.5209 37.4493 43.4762C36.7958 42.4316 36.5517 41.1822 36.7638 39.9684L36.913 39.1221L37.7593 39.2713C38.7016 39.4385 39.5391 39.9726 40.088 40.7565C40.6369 41.5404 40.8525 42.5101 40.6874 43.4527ZM38.0474 38.2813C37.5743 37.3385 37.4174 36.2684 37.5998 35.2295L37.749 34.3825L38.5953 34.5317C39.5375 34.699 40.3749 35.2332 40.9238 36.0171C41.4727 36.8009 41.6883 37.7705 41.5234 38.7131L41.1927 40.5872C40.8677 39.9972 40.4178 39.4853 39.8746 39.087C39.3314 38.6888 38.7078 38.4138 38.0474 38.2813ZM46.5813 41.6996C46.3659 42.913 45.7092 44.0038 44.7377 44.762C43.7662 45.5203 42.5486 45.8924 41.3192 45.8067L41.7028 43.6321C41.8702 42.6899 42.4043 41.8526 43.1882 41.3037C43.972 40.7548 44.9416 40.5391 45.8842 40.7041L46.7305 40.8533L46.5813 41.6996ZM47.4173 36.9599C47.2332 37.9988 46.7195 38.9507 45.9523 39.6749C45.2864 39.5736 44.6064 39.6187 43.9598 39.8071C43.3131 39.9956 42.7154 40.3228 42.2081 40.7659L42.5388 38.8918C42.7051 37.9493 43.239 37.1115 44.0231 36.5627C44.8071 36.0138 45.777 35.7989 46.7195 35.9651L47.5658 36.1136L47.4173 36.9599ZM48.2499 32.2203C48.066 33.2587 47.5528 34.2104 46.7862 34.9346C45.6079 34.7509 44.4042 35.0313 43.4284 35.7169C43.2947 35.8115 43.1657 35.9127 43.0421 36.0201L43.3714 34.1529C43.5389 33.2107 44.0731 32.3734 44.8569 31.8245C45.6407 31.2755 46.6101 31.0596 47.5528 31.2241L48.3991 31.3733L48.2499 32.2203ZM49.0859 27.4814C48.9015 28.5194 48.3884 29.4707 47.6222 30.1949C46.9561 30.0936 46.2758 30.1387 45.6289 30.3273C44.982 30.5158 44.384 30.8433 43.8767 31.2867L44.2074 29.4133C44.3736 28.4707 44.9073 27.6328 45.6911 27.0837C46.475 26.5346 47.4448 26.3193 48.3874 26.4852L49.2337 26.6351L49.0859 27.4814Z" fill="black"/>
<path d="M22.013 38.4353C22.0012 38.3686 21.9765 38.3048 21.9401 38.2476C21.9038 38.1905 21.8565 38.141 21.801 38.1022C21.7455 38.0633 21.6829 38.0357 21.6168 38.021C21.5506 38.0064 21.4822 38.0049 21.4155 38.0166L21.1735 38.0592C21.5088 37.0929 21.5921 36.0569 21.4155 35.0494L21.177 33.695C21.1531 33.5603 21.0768 33.4407 20.9648 33.3623C20.8528 33.2839 20.7142 33.2532 20.5795 33.277L20.3382 33.3189C20.6728 32.3529 20.7561 31.3176 20.5802 30.3104L20.3416 28.9561C20.3178 28.8214 20.2415 28.7017 20.1295 28.6233C20.0174 28.545 19.8789 28.5143 19.7442 28.5381L19.5022 28.5807C19.8372 27.614 19.9204 26.5779 19.7442 25.5701L19.0313 21.5063C19.006 21.373 18.9292 21.2551 18.8176 21.178C18.706 21.101 18.5685 21.071 18.4349 21.0946C18.3014 21.1182 18.1825 21.1935 18.104 21.3041C18.0256 21.4148 17.9939 21.5519 18.0158 21.6858L18.4036 23.8858L17.558 24.0343C16.8733 24.1563 16.2251 24.4313 15.6616 24.8388C15.0981 25.2463 14.6338 25.7757 14.3033 26.3876L13.015 19.0781C12.9912 18.9433 12.9148 18.8235 12.8027 18.7451C12.6906 18.6666 12.5519 18.6359 12.4172 18.6597C12.2824 18.6835 12.1626 18.7599 12.0842 18.872C12.0057 18.9841 11.975 19.1228 11.9988 19.2575L13.2865 26.5594C13.1629 26.4452 13.033 26.3381 12.8974 26.2384C12.3992 25.8873 11.8363 25.6386 11.2412 25.5067C10.6462 25.3747 10.0309 25.3622 9.43101 25.4698L8.58126 25.6189L8.19283 23.4189C8.18227 23.3512 8.15831 23.2862 8.12234 23.2278C8.08637 23.1695 8.03913 23.1189 7.98336 23.079C7.9276 23.0391 7.86443 23.0107 7.79757 22.9955C7.73071 22.9803 7.66149 22.9786 7.59396 22.9905C7.52643 23.0024 7.46195 23.0276 7.40429 23.0647C7.34664 23.1018 7.29696 23.1501 7.25817 23.2066C7.21938 23.2632 7.19225 23.3269 7.17838 23.394C7.16451 23.4612 7.16418 23.5304 7.17739 23.5977L7.89376 27.6601C8.07363 28.6668 8.50657 29.6113 9.15189 30.4046L8.91126 30.4473C8.84453 30.459 8.78076 30.4837 8.72359 30.5201C8.66643 30.5564 8.61699 30.6037 8.57811 30.6592C8.53922 30.7147 8.51166 30.7773 8.49698 30.8434C8.4823 30.9096 8.48081 30.978 8.49258 31.0447L8.73183 32.3998C8.91077 33.4064 9.34303 34.3509 9.98789 35.1443L9.75001 35.1876C9.6833 35.1993 9.61955 35.224 9.56242 35.2604C9.50529 35.2968 9.45589 35.3441 9.41706 35.3996C9.37823 35.4551 9.35073 35.5177 9.33614 35.5838C9.32155 35.6499 9.32014 35.7183 9.33201 35.785L9.57058 37.1387C9.74991 38.1459 10.1824 39.0911 10.8273 39.8853L10.586 39.9279C10.4514 39.9515 10.3316 40.0277 10.2531 40.1396C10.1746 40.2515 10.1438 40.39 10.1673 40.5246L10.4066 41.879C10.6699 43.3609 11.4789 44.6904 12.674 45.6054C13.8691 46.5204 15.3636 46.9545 16.8629 46.8221L17.494 50.4026C17.5177 50.5374 17.594 50.6572 17.706 50.7357C17.8181 50.8142 17.9567 50.845 18.0915 50.8213C18.2262 50.7976 18.346 50.7214 18.4245 50.6093C18.503 50.4973 18.5338 50.3586 18.5101 50.2239L17.8783 46.6434C19.3325 46.2548 20.5883 45.3356 21.3984 44.067C22.2085 42.7984 22.5141 41.2724 22.255 39.7897L22.013 38.4353ZM19.4156 29.6429L19.5648 30.4892C19.7466 31.5279 19.5897 32.5976 19.1172 33.5403C18.4567 33.6727 17.833 33.9477 17.2896 34.3459C16.7463 34.7442 16.2963 35.2562 15.9712 35.8462L15.6412 33.9734C15.5588 33.5068 15.5691 33.0284 15.6716 32.5657C15.7741 32.103 15.9667 31.665 16.2385 31.2768C16.5103 30.8886 16.8559 30.5577 17.2556 30.3031C17.6552 30.0484 18.1012 29.875 18.5679 29.7928L19.4156 29.6429ZM17.7333 25.0524L18.5796 24.9039L18.7288 25.7496C18.911 26.7885 18.754 27.8585 18.2812 28.8014C17.6209 28.9327 16.9972 29.2066 16.4537 29.6039C15.9102 30.0012 15.46 30.5124 15.1345 31.1018L14.8052 29.2345C14.6403 28.2918 14.8559 27.3222 15.4048 26.5382C15.9537 25.7543 16.791 25.2199 17.7333 25.0524ZM8.91126 27.4814L8.76208 26.6351L9.60839 26.4852C10.5511 26.3189 11.5212 26.5339 12.3053 27.0829C13.0895 27.6319 13.6234 28.4699 13.7898 29.4126L14.1205 31.286C13.6131 30.8426 13.0151 30.5152 12.3682 30.3266C11.7213 30.138 11.0411 30.0929 10.375 30.1943C9.60888 29.4702 9.09576 28.5192 8.91126 27.4814ZM9.75001 32.2203L9.60083 31.3733L10.4471 31.2241C11.3898 31.0596 12.3593 31.2755 13.143 31.8245C13.9268 32.3734 14.461 33.2107 14.6285 34.1529L14.9578 36.0201C14.8342 35.9127 14.7052 35.8115 14.5715 35.7169C13.5957 35.0313 12.392 34.7509 11.2137 34.9346C10.4471 34.2104 9.93391 33.2587 9.75001 32.2203ZM10.5853 36.9593L10.4361 36.1129L11.2825 35.9644C12.2249 35.7982 13.1949 36.0131 13.9789 36.562C14.7629 37.1108 15.2968 37.9486 15.4631 38.8911L15.7938 40.7652C15.2866 40.3221 14.6888 39.9949 14.0422 39.8064C13.3955 39.618 12.7156 39.5729 12.0497 39.6742C11.2817 38.9503 10.7672 37.9984 10.5826 36.9593H10.5853ZM11.4213 41.6989L11.2694 40.8526L12.1157 40.7034C13.0583 40.5385 14.0279 40.7541 14.8117 41.303C15.5956 41.8519 16.1297 42.6893 16.2971 43.6314L16.6807 45.806C15.4513 45.8917 14.2337 45.5196 13.2622 44.7613C12.2907 44.0031 11.634 42.9123 11.4186 41.6989H11.4213ZM16.81 40.5865L16.4793 38.7124C16.3143 37.7698 16.53 36.8002 17.0789 36.0164C17.6278 35.2325 18.4651 34.6983 19.4073 34.531L20.2536 34.3818L20.4028 35.2288C20.5846 36.2683 20.4267 37.3386 19.9525 38.2813C19.2922 38.4137 18.6686 38.6886 18.1254 39.0867C17.5822 39.4848 17.1323 39.9967 16.8072 40.5865H16.81ZM17.6989 45.6273L17.3125 43.4527C17.1474 42.5101 17.363 41.5404 17.9119 40.7565C18.4608 39.9726 19.2983 39.4385 20.2406 39.2713L21.0869 39.1221L21.2361 39.9684C21.4482 41.1822 21.2041 42.4316 20.5506 43.4762C19.8971 44.5209 18.8804 45.287 17.6961 45.6273H17.6989Z" fill="black"/>
</g>
<defs>
<clipPath id="clip0_258_722">
<rect width="44" height="44" fill="white" transform="translate(7 7)"/>
</clipPath>
</defs>
</svg>
