<svg width="57" height="57" viewBox="0 0 57 57" fill="none" xmlns="http://www.w3.org/2000/svg">
<circle cx="30.6765" cy="19.5" r="8.5" stroke="black" stroke-width="2"/>
<path d="M46.7484 42.9587C46.9101 43.8527 46.1648 44.7647 45.0001 44.7647H31.2354L15.5025 44.7647C15.6123 43.0365 16.0063 41.3359 16.6707 39.7318C17.463 37.8192 18.6242 36.0813 20.0881 34.6174C21.552 33.1535 23.2899 31.9923 25.2025 31.2C27.1152 30.4078 29.1652 30 31.2354 30C33.3057 30 35.3556 30.4078 37.2683 31.2C39.181 31.9923 40.9188 33.1535 42.3827 34.6174C43.8466 36.0813 45.0078 37.8192 45.8001 39.7318C46.2314 40.773 46.5487 41.8549 46.7484 42.9587Z" stroke="black" stroke-width="2"/>
<path d="M18.9412 30.1177L21.674 35.2974L27.4447 36.2959L23.363 40.4956L24.1967 46.2924L18.9412 43.7083L13.6857 46.2924L14.5193 40.4956L10.4376 36.2959L16.2083 35.2974L18.9412 30.1177Z" fill="#F0C200"/>
</svg>
