<svg width="57" height="57" viewBox="0 0 57 57" fill="none" xmlns="http://www.w3.org/2000/svg">
<path d="M25.2186 45.8927L15.7787 36.5146C15.4328 36.1716 15.4328 35.6158 15.7787 35.2729C16.1246 34.9301 16.6855 34.9301 17.0313 35.2729L26.4713 44.6511C29.0789 47.2363 32.5462 48.6601 36.2346 48.6601C39.9228 48.6601 43.3901 47.2363 45.9977 44.6511C46.0065 44.6423 46.0156 44.6336 46.0248 44.6252C50.4127 40.2517 51.3051 33.4739 48.193 28.1292L44.6765 22.2111C44.432 21.7912 44.5773 21.2542 45.001 21.0118C45.4247 20.7693 45.9664 20.9134 46.211 21.3335L49.7274 27.2514C53.2457 33.2935 52.2276 40.959 47.2518 45.8926C47.2424 45.902 47.2327 45.911 47.2229 45.9199C44.2839 48.8198 40.3832 50.416 36.2346 50.416C32.0729 50.4162 28.1607 48.8096 25.2186 45.8927Z" fill="black"/>
<path d="M12.3414 31.4189C12.3512 30.3564 12.7742 29.3726 13.5326 28.6488C14.0939 28.1131 14.7798 27.7753 15.4988 27.6346L15.1587 27.2973C14.3951 26.5404 13.9629 25.4889 13.9728 24.4123C13.9828 23.3501 14.4055 22.3664 15.1637 21.6421C15.7248 21.1065 16.4112 20.7689 17.1302 20.628L16.7894 20.2903C16.0258 19.5326 15.5939 18.4805 15.6044 17.4037C15.6148 16.3419 16.0379 15.3587 16.7955 14.6357C18.1695 13.3233 20.2935 13.1981 21.8131 14.2476C21.9461 13.5092 22.2913 12.8022 22.8497 12.2274C23.5797 11.4759 24.572 11.0566 25.6438 11.0465C26.7256 11.0383 27.7912 11.4647 28.5547 12.2214L37.5216 21.1099C37.5005 20.6814 37.5474 20.2485 37.6648 19.8301C37.952 18.8067 38.6173 17.9654 39.5384 17.4611C41.414 16.4346 43.8119 17.096 44.8836 18.9354L46.1615 21.1281C46.4062 21.548 46.2611 22.0851 45.8375 22.3276C45.414 22.5701 44.8721 22.4264 44.6274 22.0066L43.3494 19.8138C42.7568 18.7967 41.4311 18.431 40.3946 18.9983C39.8934 19.2727 39.53 19.7353 39.3713 20.3008C39.2066 20.8875 39.2865 21.5233 39.5901 22.0449L41.1674 24.752L41.6965 25.5006C42.2513 26.2856 42.1578 27.3473 41.4741 28.0249L40.8389 28.6545C40.5654 28.9257 40.4148 29.2861 40.4148 29.6695V30.7307C40.4148 31.2156 40.0182 31.6088 39.529 31.6088C39.0399 31.6088 38.6433 31.2156 38.6433 30.7307V29.6695C38.6433 28.817 38.9782 28.0156 39.5862 27.4128L40.2214 26.7832C40.2958 26.7094 40.306 26.5936 40.2456 26.5082L39.7387 25.791L27.3021 13.4634C26.8728 13.0377 26.2741 12.7987 25.6606 12.8028C25.0681 12.8083 24.5232 13.0367 24.1258 13.4456C23.3058 14.2899 23.318 15.6501 24.1513 16.4809C24.1528 16.4823 33.7243 25.9695 33.7243 25.9695L34.0042 25.6921C34.3501 25.3492 34.911 25.3492 35.2568 25.6921C35.6027 26.035 35.6027 26.5909 35.2568 26.9337L24.7444 37.354C24.5715 37.5254 24.3448 37.6111 24.1181 37.6111C23.8915 37.6111 23.6647 37.5254 23.4918 37.354C23.1459 37.011 23.1459 36.4552 23.4918 36.1123L23.7716 35.835L17.828 29.9433C16.9903 29.1128 15.6145 29.0995 14.7613 29.9137C14.3485 30.3077 14.1183 30.8479 14.1128 31.435C14.1071 32.0434 14.3503 32.6365 14.7803 33.0623L16.8341 35.0981C17.18 35.441 17.18 35.997 16.8341 36.3398C16.6612 36.5113 16.4345 36.597 16.2078 36.597C15.9812 36.597 15.7544 36.5113 15.5815 36.3398L13.5281 34.3043C12.7639 33.5477 12.3314 32.4959 12.3414 31.4189ZM21.091 15.93C20.2528 15.0993 18.8774 15.086 18.0245 15.9007C17.612 16.2944 17.3816 16.8344 17.3759 17.421C17.37 18.0296 17.6129 18.6232 18.0422 19.049L29.3743 30.2815L32.4716 27.2114L21.091 15.93ZM16.4113 26.0557L25.0243 34.5933L28.1216 31.5232L19.4594 22.9369C19.4583 22.9357 19.4573 22.9344 19.4561 22.9332C18.6171 22.1067 17.2438 22.0946 16.3925 22.9069C15.9799 23.3012 15.7497 23.8415 15.7443 24.4286C15.7387 25.0368 15.9818 25.6299 16.4113 26.0557Z" fill="black"/>
<path d="M45.1562 37.3636L39.1797 43.2878L32.5 38.0606V36.3182L32.8516 35.2727L33.9062 33.8788L35.6641 33.5303L37.4219 33.8788L38.8281 35.9697L39.5312 34.5757L41.2891 33.5303H43.0469L44.8047 34.9242L45.1562 37.3636Z" fill="#F0C200"/>
<path d="M34.3384 38.6969C34.6843 39.0399 34.8258 39.5209 34.4798 39.8638C34.1339 40.2066 33.573 40.2066 33.2272 39.8638L33.0053 39.8638C32.2225 39.0879 31.6073 37.65 31.6143 36.5527C31.6213 35.4553 32.0619 34.4289 32.8554 33.6617C34.4248 32.1479 36.9861 32.1386 38.5662 33.6423C38.6633 33.735 38.7555 33.8321 38.8424 33.933C38.9297 33.8318 39.0223 33.7344 39.12 33.6415C40.6988 32.1376 43.26 32.1467 44.8292 33.6621C45.6223 34.4279 46.063 35.4539 46.0706 36.5507C46.078 37.6485 45.6511 38.6806 44.8681 39.4576L41.1561 43.1371C40.5183 43.7692 39.6804 44.0853 38.8427 44.0853C38.005 44.0853 37.167 43.7692 36.5293 43.1371L33.0053 39.8638C32.6594 39.5208 32.6594 38.9649 33.0053 38.622C33.3512 38.2793 33.9121 38.2793 34.2579 38.622L37.7819 41.8953C38.3668 42.4751 39.3185 42.4751 39.9035 41.8953L43.6151 38.2162C44.0604 37.7745 44.3033 37.1871 44.299 36.5627C44.2948 35.9389 44.0441 35.3555 43.593 34.9199C42.7009 34.0582 41.2449 34.0528 40.3475 34.9077C40.0313 35.2089 39.8077 35.5888 39.7007 36.0065C39.601 36.3959 39.2475 36.6686 38.8421 36.6686C38.4366 36.6686 38.0832 36.3959 37.9835 36.0065C37.8766 35.5889 37.653 35.2087 37.3382 34.9079C36.4403 34.0535 34.9835 34.059 34.0915 34.9196C33.6402 35.3558 33.3896 35.9396 33.3856 36.5637C33.3816 37.1878 33.4832 37.8494 33.9284 38.2906L34.3384 38.6969Z" fill="black"/>
</svg>
