<svg width="57" height="57" viewBox="0 0 57 57" fill="none" xmlns="http://www.w3.org/2000/svg">
<path d="M20.638 37.0347H10.5518V50.2243H20.638V37.0347Z" fill="#FBE761"/>
<g clip-path="url(#clip0_258_681)">
<path d="M26.8448 24.6206L36.1552 30.0516L32.2758 36.2585H20.6379L26.8448 24.6206Z" fill="#F0C200"/>
<path d="M40.0344 7.55176H52.4482V16.8621H40.0344V7.55176Z" fill="#FFAE1C"/>
<path d="M11.2501 35.9999H18.5162L12.2269 32.3682C11.7085 32.0716 11.3294 31.581 11.1736 31.0042C11.0174 30.4274 11.0974 29.8125 11.3957 29.2951L16.6472 20.2019C16.9462 19.6848 17.4389 19.3079 18.016 19.1544C18.5931 18.9979 19.209 19.0803 19.7247 19.3827L26.0154 23.0154L22.3848 16.7278C22.0833 16.2108 22.0006 15.5948 22.1544 15.0163C22.3082 14.4378 22.6866 13.9445 23.205 13.6458L32.2969 8.39433C32.8142 8.09702 33.4284 8.01771 34.0042 8.17358C34.5799 8.32944 35.0702 8.70744 35.3672 9.22483L38.9999 15.5176V8.25014C39.0013 7.008 40.0079 6.00137 41.25 6H51.7499C52.992 6.00137 53.9986 7.008 54 8.25014V48.7499C53.9986 49.992 52.992 50.9986 51.7499 51H11.2501C10.008 50.9986 9.00137 49.992 9 48.7499V38.25C9.00137 37.0079 10.008 36.0013 11.2501 35.9999ZM51.7499 35.9999C52.006 36.0026 52.2597 36.0493 52.5 36.1382V28.5H46.4957L50.8256 35.9999H51.7499ZM21.5162 35.9999H31.7723L35.2082 30.0559L27.4151 25.556L21.418 35.9436L21.5162 35.9999ZM28.6144 24.5161L37.4934 29.6436L43.4411 26.2094L38.9429 18.4183L28.556 24.4151L28.6144 24.5161ZM40.4999 18.1152L45.1086 26.0981C45.111 26.1019 45.1148 26.1036 45.1172 26.1077L45.1213 26.1197L45.6294 27H52.5V18.0002H40.4999V18.1152ZM44.1909 27.5085L38.9934 30.5098L48.501 35.9999H49.0936L44.1909 27.5085ZM37.1281 31.1649L37.1185 31.1594L36.507 30.8061L33.5047 35.9999H45.501L37.1281 31.1649ZM40.4999 37.4999H31.5V49.5H40.4999V37.4999ZM30 37.4999H21.0002V49.5H30V37.4999ZM18.9718 20.6801C18.8008 20.5792 18.5959 20.5514 18.404 20.6029C18.2103 20.6551 18.0452 20.7814 17.9442 20.9548L12.6959 30.0432C12.596 30.2159 12.5692 30.4212 12.6217 30.6138C12.6742 30.8061 12.8013 30.9699 12.975 31.0677L20.1192 35.1927L26.116 24.8055L18.9718 20.6801ZM34.0667 9.97259C33.9685 9.80024 33.8054 9.6739 33.6135 9.62171C33.4219 9.56953 33.2173 9.59562 33.045 9.6945L23.9579 14.9429C23.7831 15.0435 23.6554 15.2093 23.6029 15.404C23.5514 15.5972 23.5799 15.8029 23.6822 15.9749L27.8055 23.116L38.1927 17.1192L34.0667 9.97259ZM51.7499 7.49998H41.25C40.836 7.50066 40.5005 7.83609 40.4999 8.25014V16.4998H52.5V8.25014C52.4993 7.83609 52.1639 7.50066 51.7499 7.49998ZM52.5 48.7499V38.25C52.4993 37.836 52.1639 37.5006 51.7499 37.4999H41.9998V49.5H51.7499C52.1639 49.4993 52.4993 49.1639 52.5 48.7499ZM10.5 48.7499C10.5007 49.1639 10.8361 49.4993 11.2501 49.5H19.4998V37.4999H11.2501C10.8361 37.5006 10.5007 37.836 10.5 38.25V48.7499Z" fill="black"/>
<path d="M46.5002 40.5C48.157 40.5 49.5001 41.8431 49.5001 43.5C49.5001 45.1568 48.157 46.4999 46.5002 46.4999C44.8433 46.4999 43.5002 45.1568 43.5002 43.5C43.5019 41.8438 44.844 40.5017 46.5002 40.5ZM46.5002 44.9999C47.3286 44.9999 48.0001 44.3284 48.0001 43.5C48.0001 42.6715 47.3286 42 46.5002 42C45.6717 42 45.0002 42.6715 45.0002 43.5C45.0009 44.328 45.6721 44.9989 46.5002 44.9999Z" fill="black"/>
</g>
<defs>
<clipPath id="clip0_258_681">
<rect width="45" height="45" fill="white" transform="matrix(-1 0 0 1 54 6)"/>
</clipPath>
</defs>
</svg>
