<svg width="57" height="57" viewBox="0 0 57 57" fill="none" xmlns="http://www.w3.org/2000/svg">
<path d="M40.0058 8.59961L33.4819 15.1235L33.508 15.1495C37.3617 16.595 40.423 19.6513 41.8643 23.5059L41.8752 23.5168L48.3991 16.9929L40.0058 8.59961Z" fill="#F0C200"/>
<path d="M15.9089 49.4849L22.7828 42.611C22.7685 42.5808 22.7509 42.5522 22.7358 42.522L18.9425 37.8272C17.5726 36.4841 16.2094 35.1335 15.3045 33.3254L15.2936 33.312L7.51477 41.0908L15.9089 49.4849Z" fill="#F0C200"/>
<path d="M52.7967 41.9301H54.5217V36.8937H52.7967C52.1437 36.8937 51.5603 36.5033 51.2975 35.8679C51.0432 35.2585 51.1783 34.566 51.6409 34.1026L52.8622 32.8805L49.2997 29.318L48.0767 30.5402C47.615 31.0035 46.9217 31.1362 46.3643 30.9078L46.2795 30.8692C45.6777 30.6208 45.2882 30.0382 45.2882 29.3851V27.6602H42.728C42.7439 27.9397 42.77 28.2158 42.77 28.4996C42.77 31.2839 41.9306 33.2288 40.7579 34.8413L40.8276 34.7649C41.4252 34.5139 42.0816 34.3754 42.77 34.3754C45.5484 34.3754 47.8064 36.6335 47.8064 39.4119C47.8064 42.1904 45.5484 44.4484 42.77 44.4484C39.9915 44.4484 37.7335 42.1904 37.7335 39.4119C37.7335 38.8898 37.8132 38.3861 37.961 37.9119C36.2234 39.6067 34.4909 41.3056 33.6808 43.9279L33.6456 43.9111C34.0863 44.2125 34.3759 44.7145 34.3759 45.2878C34.3759 45.9257 34.0166 46.473 33.4928 46.7576L36.2394 49.505L37.4624 48.2828C37.924 47.8186 38.6157 47.6843 39.1748 47.9151L39.2596 47.9521C39.8614 48.2031 40.2517 48.7856 40.2517 49.4387V51.1637H45.2882V49.4387C45.2882 48.7856 45.6785 48.2022 46.314 47.9395C46.9234 47.686 47.6159 47.8194 48.0784 48.2828L49.3006 49.505L52.863 45.9425L51.6417 44.7203C51.1792 44.257 51.044 43.5645 51.3118 42.9232C51.5611 42.3205 52.1437 41.9301 52.7967 41.9301Z" fill="#F0C200"/>
<path d="M33.6465 43.9112C33.4962 43.8088 33.3292 43.7291 33.1495 43.6787L33.6465 43.9112Z" fill="#F0C200"/>
<path d="M42.7701 41.9305C44.1584 41.9305 45.2883 40.8007 45.2883 39.4123C45.2883 38.0239 44.1584 36.894 42.7701 36.894C41.3817 36.894 40.2518 38.0239 40.2518 39.4123C40.2518 40.8007 41.3817 41.9305 42.7701 41.9305ZM42.7701 38.5729C43.2326 38.5729 43.6095 38.9489 43.6095 39.4123C43.6095 39.8756 43.2326 40.2517 42.7701 40.2517C42.3075 40.2517 41.9307 39.8756 41.9307 39.4123C41.9307 38.9489 42.3075 38.5729 42.7701 38.5729Z" fill="black"/>
<path d="M54.5217 9.25291C54.5217 5.51753 51.4822 2.47803 47.7469 2.47803C45.9371 2.47803 44.2356 3.18313 42.9563 4.46239L33.2528 14.1668C31.9978 13.7454 30.6674 13.5003 29.2933 13.4273C28.1349 11.4035 25.9583 10.0327 23.4635 10.0327C22.8248 10.0327 22.2086 10.1284 21.6219 10.2955C20.1731 7.57157 17.3585 5.83567 14.23 5.83567C9.60151 5.83567 5.83592 9.60127 5.83592 14.2298C5.83592 14.8728 5.91482 15.5057 6.05836 16.1252C3.98921 16.7514 2.47827 18.6745 2.47827 20.9451C2.47827 23.7227 4.73713 25.9815 7.51474 25.9815H13.6038C13.4645 26.8117 13.3906 27.6545 13.3906 28.4998C13.3906 30.3473 13.7323 31.8507 14.2837 33.135L6.79536 40.6242L2.62853 51.4577C2.52864 51.7162 2.47827 51.9882 2.47827 52.266C2.47827 53.51 3.4906 54.5215 4.73377 54.5215C5.01161 54.5215 5.28358 54.4703 5.54296 54.3712L16.3764 50.2044L21.8519 44.7281C21.8107 44.9086 21.7847 45.0949 21.7847 45.288C21.7847 45.9352 22.0374 46.5202 22.4395 46.9668C22.0365 47.4134 21.7847 47.9984 21.7847 48.6456C21.7847 49.8124 22.5864 50.7878 23.665 51.0715C24.3802 53.1197 26.2957 54.5215 28.5 54.5215C30.7043 54.5215 32.6198 53.1197 33.335 51.0715C34.4137 50.7878 35.2153 49.8124 35.2153 48.6456C35.2153 47.9984 34.9626 47.4134 34.5606 46.9668C34.9635 46.5202 35.2153 45.9352 35.2153 45.288C35.2153 44.692 34.9987 44.1514 34.6512 43.7191C35.1733 42.3098 35.9918 41.1824 36.9445 40.1416C37.3054 43.0375 39.7775 45.288 42.77 45.288C46.0101 45.288 48.6459 42.6514 48.6459 39.4121C48.6459 36.1728 46.0101 33.5362 42.77 33.5362C42.6877 33.5362 42.608 33.5446 42.5266 33.548C43.1872 32.1747 43.6094 30.5504 43.6094 28.4998C43.6094 26.8453 43.3257 25.2538 42.8237 23.7579L52.5374 14.0443C53.8166 12.7642 54.5217 11.0627 54.5217 9.25291ZM4.15709 20.9451C4.15709 19.0933 5.663 17.5874 7.51474 17.5874C9.36648 17.5874 10.8724 19.0933 10.8724 20.9451H12.5512C12.5512 18.2405 10.4065 16.0328 7.72963 15.9195C7.58693 15.3705 7.51474 14.8039 7.51474 14.2298C7.51474 10.5271 10.5274 7.51449 14.23 7.51449C16.6853 7.51449 18.9013 8.84916 20.0799 10.9569C18.2903 12.007 17.0261 13.8562 16.7902 16.0144C15.3246 16.3753 14.23 17.6907 14.23 19.2662H15.9088C15.9088 18.3404 16.6618 17.5874 17.5877 17.5874C18.5135 17.5874 19.2665 18.3404 19.2665 19.2662H20.9453C20.9453 17.7259 19.8977 16.4391 18.4816 16.0446C18.8258 13.6002 20.9252 11.7115 23.4635 11.7115C26.2412 11.7115 28.5 13.9704 28.5 16.748C28.5 17.1895 28.4278 17.6218 28.3153 18.0432C26.9387 18.7324 25.9818 20.1426 25.9818 21.7845H27.6606C27.6606 20.3961 28.7904 19.2662 30.1788 19.2662C31.5672 19.2662 32.6971 20.3961 32.6971 21.7845C32.6971 23.1729 31.5672 24.3027 30.1788 24.3027H7.51474C5.663 24.3027 4.15709 22.7968 4.15709 20.9451ZM24.303 25.9815V28.4998C24.303 29.8882 25.4328 31.018 26.8212 31.018H33.5365C33.999 31.018 34.3759 31.3941 34.3759 31.8574C34.3759 32.3208 33.999 32.6968 33.5365 32.6968H25.1424C23.754 32.6968 22.6241 33.8267 22.6241 35.2151C22.6241 36.6034 23.754 37.7333 25.1424 37.7333H26.8212C27.2837 37.7333 27.6606 38.1093 27.6606 38.5727V42.7698H24.303C24.1326 42.7698 23.9664 42.7874 23.806 42.8201C22.8474 40.4639 21.2005 38.8472 19.5972 37.2834C17.2687 35.0128 15.0694 32.8672 15.0694 28.4998C15.0694 27.6511 15.171 26.81 15.328 25.9815H24.303ZM33.5365 45.288C33.5365 45.7513 33.1596 46.1274 32.6971 46.1274H24.303C23.8404 46.1274 23.4635 45.7513 23.4635 45.288C23.4635 44.8246 23.8404 44.4486 24.303 44.4486H32.6971C33.1596 44.4486 33.5365 44.8246 33.5365 45.288ZM4.9411 52.8041C4.57764 52.9451 4.15709 52.6555 4.15709 52.266C4.15709 52.1947 4.17052 52.125 4.19487 52.0595L5.03596 49.872L7.12693 51.963L4.9411 52.8041ZM15.4413 48.7657L8.84185 51.304L5.69573 48.1579L8.23411 41.5585L15.1064 34.6862C15.8946 35.9244 16.8716 36.9568 17.8705 37.9423L11.1183 44.6945L12.3053 45.8814L19.0692 39.1175C20.1017 40.1416 21.0603 41.1774 21.7671 42.439L15.4413 48.7657ZM28.5 52.8427C27.2602 52.8427 26.1547 52.1829 25.5419 51.1639H31.4581C30.8453 52.1829 29.7398 52.8427 28.5 52.8427ZM32.6971 49.485H24.303C23.8404 49.485 23.4635 49.109 23.4635 48.6456C23.4635 48.1823 23.8404 47.8062 24.303 47.8062H32.6971C33.1596 47.8062 33.5365 48.1823 33.5365 48.6456C33.5365 49.109 33.1596 49.485 32.6971 49.485ZM33.194 42.8201C33.0337 42.7874 32.8675 42.7698 32.6971 42.7698H29.3394V38.5727C29.3394 37.1843 28.2096 36.0545 26.8212 36.0545H25.1424C24.6798 36.0545 24.303 35.6784 24.303 35.2151C24.303 34.7517 24.6798 34.3756 25.1424 34.3756H33.5365C34.9249 34.3756 36.0547 33.2458 36.0547 31.8574C36.0547 30.469 34.9249 29.3392 33.5365 29.3392H26.8212C26.3587 29.3392 25.9818 28.9631 25.9818 28.4998V25.9815H30.1788C32.4931 25.9815 34.3759 24.0987 34.3759 21.7845C34.3759 19.4702 32.4931 17.5874 30.1788 17.5874C30.1553 17.5874 30.1335 17.5941 30.11 17.5941C30.1461 17.3138 30.1788 17.0334 30.1788 16.748C30.1788 16.199 30.105 15.6677 29.9807 15.1565C36.6725 15.9019 41.9306 21.6451 41.9306 28.4998C41.9306 32.8672 39.7313 35.0128 37.4028 37.2834C35.7995 38.8472 34.1526 40.4639 33.194 42.8201ZM42.77 35.2151C45.0843 35.2151 46.967 37.0979 46.967 39.4121C46.967 41.7264 45.0843 43.6092 42.77 43.6092C40.4557 43.6092 38.5729 41.7264 38.5729 39.4121C38.5729 39.0486 38.6292 38.6911 38.7207 38.3427C39.6365 37.4487 40.554 36.5354 41.3455 35.4795C41.8022 35.3133 42.2773 35.2151 42.77 35.2151ZM39.7288 18.4587L44.7963 13.3904L43.6094 12.2034L38.5436 17.2693C37.4658 16.3023 36.2528 15.4889 34.9333 14.8593L41.9306 7.86201L49.1378 15.0692L42.1362 22.0707C41.5075 20.7512 40.695 19.5374 39.7288 18.4587ZM50.3247 13.8823L43.1175 6.67508L44.1433 5.64932C45.1061 4.68736 46.3853 4.15685 47.7469 4.15685C50.5564 4.15685 52.8429 6.4434 52.8429 9.25291C52.8429 10.6136 52.3133 11.8937 51.3505 12.8565L50.3247 13.8823Z" fill="black"/>
</svg>
