<svg width="57" height="57" viewBox="0 0 57 57" fill="none" xmlns="http://www.w3.org/2000/svg">
<g clip-path="url(#clip0_258_691)">
<path d="M47.279 48.9375H41.8836C41.7048 48.9375 41.5332 48.8651 41.4068 48.7361C41.2803 48.6072 41.2092 48.4323 41.2092 48.25V19.375C41.2092 19.1927 41.2803 19.0178 41.4068 18.8889C41.5332 18.7599 41.7048 18.6875 41.8836 18.6875H47.279C47.4579 18.6875 47.6294 18.7599 47.7559 18.8889C47.8824 19.0178 47.9534 19.1927 47.9534 19.375V48.25C47.9534 48.4323 47.8824 48.6072 47.7559 48.7361C47.6294 48.8651 47.4579 48.9375 47.279 48.9375ZM42.5581 47.5625H46.6046V20.0625H42.5581V47.5625Z" fill="#151515"/>
<path d="M47.2791 44.8127C47.1733 44.8139 47.0689 44.7879 46.9756 44.737L41.5802 41.987C41.4343 41.8975 41.327 41.7551 41.2799 41.5883C41.2328 41.4215 41.2493 41.2427 41.3261 41.0877C41.4029 40.9328 41.5344 40.8133 41.6941 40.7531C41.8539 40.6929 42.03 40.6965 42.1872 40.7633L47.5826 43.5133C47.7414 43.5957 47.8618 43.7389 47.9174 43.9115C47.973 44.0841 47.9593 44.2722 47.8793 44.4345C47.8233 44.5479 47.7375 44.6433 47.6316 44.71C47.5256 44.7767 47.4036 44.8123 47.2791 44.8127Z" fill="#151515"/>
<path d="M47.2791 48.9377C47.1733 48.9389 47.0689 48.9129 46.9756 48.862L41.5802 46.112C41.4343 46.0225 41.327 45.8801 41.2799 45.7133C41.2328 45.5465 41.2493 45.3677 41.3261 45.2127C41.4029 45.0578 41.5344 44.9383 41.6941 44.8781C41.8539 44.8179 42.03 44.8215 42.1872 44.8883L47.5826 47.6383C47.7414 47.7207 47.8618 47.8639 47.9174 48.0365C47.973 48.2091 47.9593 48.3972 47.8793 48.5595C47.8233 48.6729 47.7375 48.7683 47.6316 48.835C47.5256 48.9017 47.4036 48.9373 47.2791 48.9377Z" fill="#151515"/>
<path d="M47.2791 40.6877C47.1733 40.6889 47.0689 40.6629 46.9756 40.612L41.5802 37.862C41.4343 37.7725 41.327 37.6301 41.2799 37.4633C41.2328 37.2965 41.2493 37.1177 41.3261 36.9627C41.4029 36.8078 41.5344 36.6883 41.6941 36.6281C41.8539 36.5679 42.03 36.5715 42.1872 36.6383L47.5826 39.3883C47.7414 39.4707 47.8618 39.6139 47.9174 39.7865C47.973 39.9591 47.9593 40.1472 47.8793 40.3095C47.8233 40.4229 47.7375 40.5183 47.6316 40.585C47.5256 40.6517 47.4036 40.6873 47.2791 40.6877Z" fill="#151515"/>
<path d="M47.2791 32.4377C47.1733 32.4389 47.0689 32.4129 46.9756 32.362L41.5802 29.612C41.4343 29.5225 41.327 29.3801 41.2799 29.2133C41.2328 29.0465 41.2493 28.8677 41.3261 28.7127C41.4029 28.5578 41.5344 28.4383 41.6941 28.3781C41.8539 28.3179 42.03 28.3215 42.1872 28.3883L47.5826 31.1383C47.7414 31.2207 47.8618 31.3639 47.9174 31.5365C47.973 31.7091 47.9593 31.8972 47.8793 32.0595C47.8233 32.1729 47.7375 32.2683 47.6316 32.335C47.5256 32.4017 47.4036 32.4373 47.2791 32.4377Z" fill="#151515"/>
<path d="M47.2791 28.3127C47.1733 28.3139 47.0689 28.2879 46.9756 28.237L41.5802 25.487C41.4343 25.3975 41.327 25.2551 41.2799 25.0883C41.2328 24.9215 41.2493 24.7427 41.3261 24.5877C41.4029 24.4328 41.5344 24.3133 41.6941 24.2531C41.8539 24.1929 42.03 24.1965 42.1872 24.2633L47.5826 27.0133C47.7414 27.0957 47.8618 27.2389 47.9174 27.4115C47.973 27.5841 47.9593 27.7722 47.8793 27.9345C47.8233 28.0479 47.7375 28.1433 47.6316 28.21C47.5256 28.2767 47.4036 28.3123 47.2791 28.3127Z" fill="#151515"/>
<path d="M47.279 24.1873C47.1732 24.1886 47.0688 24.1626 46.9755 24.1117L41.5802 21.3617C41.4946 21.3254 41.4172 21.2714 41.353 21.2032C41.2888 21.135 41.239 21.0541 41.2069 20.9654C41.1747 20.8767 41.1608 20.7822 41.1661 20.6879C41.1714 20.5935 41.1958 20.5012 41.2376 20.4168C41.2794 20.3325 41.3379 20.2578 41.4093 20.1975C41.4808 20.1372 41.5636 20.0926 41.6528 20.0664C41.7419 20.0402 41.8353 20.0331 41.9273 20.0454C42.0192 20.0577 42.1077 20.0892 42.1872 20.138L47.5825 22.888C47.7414 22.9704 47.8617 23.1136 47.9173 23.2862C47.973 23.4588 47.9593 23.6469 47.8793 23.8092C47.8232 23.9226 47.7375 24.0179 47.6315 24.0847C47.5256 24.1514 47.4036 24.187 47.279 24.1873Z" fill="#151515"/>
<path d="M47.2791 36.5627C47.1733 36.5639 47.0689 36.5379 46.9756 36.487L41.5802 33.737C41.4343 33.6475 41.327 33.5051 41.2799 33.3383C41.2328 33.1715 41.2493 32.9927 41.3261 32.8377C41.4029 32.6828 41.5344 32.5633 41.6941 32.5031C41.8539 32.4429 42.03 32.4465 42.1872 32.5133L47.5826 35.2633C47.7414 35.3457 47.8618 35.4889 47.9174 35.6615C47.973 35.8341 47.9593 36.0222 47.8793 36.1845C47.8233 36.2979 47.7375 36.3933 47.6316 36.46C47.5256 36.5267 47.4036 36.5623 47.2791 36.5627Z" fill="#151515"/>
<path d="M49.9767 14.5625H39.186C38.8135 14.5625 38.5116 14.8703 38.5116 15.25V19.375C38.5116 19.7547 38.8135 20.0625 39.186 20.0625H49.9767C50.3492 20.0625 50.6511 19.7547 50.6511 19.375V15.25C50.6511 14.8703 50.3492 14.5625 49.9767 14.5625Z" fill="#222222"/>
<path d="M39.8605 15.9375H49.3023V18.6875H39.8605V15.9375Z" fill="#F0C200"/>
<path d="M52.6744 9.0625H36.4884C36.1159 9.0625 35.814 9.3703 35.814 9.75V15.25C35.814 15.6297 36.1159 15.9375 36.4884 15.9375H52.6744C53.0469 15.9375 53.3489 15.6297 53.3489 15.25V9.75C53.3489 9.3703 53.0469 9.0625 52.6744 9.0625Z" fill="#222222"/>
<path d="M37.1628 10.4375H52.0001V14.5625H37.1628V10.4375Z" fill="#F0C200"/>
<path d="M31.8838 48.0959H28.2559C28.1356 48.0959 28.0202 48.0472 27.9352 47.9605C27.8501 47.8738 27.8024 47.7562 27.8024 47.6336V28.2177C27.8024 28.0951 27.8501 27.9775 27.9352 27.8908C28.0202 27.8041 28.1356 27.7554 28.2559 27.7554H31.8838C32.004 27.7554 32.1194 27.8041 32.2044 27.8908C32.2895 27.9775 32.3373 28.0951 32.3373 28.2177V47.6336C32.3373 47.7562 32.2895 47.8738 32.2044 47.9605C32.1194 48.0472 32.004 48.0959 31.8838 48.0959ZM28.7093 47.1713H31.4303V28.6799H28.7093V47.1713Z" fill="#151515"/>
<path d="M31.8837 45.3223C31.8125 45.3232 31.7423 45.3057 31.6796 45.2715L28.0517 43.4224C27.9536 43.3622 27.8815 43.2664 27.8498 43.1542C27.8181 43.0421 27.8292 42.9218 27.8808 42.8177C27.9325 42.7135 28.0209 42.6331 28.1283 42.5926C28.2357 42.5522 28.3541 42.5546 28.4599 42.5995L32.0878 44.4486C32.1946 44.504 32.2755 44.6003 32.3129 44.7164C32.3503 44.8325 32.3411 44.9589 32.2873 45.0681C32.2496 45.1443 32.192 45.2084 32.1207 45.2533C32.0495 45.2982 31.9674 45.3221 31.8837 45.3223Z" fill="#151515"/>
<path d="M31.8837 48.0958C31.8125 48.0966 31.7423 48.0792 31.6796 48.0449L28.0517 46.1958C27.9536 46.1356 27.8815 46.0398 27.8498 45.9277C27.8181 45.8155 27.8292 45.6953 27.8808 45.5911C27.9325 45.4869 28.0209 45.4065 28.1283 45.3661C28.2357 45.3256 28.3541 45.3281 28.4599 45.3729L32.0878 47.2221C32.1946 47.2775 32.2755 47.3738 32.3129 47.4898C32.3503 47.6059 32.3411 47.7323 32.2873 47.8415C32.2496 47.9178 32.192 47.9819 32.1207 48.0268C32.0495 48.0716 31.9674 48.0955 31.8837 48.0958Z" fill="#151515"/>
<path d="M31.8837 42.5484C31.8125 42.5493 31.7423 42.5318 31.6796 42.4976L28.0517 40.6484C27.9536 40.5882 27.8815 40.4925 27.8498 40.3803C27.8181 40.2681 27.8292 40.1479 27.8808 40.0437C27.9325 39.9396 28.0209 39.8592 28.1283 39.8187C28.2357 39.7782 28.3541 39.7807 28.4599 39.8256L32.0878 41.6747C32.1946 41.7301 32.2755 41.8264 32.3129 41.9425C32.3503 42.0585 32.3411 42.185 32.2873 42.2942C32.2496 42.3704 32.192 42.4345 32.1207 42.4794C32.0495 42.5243 31.9674 42.5482 31.8837 42.5484Z" fill="#151515"/>
<path d="M31.8837 37.0011C31.8125 37.0019 31.7423 36.9844 31.6796 36.9502L28.0517 35.1011C27.9536 35.0409 27.8815 34.9451 27.8498 34.8329C27.8181 34.7208 27.8292 34.6005 27.8808 34.4964C27.9325 34.3922 28.0209 34.3118 28.1283 34.2713C28.2357 34.2309 28.3541 34.2333 28.4599 34.2782L32.0878 36.1273C32.1946 36.1828 32.2755 36.279 32.3129 36.3951C32.3503 36.5112 32.3411 36.6376 32.2873 36.7468C32.2496 36.823 32.192 36.8871 32.1207 36.932C32.0495 36.9769 31.9674 37.0008 31.8837 37.0011Z" fill="#151515"/>
<path d="M31.8837 34.2271C31.8125 34.228 31.7423 34.2105 31.6796 34.1763L28.0517 32.3271C27.9536 32.267 27.8815 32.1712 27.8498 32.059C27.8181 31.9468 27.8292 31.8266 27.8808 31.7224C27.9325 31.6183 28.0209 31.5379 28.1283 31.4974C28.2357 31.457 28.3541 31.4594 28.4599 31.5043L32.0878 33.3534C32.1946 33.4088 32.2755 33.5051 32.3129 33.6212C32.3503 33.7373 32.3411 33.8637 32.2873 33.9729C32.2496 34.0491 32.192 34.1132 32.1207 34.1581C32.0495 34.203 31.9674 34.2269 31.8837 34.2271Z" fill="#151515"/>
<path d="M31.8837 31.4536C31.8126 31.4545 31.7424 31.437 31.6796 31.4027L28.0517 29.5536C27.9942 29.5292 27.9422 29.4929 27.899 29.447C27.8558 29.4012 27.8223 29.3467 27.8007 29.2871C27.7791 29.2275 27.7698 29.1639 27.7733 29.1005C27.7769 29.037 27.7932 28.975 27.8214 28.9182C27.8495 28.8615 27.8888 28.8113 27.9369 28.7708C27.9849 28.7302 28.0406 28.7002 28.1005 28.6826C28.1605 28.665 28.2233 28.6602 28.2851 28.6685C28.347 28.6768 28.4064 28.698 28.4599 28.7307L32.0878 30.5799C32.1946 30.6353 32.2755 30.7316 32.3129 30.8476C32.3503 30.9637 32.3411 31.0902 32.2873 31.1993C32.2496 31.2756 32.192 31.3397 32.1207 31.3846C32.0495 31.4294 31.9675 31.4533 31.8837 31.4536Z" fill="#151515"/>
<path d="M31.8837 39.775C31.8125 39.7758 31.7423 39.7584 31.6796 39.7241L28.0517 37.875C27.9536 37.8148 27.8815 37.719 27.8498 37.6069C27.8181 37.4947 27.8292 37.3745 27.8808 37.2703C27.9325 37.1661 28.0209 37.0857 28.1283 37.0453C28.2357 37.0048 28.3541 37.0073 28.4599 37.0521L32.0878 38.9013C32.1946 38.9567 32.2755 39.053 32.3129 39.169C32.3503 39.2851 32.3411 39.4115 32.2873 39.5207C32.2496 39.597 32.192 39.6611 32.1207 39.7059C32.0495 39.7508 31.9674 39.7747 31.8837 39.775Z" fill="#151515"/>
<path d="M33.6976 24.9814H26.4418C26.1913 24.9814 25.9883 25.1884 25.9883 25.4437V28.2174C25.9883 28.4727 26.1913 28.6797 26.4418 28.6797H33.6976C33.948 28.6797 34.1511 28.4727 34.1511 28.2174V25.4437C34.1511 25.1884 33.948 24.9814 33.6976 24.9814Z" fill="#222222"/>
<path d="M26.8953 25.9062H33.2441V27.7554H26.8953V25.9062Z" fill="#F0C200"/>
<path d="M35.5117 21.2832H24.6279C24.3775 21.2832 24.1744 21.4902 24.1744 21.7455V25.4438C24.1744 25.6991 24.3775 25.906 24.6279 25.906H35.5117C35.7621 25.906 35.9651 25.6991 35.9651 25.4438V21.7455C35.9651 21.4902 35.7621 21.2832 35.5117 21.2832Z" fill="#222222"/>
<path d="M25.0814 22.208H35.0582V24.9817H25.0814V22.208Z" fill="#F0C200"/>
</g>
<defs>
<clipPath id="clip0_258_691">
<rect width="32" height="44" fill="white" transform="translate(23 7)"/>
</clipPath>
</defs>
</svg>
