<svg width="33" height="33" viewBox="0 0 33 33" fill="none" xmlns="http://www.w3.org/2000/svg">
<g clip-path="url(#clip0_327_527)">
<path d="M16.5 0C7.40135 0 0 7.40135 0 16.5C0 25.5987 7.40135 33 16.5 33C25.5987 33 33 25.5974 33 16.5C33 7.40263 25.5987 0 16.5 0ZM16.5 30.4439C8.81235 30.4439 2.55615 24.1889 2.55615 16.5C2.55615 8.81106 8.81235 2.55615 16.5 2.55615C24.1876 2.55615 30.4439 8.81106 30.4439 16.5C30.4439 24.1889 24.1889 30.4439 16.5 30.4439Z" fill="#FFAE1C"/>
<path d="M22.8904 15.1067H17.7782V9.99441C17.7782 9.28891 17.2068 8.71631 16.5 8.71631C15.7933 8.71631 15.2219 9.28891 15.2219 9.99441V15.1067H10.1096C9.40286 15.1067 8.83154 15.6793 8.83154 16.3848C8.83154 17.0903 9.40286 17.6629 10.1096 17.6629H15.2219V22.7752C15.2219 23.4807 15.7933 24.0533 16.5 24.0533C17.2068 24.0533 17.7782 23.4807 17.7782 22.7752V17.6629H22.8904C23.5972 17.6629 24.1686 17.0903 24.1686 16.3848C24.1686 15.6793 23.5972 15.1067 22.8904 15.1067Z" fill="#FFAE1C"/>
</g>
<defs>
<clipPath id="clip0_327_527">
<rect width="33" height="33" fill="white"/>
</clipPath>
</defs>
</svg>
