<svg width="33" height="33" viewBox="0 0 33 33" fill="none" xmlns="http://www.w3.org/2000/svg">
<g clip-path="url(#clip0_328_669)">
<path d="M16.5 0C7.40135 0 0 7.40135 0 16.5C0 25.5987 7.40135 33 16.5 33C25.5987 33 33 25.5974 33 16.5C33 7.40263 25.5987 0 16.5 0ZM16.5 30.4439C8.81235 30.4439 2.55615 24.1889 2.55615 16.5C2.55615 8.81106 8.81235 2.55615 16.5 2.55615C24.1876 2.55615 30.4439 8.81106 30.4439 16.5C30.4439 24.1889 24.1889 30.4439 16.5 30.4439Z" fill="#FFAE1C"/>
</g>
<path d="M10 16.5C10 15.6716 10.6716 15 11.5 15H22.5C23.3284 15 24 15.6716 24 16.5V16.5C24 17.3284 23.3284 18 22.5 18H11.5C10.6716 18 10 17.3284 10 16.5V16.5Z" fill="#FFAE1C"/>
<defs>
<clipPath id="clip0_328_669">
<rect width="33" height="33" fill="white"/>
</clipPath>
</defs>
</svg>
