<svg width="40" height="40" viewBox="0 0 40 40" fill="none" xmlns="http://www.w3.org/2000/svg">
<circle cx="20" cy="20" r="20" fill="white" fill-opacity="0.3"/>
<path d="M26.7892 28.1305C26.6123 28.1315 26.437 28.0976 26.2733 28.0308C26.1096 27.9639 25.9607 27.8653 25.8351 27.7408L19.1164 21.0221C18.8633 20.769 18.7212 20.4258 18.7212 20.068C18.7212 19.8908 18.7561 19.7154 18.8239 19.5517C18.8917 19.388 18.9911 19.2392 19.1164 19.1139C19.2417 18.9886 19.3904 18.8893 19.5541 18.8215C19.7178 18.7536 19.8933 18.7188 20.0704 18.7188C20.4283 18.7188 20.7715 18.8609 21.0245 19.1139L27.7432 25.8327C27.8692 25.9576 27.9692 26.1062 28.0374 26.27C28.1056 26.4337 28.1407 26.6094 28.1407 26.7867C28.1407 26.9641 28.1056 27.1398 28.0374 27.3035C27.9692 27.4673 27.8692 27.6159 27.7432 27.7408C27.6177 27.8653 27.4688 27.9639 27.3051 28.0308C27.1413 28.0976 26.966 28.1315 26.7892 28.1305Z" fill="white"/>
<path d="M13.3515 28.1305C13.1747 28.1315 12.9994 28.0976 12.8357 28.0308C12.6719 27.9639 12.523 27.8653 12.3975 27.7408C12.2715 27.6159 12.1716 27.4673 12.1033 27.3035C12.0351 27.1398 12 26.9641 12 26.7867C12 26.6094 12.0351 26.4337 12.1033 26.27C12.1716 26.1062 12.2715 25.9576 12.3975 25.8327L19.1162 19.1139C19.3693 18.8609 19.7124 18.7187 20.0703 18.7188C20.4281 18.7188 20.7713 18.8609 21.0244 19.1139C21.2774 19.367 21.4195 19.7102 21.4195 20.068C21.4195 20.4258 21.2774 20.769 21.0244 21.0221L14.3056 27.7408C14.18 27.8653 14.0311 27.9639 13.8674 28.0308C13.7037 28.0976 13.5284 28.1315 13.3515 28.1305Z" fill="white"/>
<path d="M20.0703 21.4117C19.8934 21.4128 19.7181 21.3789 19.5544 21.312C19.3907 21.2451 19.2418 21.1466 19.1162 21.0221C18.9903 20.8971 18.8903 20.7485 18.8221 20.5848C18.7539 20.421 18.7187 20.2454 18.7188 20.068C18.7187 19.8906 18.7539 19.715 18.8221 19.5512C18.8903 19.3875 18.9903 19.2389 19.1162 19.1139L25.835 12.3952C25.9603 12.2699 26.109 12.1705 26.2727 12.1027C26.4364 12.0349 26.6119 12 26.789 12C26.9662 12 27.1417 12.0349 27.3054 12.1027C27.4691 12.1705 27.6178 12.2699 27.7431 12.3952C27.8684 12.5205 27.9678 12.6692 28.0356 12.8329C28.1034 12.9966 28.1383 13.1721 28.1383 13.3492C28.1383 13.5264 28.1034 13.7019 28.0356 13.8656C27.9678 14.0293 27.8684 14.178 27.7431 14.3033L21.0244 21.0221C20.8988 21.1466 20.7499 21.2451 20.5862 21.312C20.4224 21.3789 20.2471 21.4128 20.0703 21.4117Z" fill="white"/>
<path d="M20.0704 21.4117C19.8936 21.4128 19.7183 21.3789 19.5546 21.312C19.3908 21.2451 19.2419 21.1466 19.1164 21.0221L12.3976 14.3033C12.1446 14.0503 12.0024 13.7071 12.0024 13.3492C12.0024 12.9914 12.1446 12.6482 12.3976 12.3952C12.6507 12.1422 12.9938 12 13.3517 12C13.7095 12 14.0527 12.1422 14.3058 12.3952L21.0245 19.1139C21.1504 19.2389 21.2504 19.3875 21.3186 19.5512C21.3869 19.715 21.422 19.8906 21.422 20.068C21.422 20.2454 21.3869 20.421 21.3186 20.5848C21.2504 20.7485 21.1504 20.8971 21.0245 21.0221C20.8989 21.1466 20.75 21.2451 20.5863 21.312C20.4226 21.3789 20.2473 21.4128 20.0704 21.4117Z" fill="white"/>
</svg>
