<svg width="28" height="28" viewBox="0 0 28 28" fill="none" xmlns="http://www.w3.org/2000/svg">
<g clip-path="url(#clip0_258_948)">
<path d="M23.5709 0H3.43743C2.52577 0 1.65144 0.362157 1.0068 1.0068C0.362157 1.65144 0 2.52577 0 3.43743V23.5709C0 24.4826 0.362157 25.3569 1.0068 26.0016C1.65144 26.6462 2.52577 27.0084 3.43743 27.0084H13.2998V15.7707H11.0523V11.2756H13.2812V9.24423C13.2812 7.4057 14.157 4.53336 18.0113 4.53336L21.4834 4.54729V8.3985H18.9619C18.5519 8.3985 17.9686 8.60266 17.9686 9.47834V11.2759H21.5407L21.1307 15.771H17.7948V27.0084H23.5709C24.0224 27.0084 24.4693 26.9195 24.8864 26.7467C25.3034 26.574 25.6824 26.3208 26.0016 26.0016C26.3208 25.6824 26.574 25.3034 26.7467 24.8864C26.9195 24.4693 27.0084 24.0224 27.0084 23.5709V3.43743C27.0084 2.98602 26.9195 2.53903 26.7467 2.12198C26.574 1.70493 26.3208 1.32599 26.0016 1.0068C25.6824 0.687605 25.3034 0.434406 24.8864 0.261659C24.4693 0.0889117 24.0224 0 23.5709 0Z" fill="white"/>
</g>
<defs>
<clipPath id="clip0_258_948">
<rect width="27.0084" height="27.0084" fill="white"/>
</clipPath>
</defs>
</svg>
