<svg width="30" height="31" viewBox="0 0 30 31" fill="none" xmlns="http://www.w3.org/2000/svg">
<g clip-path="url(#clip0_258_912)">
<path d="M10.9375 22.5146V28.3121C10.9375 28.7171 11.1975 29.0759 11.5825 29.2034C11.6787 29.2346 11.7775 29.2496 11.875 29.2496C12.1675 29.2496 12.45 29.1122 12.63 28.8671L16.0213 24.2522L10.9375 22.5146Z" fill="white"/>
<path d="M29.6061 0.673861C29.3186 0.470111 28.9411 0.442611 28.6286 0.606361L0.503562 15.2939C0.171061 15.4676 -0.0251885 15.8226 0.00231146 16.1964C0.0310615 16.5714 0.279812 16.8914 0.633562 17.0126L8.45231 19.6851L25.1036 5.44761L12.2186 20.9714L25.3223 25.4501C25.4198 25.4826 25.5223 25.5001 25.6248 25.5001C25.7948 25.5001 25.9636 25.4539 26.1123 25.3639C26.3498 25.2189 26.5111 24.9751 26.5523 24.7014L29.9898 1.57636C30.0411 1.22636 29.8936 0.878861 29.6061 0.673861Z" fill="white"/>
</g>
<defs>
<clipPath id="clip0_258_912">
<rect width="30" height="30" fill="white" transform="translate(0 0.5)"/>
</clipPath>
</defs>
</svg>
