<svg width="60" height="60" viewBox="0 0 60 60" fill="none" xmlns="http://www.w3.org/2000/svg">
<path fill-rule="evenodd" clip-rule="evenodd" d="M14.8454 4.18714C26.9773 0.951957 39.4247 2.83566 44.1648 4.18997L44.6 4.31431V46.5548L43.8404 46.3453C32.3778 43.1832 19.9273 45.03 15.1596 46.3453L14.4 46.5548V4.30592L14.8454 4.18714ZM15.6 5.23023V44.9905C20.8355 43.6974 32.4455 42.1768 43.4 44.9864V5.22402C38.5699 3.94142 26.9697 2.31948 15.6 5.23023Z" fill="black"/>
<path fill-rule="evenodd" clip-rule="evenodd" d="M39.1791 56.0672L36.7145 49.5822C36.1749 48.1625 34.8142 47.2239 33.2954 47.2239H25.9062C24.4272 47.2239 23.0937 48.1146 22.5273 49.4808L19.7966 56.0672H39.1791ZM37.8362 49.1559C37.1196 47.2704 35.3124 46.0239 33.2954 46.0239H25.9062C23.942 46.0239 22.1711 47.2068 21.4188 49.0212L18 57.2672H40.9189L37.8362 49.1559Z" fill="url(#paint0_linear_1_17)"/>
<path fill-rule="evenodd" clip-rule="evenodd" d="M19.5 49.2363L21.5 46.0781C21.0609 46.118 20.6384 46.1613 20.2343 46.2077C17.0427 46.5743 15 47.1367 15 47.7672C15 48.348 16.7328 48.8709 19.5 49.2363ZM16.997 47.7672C17.53 47.9046 18.2026 48.0362 19.0004 48.1561L19.5417 47.3014C18.5347 47.4368 17.6872 47.5916 17.0313 47.7585C17.0198 47.7614 17.0083 47.7643 16.997 47.7672ZM15.8267 47.327C15.8274 47.3269 15.8335 47.3314 15.843 47.3406C15.8308 47.3316 15.8261 47.327 15.8267 47.327Z" fill="black"/>
<path fill-rule="evenodd" clip-rule="evenodd" d="M39.5 49.4253L37.5 46.2671C37.9391 46.307 38.3616 46.3502 38.7657 46.3966C41.9573 46.7632 44 47.3256 44 47.9562C44 48.537 42.2672 49.0599 39.5 49.4253ZM42.003 47.9562C41.47 48.0936 40.7974 48.2252 39.9996 48.3451L39.4583 47.4904C40.4653 47.6257 41.3128 47.7806 41.9687 47.9474C41.9802 47.9504 41.9917 47.9533 42.003 47.9562ZM43.1733 47.5159C43.1726 47.5159 43.1665 47.5204 43.157 47.5295C43.1692 47.5206 43.1739 47.516 43.1733 47.5159Z" fill="black"/>
<defs>
<linearGradient id="paint0_linear_1_17" x1="29.4595" y1="46.0239" x2="29.4595" y2="57.2672" gradientUnits="userSpaceOnUse">
<stop stop-color="#222222"/>
<stop offset="1" stop-color="#222222" stop-opacity="0"/>
</linearGradient>
</defs>
</svg>
