<svg width="60" height="60" viewBox="0 0 60 60" fill="none" xmlns="http://www.w3.org/2000/svg">
<path fill-rule="evenodd" clip-rule="evenodd" d="M20.5941 43.454L12.3227 44.8045L12.1678 44.8298C12.071 44.8455 12 44.9291 12 45.0271V45.2741C12 45.3651 12.0614 45.4446 12.1495 45.4676L18.9091 47.2334L20.5941 43.454ZM16.44 45.3481L18.2276 45.8151L18.5925 44.9967L16.44 45.3481ZM38.6086 43.4871L46.8322 44.8298C46.929 44.8455 47 44.9291 47 45.0271V45.2741C47 45.3651 46.9386 45.4446 46.8505 45.4676L40.4375 47.1429C40.3484 47.1661 40.2554 47.1218 40.2174 47.0379L38.6086 43.4871ZM42.56 45.3481L40.6261 45.0324L40.9587 45.7664L42.56 45.3481ZM12.2403 45.2741L12.2248 45.1791L12.2403 45.2741ZM12.2248 45.1791L12.1678 44.8298L12.2248 45.1791Z" fill="black"/>
<path fill-rule="evenodd" clip-rule="evenodd" d="M46.8 7.37184L29.5 5.20934L12.2 7.37184V41.9532L29.3264 39.8124C29.4417 39.798 29.5583 39.798 29.6736 39.8124L46.8 41.9532V7.37184ZM11.1752 6.2906C11.0751 6.30311 11 6.38819 11 6.48906V43.0859C11 43.2062 11.1054 43.2993 11.2248 43.2844L29.4752 41.0031C29.4917 41.001 29.5083 41.001 29.5248 41.0031L47.7752 43.2844C47.8946 43.2993 48 43.2062 48 43.0859V6.48906C48 6.38819 47.9249 6.30311 47.8248 6.2906L29.5248 4.0031C29.5083 4.00104 29.4917 4.00104 29.4752 4.0031L11.1752 6.2906Z" fill="black"/>
<path fill-rule="evenodd" clip-rule="evenodd" d="M39.2969 53.8L36.7336 46.6269C36.2135 45.1715 34.8347 44.2 33.2892 44.2H25.9981C24.4907 44.2 23.1376 45.1248 22.5901 46.5292L19.7558 53.8H39.2969ZM37.8636 46.2231C37.1729 44.2902 35.3418 43 33.2892 43H25.9981C23.9961 43 22.1992 44.2281 21.4721 46.0934L18 55H41L37.8636 46.2231Z" fill="url(#paint0_linear_1_25)"/>
<defs>
<linearGradient id="paint0_linear_1_25" x1="29.5" y1="43" x2="29.5" y2="55" gradientUnits="userSpaceOnUse">
<stop stop-color="#222222"/>
<stop offset="1" stop-color="#222222" stop-opacity="0"/>
</linearGradient>
</defs>
</svg>
