<svg width="60" height="60" viewBox="0 0 60 60" fill="none" xmlns="http://www.w3.org/2000/svg">
<path fill-rule="evenodd" clip-rule="evenodd" d="M21.103 43.0655L20.7344 43.131L14 43.9999C13.397 44.0677 12.5 44.4294 12.5 44.9999C12.5 45.5735 13.4524 45.9195 14.057 45.9999L18.5023 46.732C18.8264 46.7751 19.1465 46.8416 19.4598 46.9307L19.5143 46.9462L21.103 43.0655ZM18.7178 45.5488L19.1394 44.5187L14.7136 45.0159L18.6815 45.5439C18.6936 45.5455 18.7057 45.5471 18.7178 45.5488ZM38.0881 43.0994L39.6158 46.7715C39.6447 46.841 39.7257 46.8779 39.8017 46.8563C39.8089 46.8542 39.8162 46.8527 39.8237 46.8517L44.9288 45.9999C45.5255 45.9176 46.5 45.5665 46.5 44.9999C46.5 44.4217 45.6112 44.0686 45 43.9999L38.2656 43.131L38.0881 43.0994ZM40.0594 44.5411L40.4785 45.5485L44.3161 45.0193L40.0594 44.5411Z" fill="black"/>
<path fill-rule="evenodd" clip-rule="evenodd" d="M46.8 39.9142V8.96085C46.8 8.05306 46.124 7.28734 45.2233 7.17475L29.7233 5.23725C29.575 5.21871 29.425 5.21871 29.2767 5.23725L13.7767 7.17475C12.876 7.28734 12.2 8.05306 12.2 8.96084V39.9142C12.2 40.9968 13.1489 41.8345 14.2233 41.7003L28.9791 39.8558C29.325 39.8125 29.675 39.8125 30.0209 39.8558L44.7767 41.7003C45.8511 41.8345 46.8 40.9968 46.8 39.9142ZM13.6279 5.98401C12.1266 6.17167 11 7.44787 11 8.96084V39.9142C11 41.7186 12.5815 43.1148 14.3721 42.891L29.1279 41.0465C29.375 41.0156 29.625 41.0156 29.8721 41.0465L44.6279 42.891C46.4185 43.1148 48 41.7186 48 39.9142V8.96085C48 7.44788 46.8734 6.17167 45.3721 5.98401L29.8721 4.04651C29.625 4.01562 29.375 4.01562 29.1279 4.04651L13.6279 5.98401Z" fill="black"/>
<path fill-rule="evenodd" clip-rule="evenodd" d="M39.2969 53.8L36.7336 46.6269C36.2135 45.1715 34.8347 44.2 33.2892 44.2H25.9981C24.4907 44.2 23.1376 45.1248 22.5901 46.5292L19.7558 53.8H39.2969ZM37.8636 46.2231C37.1729 44.2902 35.3418 43 33.2892 43H25.9981C23.9961 43 22.1992 44.2281 21.4721 46.0934L18 55H41L37.8636 46.2231Z" fill="url(#paint0_linear_1_33)"/>
<defs>
<linearGradient id="paint0_linear_1_33" x1="29.5" y1="43" x2="29.5" y2="55" gradientUnits="userSpaceOnUse">
<stop stop-color="#222222"/>
<stop offset="1" stop-color="#222222" stop-opacity="0"/>
</linearGradient>
</defs>
</svg>
