<svg width="60" height="60" viewBox="0 0 60 60" fill="none" xmlns="http://www.w3.org/2000/svg">
<path fill-rule="evenodd" clip-rule="evenodd" d="M14.8454 14.1871C26.9773 10.952 39.4247 12.8357 44.1648 14.19L44.6 14.3143V47.5548L43.8404 47.3453C32.3778 44.1832 19.9273 46.03 15.1596 47.3453L14.4 47.5548V14.3059L14.8454 14.1871ZM15.6 15.2302V45.9905C20.8355 44.6974 32.4455 43.1768 43.4 45.9864V15.224C38.5699 13.9414 26.9697 12.3195 15.6 15.2302Z" fill="black"/>
<path fill-rule="evenodd" clip-rule="evenodd" d="M39.1791 57.0672L36.7145 50.5822C36.1749 49.1625 34.8142 48.2239 33.2954 48.2239H25.9062C24.4272 48.2239 23.0937 49.1146 22.5273 50.4808L19.7966 57.0672H39.1791ZM37.8362 50.1559C37.1196 48.2704 35.3124 47.0239 33.2954 47.0239H25.9062C23.942 47.0239 22.1711 48.2068 21.4188 50.0212L18 58.2672H40.9189L37.8362 50.1559Z" fill="url(#paint0_linear_1_4)"/>
<path fill-rule="evenodd" clip-rule="evenodd" d="M19.5 50.2363L21.5 47.0781C21.0609 47.118 20.6384 47.1613 20.2343 47.2077C17.0427 47.5743 15 48.1367 15 48.7672C15 49.348 16.7328 49.8709 19.5 50.2363ZM16.997 48.7672C17.53 48.9046 18.2026 49.0362 19.0004 49.1561L19.5417 48.3014C18.5347 48.4368 17.6872 48.5916 17.0313 48.7585C17.0198 48.7614 17.0083 48.7643 16.997 48.7672ZM15.8267 48.327C15.8274 48.3269 15.8335 48.3314 15.843 48.3406C15.8308 48.3316 15.8261 48.327 15.8267 48.327Z" fill="black"/>
<path fill-rule="evenodd" clip-rule="evenodd" d="M39.5 50.4253L37.5 47.2671C37.9391 47.307 38.3616 47.3502 38.7657 47.3966C41.9573 47.7632 44 48.3256 44 48.9562C44 49.5369 42.2672 50.0599 39.5 50.4253ZM42.003 48.9562C41.47 49.0936 40.7974 49.2252 39.9996 49.3451L39.4583 48.4904C40.4653 48.6257 41.3128 48.7806 41.9687 48.9474C41.9802 48.9504 41.9917 48.9533 42.003 48.9562ZM43.1733 48.5159C43.1726 48.5159 43.1665 48.5204 43.157 48.5295C43.1692 48.5206 43.1739 48.516 43.1733 48.5159Z" fill="black"/>
<path fill-rule="evenodd" clip-rule="evenodd" d="M30 11.394C27.6919 11.394 24.3414 11.7027 23.0609 11.8299C22.9009 11.8457 22.7561 11.9677 22.671 12.1629L21.8693 14L21 13.2828L21.8016 11.4457C22.0541 10.8672 22.4935 10.4885 22.9879 10.4395C24.2653 10.3127 27.6503 10 30 10C32.3497 10 35.7347 10.3127 37.0121 10.4395C37.5065 10.4885 37.9459 10.8672 38.1984 11.4457L39 13.2828L38.1307 14L37.329 12.1629C37.2439 11.9677 37.0991 11.8457 36.9391 11.8299C35.6586 11.7027 32.3081 11.394 30 11.394Z" fill="black"/>
<path fill-rule="evenodd" clip-rule="evenodd" d="M31.2185 2V11H30.2185V2H31.2185Z" fill="black"/>
<path fill-rule="evenodd" clip-rule="evenodd" d="M29.2185 2V11H28.2185V2H29.2185Z" fill="black"/>
<defs>
<linearGradient id="paint0_linear_1_4" x1="29.4595" y1="47.0239" x2="29.4595" y2="58.2672" gradientUnits="userSpaceOnUse">
<stop stop-color="#222222"/>
<stop offset="1" stop-color="#222222" stop-opacity="0"/>
</linearGradient>
</defs>
</svg>
