<svg width="191" height="32" viewBox="0 0 191 32" fill="none" xmlns="http://www.w3.org/2000/svg">
<path d="M54.9281 30.981V23.4142L55.011 21.8125H54.9834C54.8453 22.1761 54.7164 22.4891 54.5967 22.7514L50.8064 30.981H50.5441L46.733 22.7928C46.618 22.5581 46.5029 22.2221 46.3878 21.7849H46.3464C46.3832 22.1623 46.4017 22.6479 46.4017 23.2416V30.981H45.6422V20.2867H46.3809L50.33 28.8408C50.3991 28.9973 50.5142 29.301 50.6753 29.7521H50.7167C50.8916 29.2274 51.0043 28.9144 51.055 28.8132L54.9627 20.2867H55.6669V30.981H54.9281Z" fill="#222222"/>
<path d="M65.3739 30.981L64.1519 27.6671H59.5262L58.3111 30.981H57.4688L61.5077 20.2867H62.2395L66.23 30.981H65.3739ZM61.8598 21.2463H61.8253C61.7424 21.5685 61.6619 21.8309 61.5836 22.0334L59.7955 26.9698H63.8965L62.0945 22.0472L61.8598 21.2463Z" fill="#222222"/>
<path d="M75.5781 30.981L69.254 22.3441C69.0745 22.0909 68.9272 21.8677 68.8121 21.6744H68.7845L68.8052 22.1991V30.981H68.0389V20.2867H68.6533L74.936 28.8477L75.3917 29.5312H75.4262C75.3986 29.186 75.3848 28.8753 75.3848 28.5991V20.2867H76.1511V30.981H75.5781Z" fill="#222222"/>
<path d="M86.2034 26.7074C86.2034 29.6808 84.9307 31.1674 82.3855 31.1674C79.9644 31.1674 78.7539 29.736 78.7539 26.8731V20.2867H79.5134V26.7696C79.5134 29.232 80.5191 30.4632 82.5304 30.4632C84.4728 30.4632 85.4439 29.2665 85.4439 26.8731V20.2867H86.2034V26.7074Z" fill="#222222"/>
<path d="M89.5864 20.9909V25.3197H93.5286V26.017H89.5864V30.981H88.82V20.2867H93.8392V20.9909H89.5864Z" fill="#222222"/>
<path d="M101.896 30.981L100.674 27.6671H96.0485L94.8334 30.981H93.9911L98.03 20.2867H98.7618L102.752 30.981H101.896ZM98.3821 21.2463H98.3476C98.2647 21.5685 98.1842 21.8309 98.1059 22.0334L96.3178 26.9698H100.419L98.6168 22.0472L98.3821 21.2463Z" fill="#222222"/>
<path d="M111.465 30.622C110.614 30.9856 109.709 31.1674 108.752 31.1674C107.781 31.1674 106.918 30.9442 106.163 30.4977C105.408 30.0513 104.824 29.423 104.409 28.6129C103.995 27.7983 103.788 26.8777 103.788 25.8513C103.788 24.7605 104.011 23.7755 104.458 22.8964C104.904 22.0127 105.532 21.3269 106.342 20.839C107.157 20.3511 108.078 20.1072 109.104 20.1072C109.933 20.1072 110.72 20.2407 111.465 20.5076V21.3154C110.706 20.9748 109.914 20.8045 109.09 20.8045C108.193 20.8045 107.401 21.0139 106.715 21.4328C106.029 21.847 105.5 22.4338 105.127 23.1933C104.759 23.9481 104.575 24.8088 104.575 25.7754C104.575 26.6959 104.75 27.5152 105.1 28.2332C105.454 28.9466 105.954 29.4967 106.598 29.8833C107.247 30.2699 107.986 30.4632 108.814 30.4632C109.799 30.4632 110.683 30.2699 111.465 29.8833V30.622Z" fill="#222222"/>
<path d="M116.754 20.9909V30.981H116.001V20.9909H112.915V20.2867H119.84V20.9909H116.754Z" fill="#222222"/>
<path d="M128.967 26.7074C128.967 29.6808 127.694 31.1674 125.149 31.1674C122.728 31.1674 121.518 29.736 121.518 26.8731V20.2867H122.277V26.7696C122.277 29.232 123.283 30.4632 125.294 30.4632C127.236 30.4632 128.208 29.2665 128.208 26.8731V20.2867H128.967V26.7074Z" fill="#222222"/>
<path d="M137.093 30.981L135.643 27.8535C135.376 27.2598 135.1 26.8409 134.815 26.597C134.529 26.353 134.145 26.2311 133.662 26.2311H132.35V30.981H131.584V20.2867H134.566C135.482 20.2867 136.216 20.5421 136.769 21.053C137.325 21.5593 137.604 22.2336 137.604 23.0759C137.604 23.8538 137.378 24.5004 136.927 25.0159C136.476 25.5314 135.864 25.8605 135.091 26.0032V26.0308C135.528 26.2103 135.949 26.7281 136.354 27.5842L137.963 30.981H137.093ZM132.35 20.9909V25.5337H134.186C134.983 25.5337 135.62 25.3197 136.099 24.8917C136.577 24.4636 136.817 23.8837 136.817 23.1519C136.817 22.4753 136.603 21.946 136.175 21.5639C135.747 21.1819 135.132 20.9909 134.331 20.9909H132.35Z" fill="#222222"/>
<path d="M140.103 30.981V20.2867H145.122V20.9909H140.87V25.2369H144.812V25.9342H140.87V30.2906H145.364V30.981H140.103Z" fill="#222222"/>
<path d="M117.476 11.2911V0.596741H120.466C121.354 0.596741 122.07 0.819971 122.613 1.26643C123.156 1.71289 123.427 2.30434 123.427 3.04077C123.427 3.63912 123.266 4.16382 122.944 4.61489C122.626 5.06595 122.175 5.39044 121.591 5.58836V5.61597C122.304 5.68501 122.877 5.95197 123.31 6.41684C123.747 6.88171 123.966 7.48466 123.966 8.2257C123.966 9.13242 123.639 9.87116 122.985 10.4419C122.337 11.008 121.515 11.2911 120.521 11.2911H117.476ZM118.65 1.68758V5.20173H119.948C120.657 5.20173 121.209 5.03373 121.605 4.69774C122.001 4.35714 122.198 3.88306 122.198 3.27551C122.198 2.21689 121.508 1.68758 120.127 1.68758H118.65ZM118.65 6.28566V10.2002H120.383C121.119 10.2002 121.694 10.0253 122.109 9.67554C122.528 9.32113 122.737 8.83325 122.737 8.21189C122.737 6.92774 121.858 6.28566 120.1 6.28566H118.65Z" fill="#222222"/>
<path d="M133.876 11.2911H132.468L130.673 8.28093C130.291 7.63655 129.943 7.2154 129.63 7.01749C129.318 6.81497 128.952 6.71371 128.533 6.71371H127.476V11.2911H126.303V0.596741H129.451C130.431 0.596741 131.212 0.849889 131.791 1.35618C132.371 1.85788 132.661 2.55288 132.661 3.4412C132.661 4.91866 131.872 5.87832 130.293 6.32018V6.3478C130.588 6.47667 130.829 6.64467 131.018 6.85179C131.212 7.05891 131.499 7.46855 131.881 8.08071L133.876 11.2911ZM127.476 1.68758V5.62288H129.223C129.872 5.62288 130.401 5.43417 130.811 5.05675C131.221 4.67472 131.426 4.16843 131.426 3.53786C131.426 2.95792 131.239 2.50455 130.866 2.17776C130.493 1.85097 129.95 1.68758 129.237 1.68758H127.476Z" fill="#222222"/>
<path d="M134.826 6.07164C134.826 4.35484 135.291 2.98323 136.22 1.95684C137.155 0.930436 138.416 0.417236 140.004 0.417236C141.477 0.417236 142.662 0.918929 143.559 1.92232C144.461 2.9257 144.912 4.21906 144.912 5.80238C144.912 7.50998 144.457 8.88158 143.545 9.91718C142.639 10.9528 141.398 11.4706 139.824 11.4706C138.319 11.4706 137.109 10.9666 136.193 9.95861C135.281 8.95062 134.826 7.65496 134.826 6.07164ZM136.061 5.96117C136.061 7.24532 136.402 8.30854 137.083 9.15084C137.764 9.98852 138.676 10.4074 139.817 10.4074C141.037 10.4074 141.985 10.0115 142.662 9.21988C143.343 8.42361 143.684 7.34428 143.684 5.98188C143.684 4.57346 143.354 3.47342 142.696 2.68176C142.043 1.8901 141.115 1.49427 139.914 1.49427C138.745 1.49427 137.81 1.91771 137.111 2.76461C136.411 3.6069 136.061 4.67242 136.061 5.96117Z" fill="#222222"/>
<path d="M153.428 1.67377H150.342V11.2911H149.162V1.67377H146.083V0.596741H153.428V1.67377Z" fill="#222222"/>
<path d="M163.222 11.2911H162.048V6.38232H156.442V11.2911H155.268V0.596741H156.442V5.3191H162.048V0.596741H163.222V11.2911Z" fill="#222222"/>
<path d="M171.814 11.2911H166.194V0.596741H171.572V1.67377H167.367V5.31219H171.254V6.38922H167.367V10.2141H171.814V11.2911Z" fill="#222222"/>
<path fill-rule="evenodd" clip-rule="evenodd" d="M117.059 11.7083V0.179505H120.466C121.424 0.179505 122.242 0.421559 122.878 0.944117C123.522 1.47406 123.845 2.18634 123.845 3.04076C123.845 3.71828 123.661 4.32894 123.284 4.85621C123.118 5.09286 122.92 5.29819 122.695 5.47282C123.042 5.62852 123.35 5.84742 123.615 6.13177C124.136 6.68631 124.383 7.39715 124.383 8.22569C124.383 9.2467 124.009 10.1022 123.26 10.7562C122.523 11.3987 121.599 11.7083 120.521 11.7083H117.059ZM123.31 6.41683C123.023 6.10803 122.673 5.88656 122.262 5.75242C122.057 5.68554 121.836 5.64037 121.601 5.61691C121.597 5.61659 121.594 5.61628 121.591 5.61596V5.58835C121.592 5.58804 121.593 5.58772 121.594 5.58741C121.818 5.51109 122.023 5.41601 122.209 5.30219C122.504 5.12073 122.749 4.89163 122.944 4.61488C123.266 4.16382 123.427 3.63911 123.427 3.04076C123.427 2.30433 123.156 1.71289 122.613 1.26643C122.07 0.819965 121.354 0.596734 120.466 0.596734H117.476V11.2911H120.521C121.515 11.2911 122.337 11.008 122.985 10.4419C123.639 9.87115 123.966 9.13242 123.966 8.22569C123.966 7.48466 123.747 6.8817 123.31 6.41683ZM118.65 5.20172V1.68757H120.127C121.508 1.68757 122.198 2.21688 122.198 3.2755C122.198 3.88305 122.001 4.35713 121.605 4.69773C121.209 5.03373 120.657 5.20172 119.948 5.20172H118.65ZM121.334 4.38055C121.621 4.13258 121.781 3.78291 121.781 3.2755C121.781 2.84459 121.646 2.58406 121.427 2.41567C121.186 2.23119 120.776 2.1048 120.127 2.1048H119.067V4.78449H119.948C120.593 4.78449 121.037 4.63197 121.334 4.38055ZM118.65 10.2002V6.28566H120.1C121.858 6.28566 122.737 6.92773 122.737 8.21188C122.737 8.83324 122.528 9.32113 122.109 9.67554C121.694 10.0253 121.119 10.2002 120.383 10.2002H118.65ZM121.839 9.35694C122.151 9.09287 122.32 8.72867 122.32 8.21188C122.32 7.67583 122.143 7.33187 121.832 7.10414C121.495 6.85859 120.94 6.70289 120.1 6.70289H119.067V9.78301H120.383C121.056 9.78301 121.524 9.62347 121.839 9.35694ZM134.627 11.7083H132.231L130.314 8.4937C129.938 7.85938 129.632 7.51221 129.407 7.37012L129.404 7.3678C129.166 7.21423 128.881 7.13094 128.533 7.13094H127.894V11.7083H125.886V0.179505H129.451C130.503 0.179505 131.39 0.452472 132.065 1.04125C132.751 1.63508 133.079 2.45335 133.079 3.4412C133.079 4.25754 132.859 4.96607 132.392 5.53408C132.082 5.91048 131.678 6.20816 131.192 6.43489C131.238 6.47771 131.282 6.52236 131.325 6.56887C131.549 6.80951 131.855 7.25072 132.235 7.85981L132.236 7.86046L134.627 11.7083ZM130.754 6.61258C130.621 6.51281 130.47 6.42584 130.302 6.35167C130.299 6.35037 130.296 6.34908 130.293 6.34779V6.32018C130.298 6.31889 130.302 6.3176 130.307 6.3163C130.484 6.26622 130.651 6.20957 130.809 6.14636C132.044 5.64974 132.661 4.74802 132.661 3.4412C132.661 2.55288 132.371 1.85787 131.791 1.35618C131.211 0.849882 130.431 0.596734 129.451 0.596734H126.303V11.2911H127.476V6.71371H128.533C128.952 6.71371 129.317 6.81497 129.63 7.01748C129.943 7.2154 130.291 7.63654 130.673 8.28092L132.468 11.2911H133.876L131.881 8.0807C131.499 7.46855 131.211 7.05891 131.018 6.85179C130.939 6.76522 130.851 6.68548 130.754 6.61258ZM127.476 5.62287V1.68757H129.237C129.95 1.68757 130.493 1.85097 130.866 2.17776C131.239 2.50455 131.426 2.95791 131.426 3.53785C131.426 4.16842 131.221 4.67472 130.811 5.05674C130.401 5.43416 129.872 5.62287 129.223 5.62287H127.476ZM127.894 2.1048V5.20564H129.223C129.785 5.20564 130.208 5.04505 130.527 4.75073C130.841 4.45804 131.008 4.06824 131.008 3.53785C131.008 3.0556 130.858 2.72537 130.591 2.49151C130.322 2.25552 129.893 2.1048 129.237 2.1048H127.894ZM135.911 1.67672L135.912 1.67596C136.937 0.549805 138.317 0 140.004 0C141.583 0 142.885 0.543272 143.87 1.6439C144.852 2.73681 145.33 4.13528 145.33 5.80237C145.33 7.58614 144.852 9.06375 143.859 10.1924C142.861 11.3317 141.499 11.8878 139.824 11.8878C138.215 11.8878 136.888 11.3439 135.884 10.2392L135.883 10.2384C134.891 9.14124 134.408 7.74019 134.408 6.07163C134.408 4.27719 134.896 2.7971 135.911 1.67672ZM143.545 9.91718C144.457 8.88157 144.912 7.50997 144.912 5.80237C144.912 4.21905 144.461 2.92569 143.559 1.92231C142.662 0.918923 141.477 0.41723 140.004 0.41723C138.416 0.41723 137.155 0.930429 136.22 1.95683C135.29 2.98323 134.826 4.35483 134.826 6.07163C134.826 7.65496 135.281 8.95061 136.193 9.9586C137.109 10.9666 138.319 11.4706 139.824 11.4706C141.398 11.4706 142.639 10.9528 143.545 9.91718ZM142.345 8.94864C142.944 8.24823 143.266 7.27523 143.266 5.98188C143.266 4.63515 142.952 3.6417 142.375 2.94849L142.374 2.94738C141.814 2.26855 141.014 1.91149 139.914 1.91149C138.86 1.91149 138.047 2.28622 137.433 3.03033L137.432 3.03119C136.805 3.78576 136.479 4.75172 136.479 5.96117C136.479 7.16799 136.797 8.13316 137.407 8.88793C138.004 9.62173 138.793 9.99013 139.817 9.99013C140.938 9.99013 141.761 9.63131 142.345 8.94864ZM153.846 2.09099H150.76V11.7083H148.744V2.09099H145.665V0.179505H153.846V2.09099ZM149.162 1.67376V11.2911H150.342V1.67376H153.428V0.596734H146.083V1.67376H149.162ZM163.639 11.7083H161.631V6.79954H156.859V11.7083H154.851V0.179505H156.859V4.90186H161.631V0.179505H163.639V11.7083ZM162.048 5.31909H156.442V0.596734H155.268V11.2911H156.442V6.38231H162.048V11.2911H163.222V0.596734H162.048V5.31909ZM172.231 11.7083H165.776V0.179505H171.989V2.09099H167.785V4.89496H171.672V6.80645H167.785V9.79682H172.231V11.7083ZM167.367 10.2141V6.38922H171.254V5.31219H167.367V1.67376H171.572V0.596734H166.194V11.2911H171.814V10.2141H167.367ZM137.083 9.15083C136.402 8.30854 136.061 7.24532 136.061 5.96117C136.061 4.67241 136.411 3.60689 137.111 2.7646C137.81 1.91771 138.745 1.49426 139.914 1.49426C141.115 1.49426 142.043 1.89009 142.696 2.68175C143.354 3.47341 143.683 4.57346 143.683 5.98188C143.683 7.34427 143.343 8.4236 142.662 9.21987C141.985 10.0115 141.037 10.4074 139.817 10.4074C138.676 10.4074 137.764 9.98852 137.083 9.15083Z" fill="#222222"/>
<path d="M182 11.2764H180.591L178.796 8.26622C178.414 7.62184 178.067 7.2007 177.754 7.00278C177.441 6.80026 177.075 6.699 176.656 6.699H175.6V11.2764H174.426V0.582031H177.574C178.555 0.582031 179.335 0.835179 179.915 1.34147C180.495 1.84317 180.785 2.53817 180.785 3.42649C180.785 4.90395 179.995 5.86361 178.417 6.30547V6.33309C178.711 6.46196 178.953 6.62996 179.142 6.83708C179.335 7.0442 179.623 7.45384 180.005 8.066L182 11.2764ZM175.6 1.67287V5.60817H177.347C177.996 5.60817 178.525 5.41946 178.934 5.04204C179.344 4.66001 179.549 4.15372 179.549 3.52315C179.549 2.94321 179.363 2.48985 178.99 2.16305C178.617 1.83626 178.074 1.67287 177.36 1.67287H175.6Z" fill="#222222"/>
<path fill-rule="evenodd" clip-rule="evenodd" d="M182.751 11.6936H180.355L178.438 8.47899C178.062 7.84467 177.756 7.4975 177.531 7.35541L177.528 7.35309C177.29 7.19952 177.005 7.11623 176.657 7.11623H176.018V11.6936H174.009V0.164795H177.575C178.627 0.164795 179.514 0.437762 180.189 1.02654C180.875 1.62037 181.202 2.43864 181.202 3.42649C181.202 4.24283 180.983 4.95136 180.515 5.51937C180.206 5.89577 179.802 6.19345 179.316 6.42018C179.362 6.46303 179.406 6.5077 179.449 6.55423C179.673 6.79489 179.979 7.23607 180.359 7.8451L180.359 7.84575L182.751 11.6936ZM179.142 6.83708C179.063 6.75051 178.975 6.67077 178.878 6.59787C178.744 6.4981 178.594 6.41113 178.426 6.33696C178.423 6.33566 178.42 6.33437 178.417 6.33308V6.30547C178.422 6.30418 178.426 6.30289 178.431 6.30159C178.608 6.25151 178.775 6.19486 178.933 6.13165C180.168 5.63503 180.785 4.73331 180.785 3.42649C180.785 2.53817 180.495 1.84316 179.915 1.34147C179.335 0.835173 178.555 0.582025 177.575 0.582025H174.427V11.2764H175.6V6.699H176.657C177.075 6.699 177.441 6.80026 177.754 7.00277C178.067 7.20069 178.415 7.62183 178.797 8.26621L180.592 11.2764H182L180.005 8.06599C179.623 7.45384 179.335 7.0442 179.142 6.83708ZM175.6 5.60816V1.67286H177.361C178.074 1.67286 178.617 1.83626 178.99 2.16305C179.363 2.48984 179.549 2.9432 179.549 3.52314C179.549 4.15371 179.345 4.66001 178.935 5.04203C178.525 5.41945 177.996 5.60816 177.347 5.60816H175.6ZM178.651 4.73604C178.965 4.44335 179.132 4.05355 179.132 3.52314C179.132 3.0409 178.982 2.71066 178.715 2.47681C178.446 2.24081 178.017 2.09009 177.361 2.09009H176.018V5.19093H177.347C177.909 5.19093 178.331 5.03035 178.651 4.73604Z" fill="#222222"/>
<path d="M184.162 9.6056C184.461 9.87716 184.892 10.105 185.453 10.2891C186.019 10.4686 186.542 10.5584 187.02 10.5584C188.576 10.5584 189.354 9.99222 189.354 8.85996C189.354 8.54238 189.273 8.25931 189.112 8.01077C188.951 7.76222 188.732 7.5482 188.456 7.36869C188.185 7.18459 187.646 6.88541 186.841 6.47117C185.681 5.87742 184.947 5.35962 184.638 4.91776C184.33 4.4759 184.176 3.97651 184.176 3.41959C184.176 2.55889 184.526 1.87078 185.225 1.35528C185.925 0.839782 186.804 0.582031 187.863 0.582031C188.93 0.582031 189.688 0.708605 190.134 0.961753V2.32185C189.508 1.88919 188.7 1.67287 187.711 1.67287C187.034 1.67287 186.482 1.81785 186.054 2.10782C185.626 2.39319 185.412 2.79592 185.412 3.31603C185.412 3.63822 185.485 3.91898 185.633 4.15832C185.784 4.39306 185.989 4.59788 186.247 4.77278C186.505 4.94768 187.006 5.22154 187.752 5.59436C188.801 6.11446 189.536 6.62306 189.954 7.12015C190.373 7.61264 190.583 8.16496 190.583 8.77712C190.583 9.68845 190.251 10.3927 189.589 10.8897C188.926 11.3868 187.998 11.6354 186.806 11.6354C186.443 11.6354 185.969 11.5755 185.384 11.4559C184.804 11.3362 184.397 11.1912 184.162 11.0209V9.6056Z" fill="#222222"/>
<path fill-rule="evenodd" clip-rule="evenodd" d="M183.745 8.6634L184.443 9.29665C184.683 9.51466 185.053 9.71854 185.581 9.892C186.115 10.0611 186.594 10.1411 187.02 10.1411C187.76 10.1411 188.239 10.0043 188.525 9.79641C188.786 9.60643 188.937 9.3195 188.937 8.85996C188.937 8.61682 188.876 8.41372 188.762 8.23769C188.636 8.04351 188.462 7.86971 188.229 7.71851L188.226 7.7163L188.222 7.71403C187.975 7.54616 187.458 7.25774 186.65 6.84238C186.06 6.54023 185.568 6.25242 185.18 5.97845C184.796 5.7077 184.491 5.43493 184.296 5.15654C183.937 4.64219 183.759 4.05886 183.759 3.41958C183.759 2.4248 184.173 1.61262 184.978 1.01938C185.764 0.440377 186.735 0.164795 187.863 0.164795C188.94 0.164795 189.793 0.288502 190.34 0.598801L190.551 0.718687V3.11741L189.897 2.66507C189.359 2.29321 188.641 2.09009 187.711 2.09009C187.092 2.09009 186.628 2.22255 186.288 2.45325L186.285 2.45498C185.975 2.66195 185.829 2.93357 185.829 3.31602C185.829 3.57051 185.886 3.77203 185.986 3.93572C186.104 4.11688 186.266 4.2815 186.481 4.42752C186.713 4.58472 187.191 4.84719 187.938 5.22086C189.003 5.74891 189.799 6.2879 190.273 6.85056C190.752 7.41373 191 8.06035 191 8.77711C191 9.80461 190.618 10.639 189.839 11.2235C189.078 11.794 188.05 12.0526 186.806 12.0526C186.403 12.0526 185.897 11.9868 185.3 11.8646L185.3 11.8645C184.71 11.7428 184.228 11.5841 183.917 11.3586L183.745 11.2337V8.6634ZM189.955 7.12014C189.536 6.62305 188.802 6.11445 187.752 5.59435C187.007 5.22153 186.505 4.94767 186.247 4.77277C185.989 4.59787 185.785 4.39305 185.633 4.15831C185.485 3.91897 185.412 3.63821 185.412 3.31602C185.412 2.79592 185.626 2.39318 186.054 2.10782C186.482 1.81785 187.034 1.67286 187.711 1.67286C188.493 1.67286 189.162 1.80806 189.717 2.07846C189.864 2.1501 190.003 2.23123 190.134 2.32184V0.961746C189.688 0.708598 188.93 0.582025 187.863 0.582025C186.804 0.582025 185.925 0.839775 185.225 1.35528C184.526 1.87078 184.176 2.55888 184.176 3.41958C184.176 3.97651 184.33 4.4759 184.638 4.91776C184.947 5.35961 185.681 5.87742 186.841 6.47116C187.646 6.88541 188.185 7.18458 188.456 7.36869C188.733 7.54819 188.951 7.76222 189.112 8.01076C189.273 8.25931 189.354 8.54237 189.354 8.85996C189.354 9.99222 188.576 10.5583 187.02 10.5583C186.542 10.5583 186.019 10.4686 185.453 10.2891C185.114 10.1779 184.823 10.0508 184.579 9.90769C184.42 9.81385 184.281 9.71315 184.162 9.60559V11.0209C184.397 11.1912 184.804 11.3362 185.384 11.4559C185.969 11.5755 186.443 11.6354 186.806 11.6354C187.998 11.6354 188.926 11.3868 189.589 10.8897C190.251 10.3927 190.583 9.68844 190.583 8.77711C190.583 8.16495 190.373 7.61263 189.955 7.12014Z" fill="#222222"/>
<path d="M8.51591 0.824574L2.19872 10.2141H8.35712V11.2911H0.41748V11.008L6.66563 1.67377H0.914571V0.596741H8.51591V0.824574Z" fill="#222222"/>
<path d="M18.3506 11.2911H17.1769V6.38232H11.5708V11.2911H10.3971V0.596741H11.5708V5.3191H17.1769V0.596741H18.3506V11.2911Z" fill="#222222"/>
<path d="M20.6184 6.07164C20.6184 4.35484 21.0833 2.98323 22.013 1.95684C22.9474 0.930436 24.2085 0.417236 25.7964 0.417236C27.2693 0.417236 28.4545 0.918929 29.352 1.92232C30.2541 2.9257 30.7052 4.21906 30.7052 5.80238C30.7052 7.50998 30.2495 8.88158 29.3382 9.91718C28.4315 10.9528 27.191 11.4706 25.6169 11.4706C24.1118 11.4706 22.9013 10.9666 21.9854 9.95861C21.0741 8.95062 20.6184 7.65496 20.6184 6.07164ZM21.8542 5.96117C21.8542 7.24532 22.1948 8.30854 22.876 9.15084C23.5572 9.98852 24.4685 10.4074 25.61 10.4074C26.8297 10.4074 27.7779 10.0115 28.4545 9.21988C29.1357 8.42361 29.4763 7.34428 29.4763 5.98188C29.4763 4.57346 29.1472 3.47342 28.489 2.68176C27.8354 1.8901 26.908 1.49427 25.7067 1.49427C24.5376 1.49427 23.6032 1.91771 22.9036 2.76461C22.204 3.6069 21.8542 4.67242 21.8542 5.96117Z" fill="#222222"/>
<path d="M38.4755 11.2911H32.9799V0.596741H34.1536V10.2141H38.4755V11.2911Z" fill="#222222"/>
<path d="M51.9312 11.2911V0.596741H54.9207C55.809 0.596741 56.5247 0.819971 57.0678 1.26643C57.6109 1.71289 57.8825 2.30434 57.8825 3.04077C57.8825 3.63912 57.7214 4.16382 57.3992 4.61489C57.0816 5.06595 56.6306 5.39044 56.046 5.58836V5.61597C56.7594 5.68501 57.3325 5.95197 57.7651 6.41684C58.2024 6.88171 58.421 7.48466 58.421 8.22569C58.421 9.13242 58.0942 9.87115 57.4406 10.4419C56.7917 11.008 55.9701 11.2911 54.9759 11.2911H51.9312ZM53.1049 1.68758V5.20173H54.4029C55.1117 5.20173 55.664 5.03373 56.0598 4.69774C56.4557 4.35714 56.6536 3.88306 56.6536 3.2755C56.6536 2.21689 55.9632 1.68758 54.5824 1.68758H53.1049ZM53.1049 6.28566V10.2002H54.8378C55.5742 10.2002 56.1496 10.0253 56.5638 9.67554C56.9827 9.32113 57.1921 8.83325 57.1921 8.21189C57.1921 6.92774 56.313 6.28566 54.5547 6.28566H53.1049Z" fill="#222222"/>
<path d="M80.2996 0.596741L76.3229 11.2911H75.0318L71.1379 0.596741H72.4497L75.4599 9.14393C75.5519 9.40628 75.6233 9.71927 75.6739 10.0829H75.7084C75.7406 9.79291 75.8212 9.47532 75.9501 9.13012L79.0293 0.596741H80.2996Z" fill="#222222"/>
<path d="M88.8777 0.596741L85.3498 7.33508V11.2911H84.1692V7.35579L80.8984 1.03332V0.590502L82.0703 0.596741L84.5006 5.4848C84.5374 5.55844 84.6248 5.77246 84.7629 6.12687H84.7836C84.8343 5.96578 84.9309 5.75175 85.0736 5.4848L87.6281 0.596741H88.8777Z" fill="#222222"/>
<path d="M97.7872 10.8354C97.0002 11.2589 96.0175 11.4706 94.8392 11.4706C93.3387 11.4706 92.1282 10.9758 91.2077 9.98622C90.2918 8.99664 89.8338 7.7171 89.8338 6.14758C89.8338 4.49982 90.3378 3.13282 91.3458 2.04659C92.3538 0.960353 93.6632 0.417236 95.2742 0.417236C96.2868 0.417236 97.1244 0.564522 97.7872 0.859094V2.12944C97.0186 1.70599 96.1717 1.49427 95.2465 1.49427C93.9762 1.49427 92.9613 1.92232 92.2019 2.77841C91.447 3.63451 91.0696 4.73456 91.0696 6.07854C91.0696 7.35349 91.424 8.39369 92.1328 9.19916C92.8416 10.0046 93.7921 10.4074 94.9842 10.4074C96.0612 10.4074 96.9956 10.168 97.7872 9.68935V10.8354Z" fill="#222222"/>
<path d="M108.078 11.2911H106.904V6.38232H101.298V11.2911H100.124V0.596741H101.298V5.3191H106.904V0.596741H108.078V11.2911Z" fill="#222222"/>
<path fill-rule="evenodd" clip-rule="evenodd" d="M80.308 0.179505H78.736L75.7041 8.58194L72.7449 0.179505H70.5418L74.7395 11.7083H76.6126L80.308 1.77069V0.179505ZM80.8984 1.85801L83.7517 7.45599V11.7083H85.7667V7.43769L89.5669 0.179505H87.3751L84.789 5.12816L82.3286 0.179505H80.8984V0.596734H82.0701L84.5003 5.48479C84.5119 5.50787 84.5284 5.54474 84.5499 5.59539C84.5964 5.70524 84.6664 5.87992 84.7598 6.11945L84.7627 6.12686H84.7834L84.7863 6.11765C84.8292 5.98416 84.9029 5.81522 85.0074 5.61082C85.0282 5.57021 85.0502 5.5282 85.0734 5.48479L87.6279 0.596734H88.8775L85.3495 7.33507V11.2911H84.1689V7.35578L80.8984 0.939224V1.85801ZM2.98205 9.79682L8.93289 0.951858V0.179505H0.49709V2.09099H5.88402L0 10.8813V11.7083H8.7741V9.79682H2.98205ZM0.41723 11.008L6.66538 1.67376H0.91432V0.596734H8.51566V0.824567L2.19847 10.214H8.35687V11.2911H0.41723V11.008ZM16.7594 11.7083H18.7675V0.179505H16.7594V4.90186H11.9878V0.179505H9.97964V11.7083H11.9878V6.79954H16.7594V11.7083ZM11.5706 5.31909H17.1766V0.596734H18.3503V11.2911H17.1766V6.38231H11.5706V11.2911H10.3969V0.596734H11.5706V5.31909ZM21.7042 1.67596L21.7035 1.67672C20.6887 2.7971 20.2009 4.27719 20.2009 6.07163C20.2009 7.74019 20.6837 9.14124 21.6757 10.2384L21.6764 10.2392C22.6802 11.3439 24.0078 11.8878 25.6167 11.8878C27.2917 11.8878 28.6538 11.3317 29.6515 10.1924C30.6445 9.06375 31.1222 7.58614 31.1222 5.80237C31.1222 4.13528 30.6449 2.73681 29.6625 1.6439C28.6779 0.543272 27.3751 0 25.7962 0C24.1095 0 22.7294 0.549805 21.7042 1.67596ZM30.7049 5.80237C30.7049 7.50997 30.2493 8.88157 29.3379 9.91718C28.4312 10.9528 27.1908 11.4706 25.6167 11.4706C24.1116 11.4706 22.9011 10.9666 21.9851 9.9586C21.0738 8.95061 20.6182 7.65496 20.6182 6.07163C20.6182 4.35483 21.083 2.98323 22.0128 1.95683C22.9471 0.930429 24.2082 0.41723 25.7962 0.41723C27.269 0.41723 28.4542 0.918923 29.3517 1.92231C30.2539 2.92569 30.7049 4.21905 30.7049 5.80237ZM29.0588 5.98188C29.0588 7.27523 28.7364 8.24823 28.1372 8.94864C27.5537 9.63131 26.7306 9.99013 25.6098 9.99013C24.5858 9.99013 23.7966 9.62173 23.1998 8.88793C22.5895 8.13316 22.2712 7.16799 22.2712 5.96117C22.2712 4.75172 22.5976 3.78576 23.2243 3.03119L23.2251 3.03033C23.8397 2.28622 24.6526 1.91149 25.7064 1.91149C26.8068 1.91149 27.6066 2.26855 28.167 2.94738L28.1679 2.94849C28.7442 3.6417 29.0588 4.63515 29.0588 5.98188ZM32.5625 11.7083H38.8925V9.79682H34.5706V0.179505H32.5625V11.7083ZM34.1534 0.596734V10.214H38.4753V11.2911H32.9797V0.596734H34.1534ZM51.5137 0.179505V11.7083H54.9757C56.0541 11.7083 56.9783 11.3987 57.7148 10.7562C58.4637 10.1022 58.838 9.2467 58.838 8.22569C58.838 7.39715 58.5907 6.68631 58.0695 6.13177C57.8047 5.84742 57.4966 5.62852 57.1498 5.47282C57.3753 5.29823 57.5724 5.09295 57.7392 4.85636C58.1155 4.32906 58.2995 3.71834 58.2995 3.04076C58.2995 2.18634 57.9772 1.47406 57.3325 0.944117C56.6968 0.421559 55.8793 0.179505 54.9204 0.179505H51.5137ZM56.7168 5.75242C57.1281 5.88656 57.4775 6.10803 57.7649 6.41683C58.2021 6.8817 58.4208 7.48466 58.4208 8.22569C58.4208 9.13242 58.094 9.87115 57.4404 10.4419C56.7914 11.008 55.9698 11.2911 54.9757 11.2911H51.931V0.596734H54.9204C55.8087 0.596734 56.5245 0.819965 57.0676 1.26643C57.6107 1.71289 57.8822 2.30433 57.8822 3.04076C57.8822 3.63911 57.7211 4.16382 57.399 4.61488C57.2041 4.89163 56.959 5.12073 56.6637 5.30219C56.4784 5.41601 56.2733 5.51109 56.0485 5.58741L56.0458 5.58835V5.61597L56.0554 5.61691C56.2913 5.64037 56.5118 5.68554 56.7168 5.75242ZM53.1047 1.68757V5.20172H54.4026C55.1114 5.20172 55.6637 5.03373 56.0596 4.69773C56.4554 4.35713 56.6533 3.88305 56.6533 3.2755C56.6533 2.21688 55.9629 1.68757 54.5821 1.68757H53.1047ZM56.2361 3.2755C56.2361 3.78296 56.0761 4.13264 55.7884 4.38062C55.4916 4.63199 55.0478 4.78449 54.4026 4.78449H53.5219V2.1048H54.5821C55.2309 2.1048 55.641 2.23119 55.8817 2.41567C56.1013 2.58406 56.2361 2.84459 56.2361 3.2755ZM53.1047 6.28566V10.2002H54.8376C55.574 10.2002 56.1493 10.0253 56.5636 9.67554C56.9824 9.32113 57.1918 8.83324 57.1918 8.21188C57.1918 6.92773 56.3127 6.28566 54.5545 6.28566H53.1047ZM56.7746 8.21188C56.7746 8.72855 56.6063 9.0927 56.2944 9.35676C55.9786 9.62339 55.5108 9.78301 54.8376 9.78301H53.5219V6.70289H54.5545C55.3952 6.70289 55.9502 6.85859 56.2864 7.10414C56.5982 7.33187 56.7746 7.67583 56.7746 8.21188ZM79.029 0.596734H80.2994L76.3226 11.2911H75.0316L71.1377 0.596734H72.4495L75.4596 9.14392C75.4629 9.15312 75.4661 9.16238 75.4692 9.1717C75.4732 9.18326 75.4771 9.19491 75.4809 9.20667C75.5624 9.45478 75.6265 9.74555 75.6731 10.079L75.6737 10.0829H75.7082L75.7087 10.078C75.7387 9.81278 75.8089 9.52452 75.9195 9.2132C75.9293 9.18569 75.9394 9.15799 75.9498 9.13012L79.029 0.596734ZM97.9847 11.2028L98.2042 11.0847V8.94949L97.5711 9.33231C96.8546 9.76553 95.9976 9.99013 94.984 9.99013C93.8969 9.99013 93.0661 9.62837 92.4458 8.92352C91.8162 8.20809 91.4866 7.27213 91.4866 6.07854C91.4866 4.81729 91.8384 3.82136 92.5143 3.0547C93.1852 2.29867 94.0809 1.91149 95.2463 1.91149C96.105 1.91149 96.882 2.10725 97.5857 2.49487L98.2042 2.83563V0.587941L97.9564 0.477818C97.2236 0.152108 96.3233 0 95.2739 0C93.5582 0 92.134 0.583534 91.0397 1.76278C89.9519 2.93504 89.4163 4.40731 89.4163 6.14758C89.4163 7.80377 89.9023 9.19042 90.9012 10.2696L90.902 10.2704C91.9106 11.3547 93.2368 11.8878 94.839 11.8878C96.0651 11.8878 97.1206 11.6677 97.9847 11.2028ZM95.2463 1.49426C93.976 1.49426 92.9611 1.92231 92.2016 2.77841C91.4468 3.63451 91.0694 4.73455 91.0694 6.07854C91.0694 7.35348 91.4238 8.39369 92.1326 9.19916C92.8414 10.0046 93.7919 10.4074 94.984 10.4074C95.8774 10.4074 96.6727 10.2427 97.3698 9.91324C97.513 9.84556 97.6521 9.77093 97.787 9.68934V10.8354C96.9999 11.2589 96.0173 11.4706 94.839 11.4706C93.3385 11.4706 92.128 10.9758 91.2074 9.98622C90.2915 8.99664 89.8335 7.71709 89.8335 6.14758C89.8335 4.49981 90.3375 3.13282 91.3455 2.04658C92.3535 0.960347 93.663 0.41723 95.2739 0.41723C96.2865 0.41723 97.1242 0.564516 97.787 0.859088V2.12943C97.6504 2.05417 97.5113 1.98561 97.3698 1.92373C96.7148 1.63741 96.007 1.49426 95.2463 1.49426ZM106.486 11.7083H108.495V0.179505H106.486V4.90186H101.715V0.179505H99.7066V11.7083H101.715V6.79954H106.486V11.7083ZM101.298 5.31909H106.904V0.596734H108.077V11.2911H106.904V6.38231H101.298V11.2911H100.124V0.596734H101.298V5.31909ZM21.854 5.96117C21.854 7.24532 22.1946 8.30854 22.8758 9.15083C23.557 9.98852 24.4683 10.4074 25.6098 10.4074C26.8295 10.4074 27.7776 10.0115 28.4542 9.21987C29.1354 8.4236 29.476 7.34427 29.476 5.98188C29.476 4.57346 29.1469 3.47341 28.4887 2.68175C27.8352 1.89009 26.9077 1.49426 25.7064 1.49426C24.5373 1.49426 23.603 1.91771 22.9034 2.7646C22.2038 3.60689 21.854 4.67241 21.854 5.96117Z" fill="#222222"/>
<path d="M39.4349 6.14366C39.4349 4.42686 39.8998 3.05526 40.8296 2.02886C41.7639 1.00246 43.025 0.489258 44.613 0.489258C46.0858 0.489258 47.271 0.990951 48.1685 1.99434C49.0707 2.99772 49.5217 4.29108 49.5217 5.8744C49.5217 7.582 49.0661 8.9536 48.1547 9.9892C47.248 11.0248 46.0076 11.5426 44.4335 11.5426C42.9284 11.5426 41.7179 11.0386 40.8019 10.0306C39.8906 9.02264 39.4349 7.72698 39.4349 6.14366ZM40.6708 6.03319C40.6708 7.31734 41.0114 8.38056 41.6926 9.22286C42.3738 10.0605 43.2851 10.4794 44.4266 10.4794C45.6463 10.4794 46.5944 10.0836 47.271 9.2919C47.9522 8.49563 48.2928 7.4163 48.2928 6.05391C48.2928 4.64548 47.9637 3.54544 47.3055 2.75378C46.6519 1.96212 45.7245 1.56629 44.5232 1.56629C43.3541 1.56629 42.4198 1.98973 41.7202 2.83663C41.0206 3.67892 40.6708 4.74444 40.6708 6.03319Z" fill="#222222"/>
<path fill-rule="evenodd" clip-rule="evenodd" d="M40.5891 1.81105L40.5896 1.81045C41.5946 0.706466 42.9482 0.164795 44.613 0.164795C46.1683 0.164795 47.4449 0.69877 48.4101 1.77767C49.3748 2.85071 49.8463 4.22588 49.8463 5.87445C49.8463 7.64129 49.3735 9.09534 48.3987 10.2033C47.4211 11.3196 46.0861 11.8672 44.4335 11.8672C42.8477 11.8672 41.5461 11.3321 40.5618 10.2489L40.5613 10.2483C39.5872 9.17095 39.1105 7.79332 39.1105 6.14371C39.1105 4.36652 39.5931 2.91054 40.5891 1.81105ZM48.1548 9.98925C49.0661 8.95365 49.5218 7.58205 49.5218 5.87445C49.5218 4.29113 49.0707 2.99777 48.1686 1.99439C47.2711 0.991 46.0859 0.489307 44.613 0.489307C43.0251 0.489307 41.7639 1.00251 40.8296 2.02891C39.8999 3.05531 39.435 4.42691 39.435 6.14371C39.435 7.72703 39.8907 9.02269 40.802 10.0307C41.7179 11.0387 42.9284 11.5427 44.4335 11.5427C46.0076 11.5427 47.248 11.0249 48.1548 9.98925ZM47.0244 9.08111L47.0245 9.08099C47.6419 8.35928 47.9683 7.36265 47.9683 6.05396C47.9683 4.69352 47.6506 3.67638 47.056 2.96129L47.0553 2.96043C46.4742 2.25652 45.6461 1.89085 44.5233 1.89085C43.4438 1.89085 42.604 2.27641 41.9704 3.04335L41.9699 3.04402C41.3269 3.81809 40.9953 4.80618 40.9953 6.03324C40.9953 7.25731 41.3186 8.2443 41.9447 9.01854C42.5603 9.77535 43.3766 10.1549 44.4266 10.1549C45.5694 10.1549 46.4202 9.788 47.0244 9.08111ZM41.6926 9.22291C41.0114 8.38061 40.6708 7.31739 40.6708 6.03324C40.6708 4.74449 41.0206 3.67897 41.7202 2.83668C42.4198 1.98978 43.3542 1.56634 44.5233 1.56634C45.7246 1.56634 46.652 1.96217 47.3056 2.75383C47.9638 3.54549 48.2929 4.64553 48.2929 6.05396C48.2929 7.41635 47.9523 8.49568 47.2711 9.29195C46.5945 10.0836 45.6463 10.4794 44.4266 10.4794C43.2851 10.4794 42.3738 10.0606 41.6926 9.22291Z" fill="#222222"/>
<path d="M60.2965 6.14366C60.2965 4.42686 60.7614 3.05526 61.6911 2.02886C62.6255 1.00246 63.8866 0.489258 65.4745 0.489258C66.9474 0.489258 68.1326 0.990951 69.0301 1.99434C69.9322 2.99772 70.3833 4.29108 70.3833 5.8744C70.3833 7.582 69.9276 8.9536 69.0163 9.9892C68.1096 11.0248 66.8691 11.5426 65.295 11.5426C63.7899 11.5426 62.5794 11.0386 61.6635 10.0306C60.7522 9.02264 60.2965 7.72698 60.2965 6.14366ZM61.5323 6.03319C61.5323 7.31734 61.8729 8.38056 62.5541 9.22286C63.2353 10.0605 64.1467 10.4794 65.2881 10.4794C66.5078 10.4794 67.456 10.0836 68.1326 9.2919C68.8138 8.49563 69.1544 7.4163 69.1544 6.05391C69.1544 4.64548 68.8253 3.54544 68.1671 2.75378C67.5135 1.96212 66.5861 1.56629 65.3848 1.56629C64.2157 1.56629 63.2814 1.98973 62.5817 2.83663C61.8821 3.67892 61.5323 4.74444 61.5323 6.03319Z" fill="#222222"/>
<path fill-rule="evenodd" clip-rule="evenodd" d="M61.4505 1.81105L61.4511 1.81045C62.4561 0.706466 63.8097 0.164795 65.4745 0.164795C67.0297 0.164795 68.3063 0.69877 69.2716 1.77767C70.2362 2.85071 70.7077 4.22588 70.7077 5.87445C70.7077 7.64129 70.235 9.09534 69.2601 10.2033C68.2826 11.3196 66.9476 11.8672 65.295 11.8672C63.7091 11.8672 62.4076 11.3321 61.4233 10.2489L61.4227 10.2483C60.4487 9.17095 59.9719 7.79332 59.9719 6.14371C59.9719 4.36652 60.4546 2.91054 61.4505 1.81105ZM69.0162 9.98925C69.9276 8.95365 70.3832 7.58205 70.3832 5.87445C70.3832 4.29113 69.9322 2.99777 69.03 1.99439C68.1325 0.991 66.9473 0.489307 65.4745 0.489307C63.8865 0.489307 62.6254 1.00251 61.6911 2.02891C60.7613 3.05531 60.2964 4.42691 60.2964 6.14371C60.2964 7.72703 60.7521 9.02269 61.6634 10.0307C62.5794 11.0387 63.7899 11.5427 65.295 11.5427C66.8691 11.5427 68.1095 11.0249 69.0162 9.98925ZM67.8858 9.08111L67.8859 9.08099C68.5033 8.35928 68.8298 7.36265 68.8298 6.05396C68.8298 4.69352 68.512 3.67638 67.9175 2.96129L67.9168 2.96043C67.3357 2.25652 66.5075 1.89085 65.3847 1.89085C64.3053 1.89085 63.4654 2.27641 62.8319 3.04335L62.8313 3.04402C62.1884 3.81809 61.8568 4.80618 61.8568 6.03324C61.8568 7.25731 62.1801 8.2443 62.8061 9.01854C63.4217 9.77535 64.238 10.1549 65.2881 10.1549C66.4308 10.1549 67.2817 9.788 67.8858 9.08111ZM62.5541 9.22291C61.8729 8.38061 61.5323 7.31739 61.5323 6.03324C61.5323 4.74449 61.8821 3.67897 62.5817 2.83668C63.2813 1.98978 64.2156 1.56634 65.3847 1.56634C66.586 1.56634 67.5135 1.96217 68.167 2.75383C68.8252 3.54549 69.1543 4.64553 69.1543 6.05396C69.1543 7.41635 68.8137 8.49568 68.1325 9.29195C67.4559 10.0836 66.5078 10.4794 65.2881 10.4794C64.1466 10.4794 63.2353 10.0606 62.5541 9.22291Z" fill="#222222"/>
</svg>
