<svg width="356" height="59" viewBox="0 0 356 59" fill="none" xmlns="http://www.w3.org/2000/svg">
<path d="M102.293 57.6963V43.6045L102.448 40.6216H102.396C102.139 41.2987 101.899 41.8816 101.676 42.3702L94.6174 57.6963H94.1288L87.0315 42.4473C86.8172 42.0102 86.6029 41.3845 86.3886 40.5702H86.3115C86.38 41.273 86.4143 42.1773 86.4143 43.2831V57.6963H85V37.7801H86.3757L93.7302 53.7105C93.8588 54.0019 94.0731 54.5676 94.3731 55.4077H94.4502C94.7759 54.4305 94.986 53.8476 95.0802 53.659L102.358 37.7801H103.669V57.6963H102.293Z" fill="white"/>
<path d="M121.747 57.6963L119.471 51.5247H110.856L108.593 57.6963H107.025L114.546 37.7801H115.909L123.341 57.6963H121.747ZM115.202 39.5673H115.138C114.984 40.1673 114.834 40.6559 114.688 41.033L111.358 50.2261H118.995L115.639 41.0587L115.202 39.5673Z" fill="white"/>
<path d="M140.75 57.6963L128.972 41.6116C128.638 41.1402 128.364 40.7245 128.15 40.3644H128.098L128.137 41.3416V57.6963H126.71V37.7801H127.854L139.554 53.7233L140.403 54.9962H140.467C140.416 54.3533 140.39 53.7748 140.39 53.2605V37.7801H141.817V57.6963H140.75Z" fill="white"/>
<path d="M160.538 49.7375C160.538 55.2748 158.167 58.0434 153.427 58.0434C148.919 58.0434 146.664 55.3777 146.664 50.0461V37.7801H148.079V49.8532C148.079 54.4391 149.952 56.732 153.697 56.732C157.315 56.732 159.123 54.5034 159.123 50.0461V37.7801H160.538V49.7375Z" fill="white"/>
<path d="M166.838 39.0916V47.1532H174.179V48.4518H166.838V57.6963H165.41V37.7801H174.758V39.0916H166.838Z" fill="white"/>
<path d="M189.762 57.6963L187.487 51.5247H178.872L176.609 57.6963H175.041L182.562 37.7801H183.925L191.357 57.6963H189.762ZM183.218 39.5673H183.154C182.999 40.1673 182.849 40.6559 182.704 41.033L179.374 50.2261H187.011L183.655 41.0587L183.218 39.5673Z" fill="white"/>
<path d="M207.583 57.0277C205.997 57.7049 204.313 58.0434 202.53 58.0434C200.721 58.0434 199.114 57.6277 197.708 56.7963C196.303 55.9648 195.214 54.7948 194.443 53.2862C193.671 51.769 193.285 50.0547 193.285 48.1432C193.285 46.1117 193.701 44.2774 194.533 42.6402C195.364 40.9945 196.534 39.7173 198.043 38.8087C199.56 37.9001 201.274 37.4458 203.186 37.4458C204.729 37.4458 206.194 37.6944 207.583 38.1915V39.6959C206.169 39.0616 204.694 38.7444 203.16 38.7444C201.488 38.7444 200.014 39.1344 198.737 39.9144C197.46 40.6859 196.474 41.7788 195.78 43.1931C195.094 44.5988 194.751 46.2017 194.751 48.0018C194.751 49.7161 195.077 51.2418 195.728 52.579C196.388 53.9076 197.318 54.9319 198.518 55.652C199.727 56.372 201.103 56.732 202.646 56.732C204.48 56.732 206.126 56.372 207.583 55.652V57.0277Z" fill="white"/>
<path d="M217.432 39.0916V57.6963H216.03V39.0916H210.283V37.7801H223.179V39.0916H217.432Z" fill="white"/>
<path d="M240.177 49.7375C240.177 55.2748 237.807 58.0434 233.066 58.0434C228.558 58.0434 226.303 55.3777 226.303 50.0461V37.7801H227.718V49.8532C227.718 54.4391 229.591 56.732 233.336 56.732C236.954 56.732 238.762 54.5034 238.762 50.0461V37.7801H240.177V49.7375Z" fill="white"/>
<path d="M255.31 57.6963L252.61 51.8719C252.113 50.7661 251.598 49.9861 251.067 49.5318C250.535 49.0775 249.82 48.8504 248.92 48.8504H246.477V57.6963H245.05V37.7801H250.604C252.31 37.7801 253.677 38.2558 254.705 39.2073C255.743 40.1502 256.261 41.4059 256.261 42.9745C256.261 44.4231 255.841 45.6274 255.001 46.5874C254.161 47.5475 253.021 48.1603 251.581 48.4261V48.4775C252.395 48.8118 253.18 49.7761 253.934 51.3704L256.93 57.6963H255.31ZM246.477 39.0916V47.5518H249.897C251.38 47.5518 252.567 47.1532 253.458 46.356C254.35 45.5589 254.795 44.4788 254.795 43.1159C254.795 41.8559 254.397 40.8702 253.6 40.1587C252.803 39.4473 251.658 39.0916 250.167 39.0916H246.477Z" fill="white"/>
<path d="M260.916 57.6963V37.7801H270.263V39.0916H262.343V46.9989H269.684V48.2975H262.343V56.4105H270.713V57.6963H260.916Z" fill="white"/>
<path d="M218.777 21.0273V1.11115H224.344C225.998 1.11115 227.331 1.52687 228.343 2.35832C229.354 3.18977 229.86 4.29123 229.86 5.66269C229.86 6.777 229.56 7.75417 228.96 8.59419C228.369 9.43421 227.528 10.0385 226.44 10.4071V10.4585C227.768 10.5871 228.836 11.0842 229.641 11.95C230.456 12.8157 230.863 13.9386 230.863 15.3186C230.863 17.0072 230.254 18.383 229.037 19.4459C227.829 20.5002 226.298 21.0273 224.447 21.0273H218.777ZM220.963 3.14263V9.68707H223.38C224.7 9.68707 225.728 9.3742 226.466 8.74847C227.203 8.11417 227.571 7.2313 227.571 6.09984C227.571 4.12836 226.286 3.14263 223.714 3.14263H220.963ZM220.963 11.7057V18.9959H224.19C225.561 18.9959 226.633 18.6701 227.404 18.0187C228.184 17.3587 228.574 16.4501 228.574 15.2929C228.574 12.9014 226.937 11.7057 223.663 11.7057H220.963Z" fill="white"/>
<path d="M249.319 21.0273H246.697L243.354 15.4215C242.642 14.2215 241.995 13.4372 241.412 13.0686C240.829 12.6914 240.148 12.5028 239.368 12.5028H237.401V21.0273H235.215V1.11115H241.078C242.904 1.11115 244.356 1.58259 245.437 2.52547C246.517 3.45978 247.057 4.75409 247.057 6.40842C247.057 9.15991 245.587 10.9471 242.646 11.77V11.8214C243.195 12.0614 243.645 12.3743 243.996 12.76C244.356 13.1457 244.892 13.9086 245.604 15.0486L249.319 21.0273ZM237.401 3.14263V10.4714H240.654C241.862 10.4714 242.848 10.1199 243.611 9.41706C244.374 8.70562 244.755 7.76274 244.755 6.58842C244.755 5.5084 244.408 4.66409 243.714 4.05551C243.019 3.44692 242.008 3.14263 240.679 3.14263H237.401Z" fill="white"/>
<path d="M251.087 11.3071C251.087 8.10989 251.953 5.55554 253.684 3.64407C255.424 1.73259 257.773 0.776855 260.73 0.776855C263.473 0.776855 265.68 1.71116 267.352 3.57978C269.032 5.4484 269.872 7.85702 269.872 10.8057C269.872 13.9857 269.023 16.5401 267.326 18.4687C265.637 20.3973 263.327 21.3616 260.396 21.3616C257.593 21.3616 255.339 20.423 253.633 18.5459C251.936 16.6687 251.087 14.2557 251.087 11.3071ZM253.389 11.1014C253.389 13.4929 254.023 15.4729 255.292 17.0415C256.56 18.6016 258.257 19.3816 260.383 19.3816C262.655 19.3816 264.42 18.6444 265.68 17.1701C266.949 15.6872 267.583 13.6772 267.583 11.14C267.583 8.51704 266.97 6.46842 265.745 4.9941C264.527 3.51978 262.8 2.78262 260.563 2.78262C258.386 2.78262 256.646 3.57121 255.343 5.14839C254.04 6.717 253.389 8.70133 253.389 11.1014Z" fill="white"/>
<path d="M285.731 3.11691H279.984V21.0273H277.785V3.11691H272.051V1.11115H285.731V3.11691Z" fill="white"/>
<path d="M303.969 21.0273H301.784V11.8857H291.343V21.0273H289.158V1.11115H291.343V9.90565H301.784V1.11115H303.969V21.0273Z" fill="white"/>
<path d="M319.97 21.0273H309.504V1.11115H319.52V3.11691H311.69V9.89279H318.929V11.8986H311.69V19.0216H319.97V21.0273Z" fill="white"/>
<path fill-rule="evenodd" clip-rule="evenodd" d="M218 21.8045V0.334294H224.344C226.13 0.334294 227.653 0.785074 228.836 1.75824C230.037 2.74516 230.637 4.07165 230.637 5.66284C230.637 6.92459 230.295 8.06184 229.594 9.04377C229.283 9.48449 228.916 9.86688 228.496 10.1921C229.142 10.4821 229.716 10.8897 230.209 11.4193C231.18 12.452 231.64 13.7758 231.64 15.3188C231.64 17.2202 230.943 18.8135 229.548 20.0313C228.177 21.2279 226.456 21.8045 224.447 21.8045H218ZM229.642 11.9501C229.106 11.3751 228.456 10.9626 227.69 10.7128C227.308 10.5882 226.897 10.5041 226.458 10.4604C226.452 10.4598 226.446 10.4593 226.44 10.4587V10.4072C226.442 10.4067 226.443 10.4061 226.445 10.4055C226.864 10.2634 227.246 10.0863 227.591 9.87432C228.141 9.5364 228.597 9.10974 228.96 8.59434C229.56 7.75432 229.86 6.77715 229.86 5.66284C229.86 4.29138 229.354 3.18993 228.343 2.35848C227.332 1.52703 225.999 1.1113 224.344 1.1113H218.777V21.0275H224.447C226.299 21.0275 227.829 20.5003 229.037 19.446C230.254 18.3831 230.863 17.0074 230.863 15.3188C230.863 13.9388 230.456 12.8159 229.642 11.9501ZM220.963 9.68722V3.14278H223.714C226.286 3.14278 227.572 4.12852 227.572 6.1C227.572 7.23145 227.203 8.11433 226.466 8.74863C225.729 9.37436 224.7 9.68722 223.38 9.68722H220.963ZM225.961 8.15795C226.497 7.69614 226.794 7.04496 226.794 6.1C226.794 5.29752 226.543 4.81232 226.134 4.49873C225.686 4.15517 224.923 3.91979 223.714 3.91979H221.74V8.91021H223.38C224.582 8.91021 225.408 8.62616 225.961 8.15795ZM220.963 18.996V11.7058H223.663C226.937 11.7058 228.574 12.9016 228.574 15.2931C228.574 16.4502 228.184 17.3588 227.404 18.0189C226.633 18.6703 225.561 18.996 224.19 18.996H220.963ZM226.903 17.4255C227.484 16.9338 227.797 16.2555 227.797 15.2931C227.797 14.2948 227.469 13.6542 226.888 13.2301C226.262 12.7728 225.228 12.4829 223.663 12.4829H221.74V18.219H224.19C225.444 18.219 226.315 17.9219 226.903 17.4255ZM250.717 21.8045H246.255L242.685 15.8179C241.985 14.6366 241.415 13.9901 240.997 13.7255L240.99 13.7211C240.548 13.4351 240.017 13.28 239.368 13.28H238.178V21.8045H234.438V0.334294H241.078C243.038 0.334294 244.69 0.842644 245.946 1.93913C247.224 3.04502 247.834 4.5689 247.834 6.40857C247.834 7.92887 247.424 9.24837 246.554 10.3062C245.978 11.0072 245.225 11.5615 244.32 11.9838C244.406 12.0635 244.489 12.1467 244.568 12.2333C244.985 12.6814 245.555 13.5031 246.263 14.6374L246.264 14.6386L250.717 21.8045ZM243.504 12.3147C243.256 12.1289 242.976 11.9669 242.663 11.8288C242.658 11.8264 242.652 11.824 242.647 11.8216V11.7701C242.655 11.7677 242.664 11.7653 242.672 11.7629C243.002 11.6696 243.314 11.5641 243.606 11.4464C245.907 10.5216 247.057 8.84229 247.057 6.40857C247.057 4.75425 246.517 3.45993 245.437 2.52562C244.357 1.58275 242.904 1.1113 241.078 1.1113H235.215V21.0275H237.401V12.503H239.368C240.148 12.503 240.829 12.6916 241.412 13.0687C241.995 13.4373 242.642 14.2216 243.354 15.4216L246.697 21.0275H249.32L245.604 15.0488C244.892 13.9088 244.357 13.1459 243.997 12.7602C243.85 12.5989 243.686 12.4504 243.504 12.3147ZM237.401 10.4715V3.14278H240.679C242.008 3.14278 243.019 3.44708 243.714 4.05566C244.408 4.66425 244.755 5.50855 244.755 6.58858C244.755 7.76289 244.374 8.70577 243.611 9.41722C242.848 10.1201 241.862 10.4715 240.654 10.4715H237.401ZM238.178 3.91979V9.69452H240.654C241.701 9.69452 242.487 9.39545 243.083 8.84733C243.666 8.30225 243.978 7.57633 243.978 6.58858C243.978 5.69049 243.698 5.07549 243.202 4.63998C242.7 4.20047 241.901 3.91979 240.679 3.91979H238.178ZM253.109 3.12258L253.11 3.12116C255.019 1.02391 257.589 0 260.73 0C263.671 0 266.097 1.01174 267.931 3.06145C269.76 5.09679 270.649 7.70117 270.649 10.8058C270.649 14.1277 269.76 16.8795 267.91 18.9814C266.052 21.1032 263.515 22.1388 260.396 22.1388C257.4 22.1388 254.927 21.1259 253.058 19.0686L253.057 19.0671C251.209 17.0238 250.31 14.4146 250.31 11.3073C250.31 7.96545 251.219 5.20907 253.109 3.12258ZM267.326 18.4689C269.023 16.5402 269.872 13.9859 269.872 10.8058C269.872 7.85718 269.032 5.44855 267.352 3.57994C265.68 1.71132 263.473 0.777011 260.73 0.777011C257.773 0.777011 255.425 1.73275 253.684 3.64422C251.953 5.5557 251.087 8.11004 251.087 11.3073C251.087 14.2559 251.936 16.6688 253.633 18.546C255.339 20.4232 257.593 21.3618 260.396 21.3618C263.328 21.3618 265.638 20.3975 267.326 18.4689ZM265.09 16.6651C266.206 15.3608 266.806 13.5487 266.806 11.1401C266.806 8.63209 266.221 6.78197 265.147 5.491L265.146 5.48894C264.102 4.22474 262.613 3.55978 260.563 3.55978C258.601 3.55978 257.087 4.25766 255.942 5.64341L255.941 5.64501C254.774 7.05026 254.166 8.84918 254.166 11.1015C254.166 13.349 254.759 15.1465 255.895 16.5521C257.007 17.9187 258.476 18.6047 260.383 18.6047C262.471 18.6047 264.003 17.9365 265.09 16.6651ZM286.508 3.89408H280.761V21.8045H277.008V3.89408H271.274V0.334294H286.508V3.89408ZM277.786 3.11707V21.0275H279.984V3.11707H285.731V1.1113H272.051V3.11707H277.786ZM304.746 21.8045H301.007V12.6629H292.12V21.8045H288.381V0.334294H292.12V9.12879H301.007V0.334294H304.746V21.8045ZM301.784 9.9058H291.343V1.1113H289.158V21.0275H291.343V11.8858H301.784V21.0275H303.969V1.1113H301.784V9.9058ZM320.747 21.8045H308.727V0.334294H320.297V3.89408H312.467V9.11593H319.706V12.6757H312.467V18.2447H320.747V21.8045ZM311.69 19.0217V11.8987H318.929V9.89294H311.69V3.11707H319.52V1.1113H309.504V21.0275H319.97V19.0217H311.69ZM255.292 17.0417C254.023 15.4731 253.389 13.493 253.389 11.1015C253.389 8.70149 254.04 6.71715 255.343 5.14854C256.646 3.57136 258.386 2.78277 260.563 2.78277C262.8 2.78277 264.528 3.51993 265.745 4.99426C266.971 6.46858 267.583 8.5172 267.583 11.1401C267.583 13.6773 266.949 15.6874 265.68 17.1703C264.42 18.6446 262.655 19.3817 260.383 19.3817C258.257 19.3817 256.56 18.6017 255.292 17.0417Z" fill="white"/>
<path d="M338.941 21.0002H336.318L332.975 15.3943C332.263 14.1943 331.616 13.41 331.033 13.0414C330.45 12.6643 329.769 12.4757 328.989 12.4757H327.022V21.0002H324.836V1.08398H330.699C332.525 1.08398 333.978 1.55542 335.058 2.4983C336.138 3.43261 336.678 4.72693 336.678 6.38125C336.678 9.13275 335.208 10.9199 332.268 11.7428V11.7942C332.816 12.0342 333.266 12.3471 333.618 12.7328C333.978 13.1186 334.513 13.8814 335.225 15.0215L338.941 21.0002ZM327.022 3.11546V10.4442H330.275C331.483 10.4442 332.469 10.0928 333.232 9.3899C333.995 8.67845 334.376 7.73557 334.376 6.56126C334.376 5.48123 334.029 4.63693 333.335 4.02834C332.641 3.41975 331.629 3.11546 330.3 3.11546H327.022Z" fill="white"/>
<path fill-rule="evenodd" clip-rule="evenodd" d="M340.339 21.7773H335.877L332.307 15.7907C331.607 14.6094 331.037 13.9629 330.618 13.6983L330.612 13.694C330.17 13.408 329.639 13.2529 328.989 13.2529H327.799V21.7773H324.059V0.307129H330.699C332.66 0.307129 334.311 0.815479 335.568 1.91197C336.845 3.01785 337.455 4.54174 337.455 6.38141C337.455 7.9017 337.046 9.2212 336.176 10.279C335.599 10.98 334.846 11.5343 333.941 11.9566C334.027 12.0364 334.11 12.1196 334.189 12.2063C334.607 12.6544 335.177 13.476 335.884 14.6102L335.885 14.6115L340.339 21.7773ZM333.618 12.733C333.471 12.5718 333.307 12.4233 333.126 12.2875C332.878 12.1017 332.597 11.9397 332.284 11.8016C332.279 11.7992 332.274 11.7968 332.268 11.7944V11.743C332.277 11.7406 332.285 11.7382 332.294 11.7358C332.624 11.6425 332.935 11.537 333.228 11.4193C335.528 10.4944 336.678 8.81512 336.678 6.38141C336.678 4.72708 336.138 3.43277 335.058 2.49846C333.978 1.55558 332.525 1.08414 330.699 1.08414H324.836V21.0003H327.022V12.4758H328.989C329.769 12.4758 330.451 12.6644 331.034 13.0416C331.617 13.4101 332.264 14.1945 332.975 15.3945L336.318 21.0003H338.941L335.225 15.0216C334.514 13.8816 333.978 13.1187 333.618 12.733ZM327.022 10.4444V3.11562H330.301C331.629 3.11562 332.641 3.41991 333.335 4.0285C334.03 4.63708 334.377 5.48139 334.377 6.56141C334.377 7.73573 333.995 8.67861 333.232 9.39005C332.469 10.0929 331.484 10.4444 330.275 10.4444H327.022ZM332.704 8.82021C333.288 8.27513 333.6 7.54919 333.6 6.56141C333.6 5.66332 333.32 5.04832 332.823 4.61281C332.322 4.17331 331.523 3.89263 330.301 3.89263H327.799V9.66735H330.275C331.322 9.66735 332.108 9.3683 332.704 8.82021Z" fill="white"/>
<path d="M342.967 17.8887C343.524 18.3944 344.325 18.8187 345.371 19.1616C346.425 19.4959 347.398 19.663 348.29 19.663C351.187 19.663 352.635 18.6087 352.635 16.5001C352.635 15.9086 352.485 15.3815 352.185 14.9186C351.885 14.4557 351.478 14.0572 350.964 13.7229C350.458 13.38 349.455 12.8228 347.955 12.0514C345.795 10.9456 344.428 9.98134 343.854 9.15846C343.279 8.33559 342.992 7.40556 342.992 6.3684C342.992 4.7655 343.644 3.48404 344.947 2.52402C346.249 1.564 347.887 1.08398 349.858 1.08398C351.847 1.08398 353.257 1.3197 354.088 1.79114V4.32406C352.923 3.51833 351.418 3.11546 349.575 3.11546C348.315 3.11546 347.287 3.38547 346.489 3.92548C345.692 4.45692 345.294 5.20694 345.294 6.17553C345.294 6.77555 345.431 7.29842 345.705 7.74414C345.988 8.1813 346.369 8.56273 346.85 8.88846C347.33 9.21418 348.264 9.72419 349.652 10.4185C351.607 11.3871 352.974 12.3343 353.754 13.26C354.534 14.1772 354.924 15.2058 354.924 16.3458C354.924 18.043 354.307 19.3544 353.073 20.2802C351.838 21.2059 350.111 21.6688 347.891 21.6688C347.214 21.6688 346.331 21.5573 345.242 21.3345C344.162 21.1116 343.404 20.8416 342.967 20.5244V17.8887Z" fill="white"/>
<path fill-rule="evenodd" clip-rule="evenodd" d="M342.19 16.1342L343.489 17.3135C343.936 17.7195 344.626 18.0992 345.61 18.4222C346.604 18.7372 347.496 18.8861 348.29 18.8861C349.667 18.8861 350.56 18.6314 351.092 18.2442C351.578 17.8904 351.859 17.356 351.859 16.5002C351.859 16.0474 351.746 15.6692 351.534 15.3414C351.299 14.9797 350.974 14.6561 350.541 14.3745L350.535 14.3704L350.528 14.3662C350.067 14.0535 349.105 13.5164 347.601 12.7429C346.502 12.1802 345.586 11.6442 344.862 11.134C344.147 10.6297 343.579 10.1218 343.217 9.60331C342.548 8.64542 342.216 7.55908 342.216 6.36855C342.216 4.51596 342.987 3.00344 344.486 1.89864C345.949 0.820348 347.758 0.307129 349.859 0.307129C351.866 0.307129 353.453 0.537511 354.472 1.11538L354.866 1.33865V5.80582L353.647 4.96341C352.645 4.2709 351.308 3.89263 349.576 3.89263C348.424 3.89263 347.56 4.13931 346.926 4.56894L346.921 4.57217C346.343 4.9576 346.071 5.46345 346.071 6.17569C346.071 6.64962 346.177 7.02492 346.363 7.32977C346.583 7.66714 346.885 7.97371 347.286 8.24565C347.718 8.53839 348.607 9.0272 349.999 9.72309C351.983 10.7065 353.464 11.7102 354.347 12.7581C355.239 13.8069 355.701 15.0111 355.701 16.3459C355.701 18.2595 354.991 19.8133 353.539 20.9019C352.123 21.9642 350.208 22.4459 347.891 22.4459C347.139 22.4459 346.199 22.3235 345.087 22.0958L345.086 22.0956C343.987 21.8689 343.089 21.5734 342.511 21.1535L342.19 20.9209V16.1342ZM353.754 13.2601C352.974 12.3344 351.607 11.3872 349.653 10.4186C348.264 9.72435 347.33 9.21434 346.85 8.88861C346.37 8.56289 345.988 8.18145 345.706 7.7443C345.431 7.29857 345.294 6.7757 345.294 6.17569C345.294 5.2071 345.693 4.45708 346.49 3.92564C347.287 3.38562 348.316 3.11562 349.576 3.11562C351.033 3.11562 352.278 3.3674 353.312 3.87098C353.585 4.00439 353.844 4.15547 354.089 4.32422V1.7913C353.257 1.31986 351.847 1.08414 349.859 1.08414C347.887 1.08414 346.25 1.56415 344.947 2.52417C343.644 3.4842 342.993 4.76566 342.993 6.36855C342.993 7.40572 343.28 8.33574 343.854 9.15862C344.428 9.9815 345.796 10.9458 347.956 12.0515C349.456 12.823 350.459 13.3801 350.964 13.723C351.479 14.0573 351.886 14.4559 352.186 14.9188C352.486 15.3816 352.636 15.9088 352.636 16.5002C352.636 18.6088 351.187 19.6632 348.29 19.6632C347.398 19.6632 346.426 19.496 345.371 19.1617C344.74 18.9547 344.197 18.7179 343.744 18.4514C343.447 18.2767 343.188 18.0891 342.967 17.8888V20.5246C343.404 20.8418 344.163 21.1118 345.243 21.3346C346.331 21.5575 347.214 21.6689 347.891 21.6689C350.111 21.6689 351.839 21.2061 353.073 20.2803C354.307 19.3546 354.924 18.0431 354.924 16.3459C354.924 15.2059 354.534 14.1773 353.754 13.2601Z" fill="white"/>
<path d="M15.8595 1.53545L4.09493 19.0216H15.5638V21.0273H0.77771V20.5002L12.4137 3.11691H1.70345V1.11115H15.8595V1.53545Z" fill="white"/>
<path d="M34.1747 21.0273H31.9889V11.8857H21.5487V21.0273H19.3629V1.11115H21.5487V9.90565H31.9889V1.11115H34.1747V21.0273Z" fill="white"/>
<path d="M38.3981 11.3071C38.3981 8.10989 39.2638 5.55554 40.9953 3.64407C42.7353 1.73259 45.084 0.776855 48.0412 0.776855C50.7841 0.776855 52.9913 1.71116 54.6628 3.57978C56.3428 5.4484 57.1828 7.85702 57.1828 10.8057C57.1828 13.9857 56.3342 16.5401 54.6371 18.4687C52.9484 20.3973 50.6384 21.3616 47.7069 21.3616C44.904 21.3616 42.6496 20.423 40.9439 18.5459C39.2467 16.6687 38.3981 14.2557 38.3981 11.3071ZM40.6996 11.1014C40.6996 13.4929 41.3339 15.4729 42.6025 17.0415C43.8711 18.6016 45.5683 19.3816 47.694 19.3816C49.9655 19.3816 51.7313 18.6444 52.9913 17.1701C54.2599 15.6872 54.8942 13.6772 54.8942 11.14C54.8942 8.51704 54.2813 6.46842 53.0556 4.9941C51.8384 3.51978 50.1112 2.78262 47.874 2.78262C45.6968 2.78262 43.9568 3.57121 42.6539 5.14839C41.351 6.717 40.6996 8.70133 40.6996 11.1014Z" fill="white"/>
<path d="M71.6536 21.0273H61.4191V1.11115H63.6049V19.0216H71.6536V21.0273Z" fill="white"/>
<path d="M96.7123 21.0273V1.11115H102.28C103.934 1.11115 105.267 1.52687 106.278 2.35832C107.29 3.18977 107.795 4.29123 107.795 5.66269C107.795 6.777 107.495 7.75417 106.895 8.59419C106.304 9.43421 105.464 10.0385 104.375 10.4071V10.4585C105.704 10.5871 106.771 11.0842 107.577 11.95C108.391 12.8157 108.798 13.9386 108.798 15.3186C108.798 17.0072 108.19 18.383 106.973 19.4459C105.764 20.5002 104.234 21.0273 102.382 21.0273H96.7123ZM98.898 3.14263V9.68707H101.315C102.635 9.68707 103.664 9.3742 104.401 8.74847C105.138 8.11417 105.507 7.2313 105.507 6.09984C105.507 4.12836 104.221 3.14263 101.65 3.14263H98.898ZM98.898 11.7057V18.9959H102.125C103.497 18.9959 104.568 18.6701 105.34 18.0187C106.12 17.3587 106.51 16.4501 106.51 15.2929C106.51 12.9014 104.872 11.7057 101.598 11.7057H98.898Z" fill="white"/>
<path d="M149.543 1.11115L142.137 21.0273H139.733L132.481 1.11115H134.924L140.53 17.0287C140.701 17.5173 140.834 18.1001 140.929 18.7773H140.993C141.053 18.2373 141.203 17.6458 141.443 17.003L147.177 1.11115H149.543Z" fill="white"/>
<path d="M165.518 1.11115L158.948 13.66V21.0273H156.749V13.6986L150.658 1.9242V1.09953L152.841 1.11115L157.367 10.2142C157.435 10.3514 157.598 10.75 157.855 11.41H157.894C157.988 11.11 158.168 10.7114 158.434 10.2142L163.191 1.11115H165.518Z" fill="white"/>
<path d="M182.11 20.1787C180.645 20.9673 178.815 21.3616 176.62 21.3616C173.826 21.3616 171.572 20.4402 169.857 18.5973C168.152 16.7544 167.299 14.3715 167.299 11.4485C167.299 8.37989 168.237 5.83412 170.114 3.81121C171.992 1.78831 174.43 0.776855 177.43 0.776855C179.316 0.776855 180.876 1.05115 182.11 1.59973V3.9655C180.679 3.17691 179.102 2.78262 177.379 2.78262C175.013 2.78262 173.123 3.57978 171.709 5.1741C170.303 6.76843 169.6 8.81705 169.6 11.32C169.6 13.6943 170.26 15.6315 171.58 17.1315C172.9 18.6316 174.67 19.3816 176.89 19.3816C178.896 19.3816 180.636 18.9359 182.11 18.0444V20.1787Z" fill="white"/>
<path d="M201.274 21.0273H199.088V11.8857H188.648V21.0273H186.462V1.11115H188.648V9.90565H199.088V1.11115H201.274V21.0273Z" fill="white"/>
<path fill-rule="evenodd" clip-rule="evenodd" d="M149.558 0.334294H146.631L140.984 15.9822L135.474 0.334294H131.371L139.188 21.8045H142.677L149.558 3.29769V0.334294ZM150.658 3.46009L155.972 13.8854V21.8045H159.724V13.8513L166.801 0.334294H162.72L157.903 9.55022L153.321 0.334294H150.658V1.1113H152.84L157.366 10.2144C157.387 10.2574 157.418 10.326 157.458 10.4204C157.545 10.6249 157.675 10.9502 157.849 11.3963L157.854 11.4101H157.893L157.898 11.393C157.978 11.1444 158.116 10.8297 158.31 10.4491C158.349 10.3735 158.39 10.2952 158.433 10.2144L163.19 1.1113H165.517L158.947 13.6602V21.0275H156.749V13.6988L150.658 1.74904V3.46009ZM5.5535 18.2447L16.6358 1.77266V0.334294H0.925736V3.89408H10.9579L0 20.2643V21.8045H16.3401V18.2447H5.5535ZM0.777012 20.5003L12.413 3.11707H1.70275V1.1113H15.8588V1.5356L4.09423 19.0217H15.5631V21.0275H0.777012V20.5003ZM31.2112 21.8045H34.951V0.334294H31.2112V9.12879H22.325V0.334294H18.5852V21.8045H22.325V12.6629H31.2112V21.8045ZM21.548 9.9058H31.9882V1.1113H34.174V21.0275H31.9882V11.8858H21.548V21.0275H19.3622V1.1113H21.548V9.9058ZM40.42 3.12116L40.4187 3.12258C38.5287 5.20907 37.6204 7.96545 37.6204 11.3073C37.6204 14.4146 38.5195 17.0238 40.3668 19.0671L40.3681 19.0686C42.2375 21.1259 44.7099 22.1388 47.7062 22.1388C50.8256 22.1388 53.3622 21.1032 55.2203 18.9814C57.0697 16.8795 57.9591 14.1277 57.9591 10.8058C57.9591 7.70117 57.0703 5.09679 55.2408 3.06145C53.4071 1.01174 50.981 0 48.0405 0C44.8993 0 42.3292 1.02391 40.42 3.12116ZM57.1821 10.8058C57.1821 13.9859 56.3335 16.5402 54.6364 18.4689C52.9478 20.3975 50.6377 21.3618 47.7062 21.3618C44.9033 21.3618 42.6489 20.4232 40.9432 18.546C39.246 16.6688 38.3974 14.2559 38.3974 11.3073C38.3974 8.11004 39.2631 5.5557 40.9946 3.64422C42.7346 1.73275 45.0833 0.777011 48.0405 0.777011C50.7834 0.777011 52.9906 1.71132 54.6621 3.57994C56.3421 5.44855 57.1821 7.85718 57.1821 10.8058ZM54.1165 11.1401C54.1165 13.5487 53.5161 15.3608 52.4002 16.6651C51.3136 17.9365 49.7807 18.6047 47.6933 18.6047C45.7863 18.6047 44.3167 17.9187 43.2051 16.5521C42.0688 15.1465 41.4759 13.349 41.4759 11.1015C41.4759 8.84918 42.0837 7.05027 43.2509 5.64501L43.2523 5.64341C44.397 4.25766 45.9109 3.55978 47.8733 3.55978C49.9226 3.55978 51.412 4.22474 52.4557 5.48894L52.4574 5.491C53.5307 6.78197 54.1165 8.63209 54.1165 11.1401ZM60.6414 21.8045H72.4299V18.2447H64.3812V0.334294H60.6414V21.8045ZM63.6042 1.1113V19.0217H71.6529V21.0275H61.4184V1.1113H63.6042ZM95.9346 0.334294V21.8045H102.382C104.39 21.8045 106.111 21.2279 107.483 20.0313C108.878 18.8135 109.575 17.2202 109.575 15.3188C109.575 13.7758 109.114 12.452 108.144 11.4193C107.65 10.8897 107.077 10.4821 106.431 10.1921C106.851 9.86695 107.218 9.48466 107.528 9.04405C108.229 8.06206 108.572 6.92471 108.572 5.66284C108.572 4.07165 107.972 2.74516 106.771 1.75824C105.587 0.785074 104.065 0.334294 102.279 0.334294H95.9346ZM105.624 10.7128C106.39 10.9626 107.041 11.3751 107.576 11.9501C108.39 12.8159 108.798 13.9388 108.798 15.3188C108.798 17.0074 108.189 18.3831 106.972 19.446C105.763 20.5003 104.233 21.0275 102.382 21.0275H96.7116V1.1113H102.279C103.933 1.1113 105.266 1.52703 106.278 2.35848C107.289 3.18993 107.795 4.29138 107.795 5.66284C107.795 6.77716 107.495 7.75432 106.895 8.59434C106.532 9.10974 106.075 9.5364 105.525 9.87432C105.18 10.0863 104.798 10.2634 104.38 10.4055L104.375 10.4072V10.4587L104.393 10.4604C104.832 10.5041 105.242 10.5882 105.624 10.7128ZM98.8974 3.14278V9.68723H101.315C102.635 9.68723 103.663 9.37436 104.4 8.74863C105.138 8.11433 105.506 7.23145 105.506 6.1C105.506 4.12852 104.22 3.14278 101.649 3.14278H98.8974ZM104.729 6.1C104.729 7.04504 104.431 7.69625 103.895 8.15807C103.343 8.62621 102.516 8.91021 101.315 8.91021H99.6744V3.91979H101.649C102.857 3.91979 103.621 4.15517 104.069 4.49873C104.478 4.81232 104.729 5.29752 104.729 6.1ZM98.8974 11.7058V18.996H102.125C103.496 18.996 104.567 18.6703 105.339 18.0189C106.119 17.3588 106.509 16.4502 106.509 15.2931C106.509 12.9016 104.872 11.7058 101.597 11.7058H98.8974ZM105.732 15.2931C105.732 16.2553 105.418 16.9334 104.838 17.4252C104.25 17.9217 103.378 18.219 102.125 18.219H99.6744V12.4829H101.597C103.163 12.4829 104.197 12.7728 104.823 13.2301C105.403 13.6542 105.732 14.2948 105.732 15.2931ZM147.177 1.1113H149.542L142.136 21.0275H139.732L132.48 1.1113H134.923L140.529 17.0288C140.543 17.0672 140.556 17.1061 140.569 17.1457C140.721 17.6077 140.84 18.1492 140.927 18.7702L140.928 18.7774H140.992L140.993 18.7684C141.049 18.2744 141.18 17.7376 141.386 17.1578C141.404 17.1066 141.423 17.055 141.442 17.0031L147.177 1.1113ZM182.478 20.8632L182.887 20.6432V16.6667L181.708 17.3797C180.373 18.1864 178.777 18.6047 176.89 18.6047C174.865 18.6047 173.318 17.931 172.163 16.6184C170.99 15.286 170.376 13.543 170.376 11.3201C170.376 8.9713 171.032 7.11657 172.29 5.68881C173.54 4.28084 175.208 3.55978 177.378 3.55978C178.977 3.55978 180.424 3.92436 181.735 4.64623L182.887 5.28083V1.09493L182.425 0.889846C181.061 0.283272 179.384 0 177.43 0C174.234 0 171.582 1.08672 169.544 3.28284C167.518 5.46596 166.521 8.20778 166.521 11.4487C166.521 14.5331 167.426 17.1154 169.286 19.1252L169.288 19.1267C171.166 21.1459 173.636 22.1388 176.62 22.1388C178.903 22.1388 180.869 21.7289 182.478 20.8632ZM177.378 2.78277C175.012 2.78277 173.122 3.57994 171.708 5.17426C170.302 6.76858 169.599 8.8172 169.599 11.3201C169.599 13.6945 170.259 15.6317 171.579 17.1317C172.9 18.6317 174.67 19.3817 176.89 19.3817C178.554 19.3817 180.035 19.075 181.333 18.4615C181.599 18.3355 181.858 18.1965 182.11 18.0446V20.1789C180.644 20.9675 178.814 21.3618 176.62 21.3618C173.825 21.3618 171.571 20.4403 169.857 18.5974C168.151 16.7545 167.298 14.3716 167.298 11.4487C167.298 8.38005 168.237 5.83428 170.114 3.81137C171.991 1.78846 174.43 0.777011 177.43 0.777011C179.315 0.777011 180.875 1.0513 182.11 1.59989V3.96566C181.855 3.82551 181.596 3.69782 181.333 3.58257C180.113 3.04937 178.795 2.78277 177.378 2.78277ZM198.311 21.8045H202.051V0.334294H198.311V9.12879H189.424V0.334294H185.685V21.8045H189.424V12.6629H198.311V21.8045ZM188.648 9.9058H199.088V1.1113H201.274V21.0275H199.088V11.8858H188.648V21.0275H186.462V1.1113H188.648V9.9058ZM40.6989 11.1015C40.6989 13.493 41.3332 15.4731 42.6018 17.0417C43.8704 18.6017 45.5676 19.3817 47.6933 19.3817C49.9648 19.3817 51.7306 18.6446 52.9906 17.1703C54.2592 15.6874 54.8935 13.6773 54.8935 11.1401C54.8935 8.5172 54.2806 6.46858 53.0549 4.99426C51.8377 3.51993 50.1105 2.78277 47.8733 2.78277C45.6961 2.78277 43.9561 3.57136 42.6532 5.14854C41.3503 6.71715 40.6989 8.70149 40.6989 11.1015Z" fill="white"/>
<path d="M73.4403 11.4419C73.4403 8.24465 74.306 5.69031 76.0375 3.77883C77.7776 1.86736 80.1262 0.911621 83.0834 0.911621C85.8263 0.911621 88.0335 1.84593 89.705 3.71455C91.385 5.58316 92.225 7.99179 92.225 10.9404C92.225 14.1205 91.3765 16.6749 89.6793 18.6035C87.9907 20.5321 85.6806 21.4964 82.7491 21.4964C79.9462 21.4964 77.6918 20.5578 75.9861 18.6806C74.2889 16.8034 73.4403 14.3905 73.4403 11.4419ZM75.7418 11.2362C75.7418 13.6276 76.3761 15.6077 77.6447 17.1763C78.9133 18.7363 80.6105 19.5164 82.7362 19.5164C85.0077 19.5164 86.7735 18.7792 88.0335 17.3049C89.3021 15.822 89.9364 13.8119 89.9364 11.2747C89.9364 8.65181 89.3235 6.60319 88.0978 5.12886C86.8806 3.65454 85.1534 2.91738 82.9162 2.91738C80.7391 2.91738 78.999 3.70597 77.6961 5.28315C76.3932 6.85176 75.7418 8.8361 75.7418 11.2362Z" fill="white"/>
<path fill-rule="evenodd" clip-rule="evenodd" d="M75.5896 3.37296L75.5906 3.37186C77.4622 1.31589 79.9831 0.307129 83.0834 0.307129C85.9798 0.307129 88.3572 1.30156 90.1548 3.3108C91.9512 5.30914 92.8294 7.87014 92.8294 10.9403C92.8294 14.2307 91.949 16.9386 90.1334 19.002C88.313 21.0808 85.8267 22.1006 82.7491 22.1006C79.7958 22.1006 77.3718 21.1042 75.5388 19.0869L75.5378 19.0858C73.7238 17.0794 72.8359 14.5138 72.8359 11.4417C72.8359 8.13204 73.7348 5.42055 75.5896 3.37296ZM89.6792 18.6033C91.3764 16.6747 92.225 14.1204 92.225 10.9403C92.225 7.99164 91.385 5.58301 89.705 3.7144C88.0335 1.84578 85.8263 0.911471 83.0834 0.911471C80.1262 0.911471 77.7775 1.86721 76.0375 3.77868C74.306 5.69016 73.4403 8.2445 73.4403 11.4417C73.4403 14.3904 74.2889 16.8033 75.9861 18.6805C77.6918 20.5577 79.9461 21.4962 82.7491 21.4962C85.6806 21.4962 87.9906 20.5319 89.6792 18.6033ZM87.5741 16.9121L87.5743 16.9119C88.7241 15.5678 89.332 13.7118 89.332 11.2746C89.332 8.74102 88.7402 6.84679 87.6331 5.51507L87.6317 5.51347C86.5495 4.20258 85.0073 3.52158 82.9162 3.52158C80.906 3.52158 79.3419 4.23961 78.162 5.6679L78.161 5.66915C76.9636 7.1107 76.3461 8.95082 76.3461 11.236C76.3461 13.5156 76.9482 15.3537 78.1141 16.7955C79.2605 18.205 80.7807 18.9119 82.7362 18.9119C84.8645 18.9119 86.449 18.2285 87.5741 16.9121ZM77.6447 17.1761C76.3761 15.6075 75.7418 13.6275 75.7418 11.236C75.7418 8.83595 76.3932 6.85161 77.6961 5.283C78.999 3.70582 80.739 2.91723 82.9162 2.91723C85.1534 2.91723 86.8806 3.65439 88.0978 5.12871C89.3235 6.60303 89.9364 8.65166 89.9364 11.2746C89.9364 13.8118 89.3021 15.8218 88.0335 17.3047C86.7735 18.779 85.0077 19.5162 82.7362 19.5162C80.6105 19.5162 78.9133 18.7362 77.6447 17.1761Z" fill="white"/>
<path d="M112.291 11.4419C112.291 8.24465 113.157 5.69031 114.888 3.77883C116.628 1.86736 118.977 0.911621 121.934 0.911621C124.677 0.911621 126.884 1.84593 128.555 3.71455C130.235 5.58316 131.076 7.99179 131.076 10.9404C131.076 14.1205 130.227 16.6749 128.53 18.6035C126.841 20.5321 124.531 21.4964 121.6 21.4964C118.797 21.4964 116.542 20.5578 114.837 18.6806C113.139 16.8034 112.291 14.3905 112.291 11.4419ZM114.592 11.2362C114.592 13.6276 115.227 15.6077 116.495 17.1763C117.764 18.7363 119.461 19.5164 121.587 19.5164C123.858 19.5164 125.624 18.7792 126.884 17.3049C128.153 15.822 128.787 13.8119 128.787 11.2747C128.787 8.65181 128.174 6.60319 126.948 5.12886C125.731 3.65454 124.004 2.91738 121.767 2.91738C119.59 2.91738 117.849 3.70597 116.547 5.28315C115.244 6.85176 114.592 8.8361 114.592 11.2362Z" fill="white"/>
<path fill-rule="evenodd" clip-rule="evenodd" d="M114.44 3.37296L114.441 3.37186C116.313 1.31589 118.834 0.307129 121.934 0.307129C124.83 0.307129 127.208 1.30156 129.005 3.3108C130.802 5.30914 131.68 7.87014 131.68 10.9403C131.68 14.2307 130.799 16.9386 128.984 19.002C127.163 21.0808 124.677 22.1006 121.6 22.1006C118.646 22.1006 116.222 21.1042 114.389 19.0869L114.388 19.0858C112.574 17.0794 111.686 14.5138 111.686 11.4417C111.686 8.13204 112.585 5.42055 114.44 3.37296ZM128.53 18.6033C130.227 16.6747 131.075 14.1204 131.075 10.9403C131.075 7.99164 130.235 5.58301 128.555 3.7144C126.884 1.84578 124.677 0.911471 121.934 0.911471C118.977 0.911471 116.628 1.86721 114.888 3.77868C113.156 5.69016 112.291 8.2445 112.291 11.4417C112.291 14.3904 113.139 16.8033 114.837 18.6805C116.542 20.5577 118.797 21.4962 121.6 21.4962C124.531 21.4962 126.841 20.5319 128.53 18.6033ZM126.425 16.9121L126.425 16.9119C127.575 15.5678 128.183 13.7118 128.183 11.2746C128.183 8.74102 127.591 6.84679 126.484 5.51507L126.482 5.51347C125.4 4.20258 123.858 3.52158 121.767 3.52158C119.756 3.52158 118.192 4.23961 117.012 5.6679L117.011 5.66915C115.814 7.1107 115.197 8.95082 115.197 11.236C115.197 13.5156 115.799 15.3537 116.965 16.7955C118.111 18.205 119.631 18.9119 121.587 18.9119C123.715 18.9119 125.299 18.2285 126.425 16.9121ZM116.495 17.1761C115.227 15.6075 114.592 13.6275 114.592 11.236C114.592 8.83595 115.244 6.85161 116.547 5.283C117.849 3.70582 119.589 2.91723 121.767 2.91723C124.004 2.91723 125.731 3.65439 126.948 5.12871C128.174 6.60303 128.787 8.65166 128.787 11.2746C128.787 13.8118 128.153 15.8218 126.884 17.3047C125.624 18.779 123.858 19.5162 121.587 19.5162C119.461 19.5162 117.764 18.7362 116.495 17.1761Z" fill="white"/>
</svg>
