<svg width="28" height="28" viewBox="0 0 28 28" fill="none" xmlns="http://www.w3.org/2000/svg">
<path fill-rule="evenodd" clip-rule="evenodd" d="M0.291504 4C0.291504 1.79086 2.08236 0 4.2915 0H23.7086C25.9177 0 27.7086 1.79086 27.7086 4V23.4171C27.7086 25.6262 25.9177 27.4171 23.7086 27.4171H4.2915C2.08236 27.4171 0.291504 25.6262 0.291504 23.4171V4ZM18.875 4.9854H9.12508C7.00281 4.9854 5.27643 6.71178 5.27643 8.83405V18.584C5.27643 20.7063 7.00281 22.4326 9.12508 22.4326H18.875C20.9973 22.4326 22.7237 20.7063 22.7237 18.584V8.83405C22.7237 6.71178 20.9973 4.9854 18.875 4.9854ZM14 18.5198C11.3473 18.5198 9.18923 16.3617 9.18923 13.709C9.18923 11.0563 11.3473 8.8982 14 8.8982C16.6528 8.8982 18.8109 11.0563 18.8109 13.709C18.8109 16.3617 16.6528 18.5198 14 18.5198ZM19.5165 9.15478C18.985 9.15478 18.5543 8.72406 18.5543 8.19261C18.5543 7.66117 18.985 7.23045 19.5165 7.23045C20.0479 7.23045 20.4786 7.66117 20.4786 8.19261C20.4786 8.72406 20.0479 9.15478 19.5165 9.15478ZM14 16.6165C15.606 16.6165 16.9079 15.3146 16.9079 13.7086C16.9079 12.1026 15.606 10.8007 14 10.8007C12.3941 10.8007 11.0922 12.1026 11.0922 13.7086C11.0922 15.3146 12.3941 16.6165 14 16.6165Z" fill="white"/>
</svg>
