<svg width="249" height="123" viewBox="0 0 249 123" fill="none" xmlns="http://www.w3.org/2000/svg">
<mask id="path-1-outside-1_438_1337" maskUnits="userSpaceOnUse" x="50" y="81.6929" width="148" height="18" fill="black">
<rect fill="white" x="50" y="81.6929" width="148" height="18"/>
<path d="M64.6086 98.6287V87.5394L64.73 85.192H64.6896C64.4872 85.7249 64.2983 86.1836 64.123 86.5681L58.5682 98.6287H58.1837L52.5986 86.6288C52.43 86.2848 52.2614 85.7924 52.0927 85.1516H52.032C52.086 85.7047 52.113 86.4163 52.113 87.2864V98.6287H51V82.956H52.0826L57.8701 95.4921C57.9713 95.7214 58.1399 96.1666 58.376 96.8277H58.4367C58.693 96.0587 58.8583 95.6 58.9325 95.4516L64.6592 82.956H65.6912V98.6287H64.6086Z"/>
<path d="M79.9171 98.6287L78.1262 93.772H71.3472L69.5664 98.6287H68.332L74.251 82.956H75.3235L81.1717 98.6287H79.9171ZM74.767 84.3624H74.7164C74.595 84.8345 74.477 85.219 74.3623 85.5158L71.7418 92.7501H77.7518L75.111 85.536L74.767 84.3624Z"/>
<path d="M94.8714 98.6287L85.6033 85.9711C85.3403 85.6001 85.1244 85.273 84.9558 84.9897H84.9153L84.9457 85.7586V98.6287H83.8226V82.956H84.7231L93.9304 95.5022L94.5982 96.5039H94.6488C94.6083 95.998 94.5881 95.5427 94.5881 95.138V82.956H95.7112V98.6287H94.8714Z"/>
<path d="M110.443 92.3657C110.443 96.7231 108.578 98.9018 104.848 98.9018C101.3 98.9018 99.5256 96.8041 99.5256 92.6085V82.956H100.639V92.4567C100.639 96.0654 102.112 97.8698 105.06 97.8698C107.907 97.8698 109.33 96.116 109.33 92.6085V82.956H110.443V92.3657Z"/>
<path d="M115.401 83.988V90.3319H121.178V91.3539H115.401V98.6287H114.278V82.956H121.633V83.988H115.401Z"/>
<path d="M133.441 98.6287L131.65 93.772H124.871L123.09 98.6287H121.856L127.775 82.956H128.847L134.696 98.6287H133.441ZM128.291 84.3624H128.24C128.119 84.8345 128.001 85.219 127.886 85.5158L125.266 92.7501H131.276L128.635 85.536L128.291 84.3624Z"/>
<path d="M147.464 98.1025C146.217 98.6354 144.891 98.9018 143.488 98.9018C142.065 98.9018 140.8 98.5747 139.694 97.9204C138.588 97.2661 137.731 96.3454 137.124 95.1582C136.517 93.9643 136.213 92.6152 136.213 91.111C136.213 89.5124 136.54 88.0689 137.195 86.7805C137.849 85.4855 138.77 84.4804 139.957 83.7654C141.151 83.0504 142.5 82.6929 144.004 82.6929C145.218 82.6929 146.372 82.8885 147.464 83.2797V84.4635C146.351 83.9644 145.191 83.7148 143.984 83.7148C142.669 83.7148 141.508 84.0217 140.503 84.6355C139.498 85.2426 138.723 86.1026 138.176 87.2156C137.637 88.3218 137.367 89.5832 137.367 90.9997C137.367 92.3488 137.623 93.5494 138.136 94.6017C138.655 95.6472 139.387 96.4533 140.331 97.0199C141.282 97.5865 142.365 97.8698 143.579 97.8698C145.023 97.8698 146.318 97.5865 147.464 97.0199V98.1025Z"/>
<path d="M155.215 83.988V98.6287H154.112V83.988H149.589V82.956H159.737V83.988H155.215Z"/>
<path d="M173.113 92.3657C173.113 96.7231 171.248 98.9018 167.518 98.9018C163.97 98.9018 162.196 96.8041 162.196 92.6085V82.956H163.309V92.4567C163.309 96.0654 164.783 97.8698 167.731 97.8698C170.577 97.8698 172 96.116 172 92.6085V82.956H173.113V92.3657Z"/>
<path d="M185.022 98.6287L182.897 94.0452C182.506 93.1751 182.101 92.5613 181.683 92.2038C181.265 91.8463 180.702 91.6675 179.994 91.6675H178.071V98.6287H176.948V82.956H181.319C182.661 82.956 183.737 83.3303 184.547 84.0791C185.363 84.821 185.771 85.8092 185.771 87.0436C185.771 88.1836 185.44 89.1313 184.779 89.8868C184.118 90.6422 183.221 91.1245 182.088 91.3336V91.3741C182.729 91.6372 183.346 92.396 183.94 93.6506L186.297 98.6287H185.022ZM178.071 83.988V90.6456H180.763C181.929 90.6456 182.864 90.3319 183.565 89.7046C184.267 89.0773 184.617 88.2274 184.617 87.1549C184.617 86.1634 184.304 85.3876 183.676 84.8278C183.049 84.2679 182.149 83.988 180.975 83.988H178.071Z"/>
<path d="M189.434 98.6287V82.956H196.789V83.988H190.557V90.2105H196.334V91.2324H190.557V97.6169H197.143V98.6287H189.434Z"/>
</mask>
<path d="M64.6086 98.6287V87.5394L64.73 85.192H64.6896C64.4872 85.7249 64.2983 86.1836 64.123 86.5681L58.5682 98.6287H58.1837L52.5986 86.6288C52.43 86.2848 52.2614 85.7924 52.0927 85.1516H52.032C52.086 85.7047 52.113 86.4163 52.113 87.2864V98.6287H51V82.956H52.0826L57.8701 95.4921C57.9713 95.7214 58.1399 96.1666 58.376 96.8277H58.4367C58.693 96.0587 58.8583 95.6 58.9325 95.4516L64.6592 82.956H65.6912V98.6287H64.6086Z" fill="white"/>
<path d="M79.9171 98.6287L78.1262 93.772H71.3472L69.5664 98.6287H68.332L74.251 82.956H75.3235L81.1717 98.6287H79.9171ZM74.767 84.3624H74.7164C74.595 84.8345 74.477 85.219 74.3623 85.5158L71.7418 92.7501H77.7518L75.111 85.536L74.767 84.3624Z" fill="white"/>
<path d="M94.8714 98.6287L85.6033 85.9711C85.3403 85.6001 85.1244 85.273 84.9558 84.9897H84.9153L84.9457 85.7586V98.6287H83.8226V82.956H84.7231L93.9304 95.5022L94.5982 96.5039H94.6488C94.6083 95.998 94.5881 95.5427 94.5881 95.138V82.956H95.7112V98.6287H94.8714Z" fill="white"/>
<path d="M110.443 92.3657C110.443 96.7231 108.578 98.9018 104.848 98.9018C101.3 98.9018 99.5256 96.8041 99.5256 92.6085V82.956H100.639V92.4567C100.639 96.0654 102.112 97.8698 105.06 97.8698C107.907 97.8698 109.33 96.116 109.33 92.6085V82.956H110.443V92.3657Z" fill="white"/>
<path d="M115.401 83.988V90.3319H121.178V91.3539H115.401V98.6287H114.278V82.956H121.633V83.988H115.401Z" fill="white"/>
<path d="M133.441 98.6287L131.65 93.772H124.871L123.09 98.6287H121.856L127.775 82.956H128.847L134.696 98.6287H133.441ZM128.291 84.3624H128.24C128.119 84.8345 128.001 85.219 127.886 85.5158L125.266 92.7501H131.276L128.635 85.536L128.291 84.3624Z" fill="white"/>
<path d="M147.464 98.1025C146.217 98.6354 144.891 98.9018 143.488 98.9018C142.065 98.9018 140.8 98.5747 139.694 97.9204C138.588 97.2661 137.731 96.3454 137.124 95.1582C136.517 93.9643 136.213 92.6152 136.213 91.111C136.213 89.5124 136.54 88.0689 137.195 86.7805C137.849 85.4855 138.77 84.4804 139.957 83.7654C141.151 83.0504 142.5 82.6929 144.004 82.6929C145.218 82.6929 146.372 82.8885 147.464 83.2797V84.4635C146.351 83.9644 145.191 83.7148 143.984 83.7148C142.669 83.7148 141.508 84.0217 140.503 84.6355C139.498 85.2426 138.723 86.1026 138.176 87.2156C137.637 88.3218 137.367 89.5832 137.367 90.9997C137.367 92.3488 137.623 93.5494 138.136 94.6017C138.655 95.6472 139.387 96.4533 140.331 97.0199C141.282 97.5865 142.365 97.8698 143.579 97.8698C145.023 97.8698 146.318 97.5865 147.464 97.0199V98.1025Z" fill="white"/>
<path d="M155.215 83.988V98.6287H154.112V83.988H149.589V82.956H159.737V83.988H155.215Z" fill="white"/>
<path d="M173.113 92.3657C173.113 96.7231 171.248 98.9018 167.518 98.9018C163.97 98.9018 162.196 96.8041 162.196 92.6085V82.956H163.309V92.4567C163.309 96.0654 164.783 97.8698 167.731 97.8698C170.577 97.8698 172 96.116 172 92.6085V82.956H173.113V92.3657Z" fill="white"/>
<path d="M185.022 98.6287L182.897 94.0452C182.506 93.1751 182.101 92.5613 181.683 92.2038C181.265 91.8463 180.702 91.6675 179.994 91.6675H178.071V98.6287H176.948V82.956H181.319C182.661 82.956 183.737 83.3303 184.547 84.0791C185.363 84.821 185.771 85.8092 185.771 87.0436C185.771 88.1836 185.44 89.1313 184.779 89.8868C184.118 90.6422 183.221 91.1245 182.088 91.3336V91.3741C182.729 91.6372 183.346 92.396 183.94 93.6506L186.297 98.6287H185.022ZM178.071 83.988V90.6456H180.763C181.929 90.6456 182.864 90.3319 183.565 89.7046C184.267 89.0773 184.617 88.2274 184.617 87.1549C184.617 86.1634 184.304 85.3876 183.676 84.8278C183.049 84.2679 182.149 83.988 180.975 83.988H178.071Z" fill="white"/>
<path d="M189.434 98.6287V82.956H196.789V83.988H190.557V90.2105H196.334V91.2324H190.557V97.6169H197.143V98.6287H189.434Z" fill="white"/>
<path d="M64.6086 98.6287V87.5394L64.73 85.192H64.6896C64.4872 85.7249 64.2983 86.1836 64.123 86.5681L58.5682 98.6287H58.1837L52.5986 86.6288C52.43 86.2848 52.2614 85.7924 52.0927 85.1516H52.032C52.086 85.7047 52.113 86.4163 52.113 87.2864V98.6287H51V82.956H52.0826L57.8701 95.4921C57.9713 95.7214 58.1399 96.1666 58.376 96.8277H58.4367C58.693 96.0587 58.8583 95.6 58.9325 95.4516L64.6592 82.956H65.6912V98.6287H64.6086Z" stroke="white" stroke-width="1.4" mask="url(#path-1-outside-1_438_1337)"/>
<path d="M79.9171 98.6287L78.1262 93.772H71.3472L69.5664 98.6287H68.332L74.251 82.956H75.3235L81.1717 98.6287H79.9171ZM74.767 84.3624H74.7164C74.595 84.8345 74.477 85.219 74.3623 85.5158L71.7418 92.7501H77.7518L75.111 85.536L74.767 84.3624Z" stroke="white" stroke-width="1.4" mask="url(#path-1-outside-1_438_1337)"/>
<path d="M94.8714 98.6287L85.6033 85.9711C85.3403 85.6001 85.1244 85.273 84.9558 84.9897H84.9153L84.9457 85.7586V98.6287H83.8226V82.956H84.7231L93.9304 95.5022L94.5982 96.5039H94.6488C94.6083 95.998 94.5881 95.5427 94.5881 95.138V82.956H95.7112V98.6287H94.8714Z" stroke="white" stroke-width="1.4" mask="url(#path-1-outside-1_438_1337)"/>
<path d="M110.443 92.3657C110.443 96.7231 108.578 98.9018 104.848 98.9018C101.3 98.9018 99.5256 96.8041 99.5256 92.6085V82.956H100.639V92.4567C100.639 96.0654 102.112 97.8698 105.06 97.8698C107.907 97.8698 109.33 96.116 109.33 92.6085V82.956H110.443V92.3657Z" stroke="white" stroke-width="1.4" mask="url(#path-1-outside-1_438_1337)"/>
<path d="M115.401 83.988V90.3319H121.178V91.3539H115.401V98.6287H114.278V82.956H121.633V83.988H115.401Z" stroke="white" stroke-width="1.4" mask="url(#path-1-outside-1_438_1337)"/>
<path d="M133.441 98.6287L131.65 93.772H124.871L123.09 98.6287H121.856L127.775 82.956H128.847L134.696 98.6287H133.441ZM128.291 84.3624H128.24C128.119 84.8345 128.001 85.219 127.886 85.5158L125.266 92.7501H131.276L128.635 85.536L128.291 84.3624Z" stroke="white" stroke-width="1.4" mask="url(#path-1-outside-1_438_1337)"/>
<path d="M147.464 98.1025C146.217 98.6354 144.891 98.9018 143.488 98.9018C142.065 98.9018 140.8 98.5747 139.694 97.9204C138.588 97.2661 137.731 96.3454 137.124 95.1582C136.517 93.9643 136.213 92.6152 136.213 91.111C136.213 89.5124 136.54 88.0689 137.195 86.7805C137.849 85.4855 138.77 84.4804 139.957 83.7654C141.151 83.0504 142.5 82.6929 144.004 82.6929C145.218 82.6929 146.372 82.8885 147.464 83.2797V84.4635C146.351 83.9644 145.191 83.7148 143.984 83.7148C142.669 83.7148 141.508 84.0217 140.503 84.6355C139.498 85.2426 138.723 86.1026 138.176 87.2156C137.637 88.3218 137.367 89.5832 137.367 90.9997C137.367 92.3488 137.623 93.5494 138.136 94.6017C138.655 95.6472 139.387 96.4533 140.331 97.0199C141.282 97.5865 142.365 97.8698 143.579 97.8698C145.023 97.8698 146.318 97.5865 147.464 97.0199V98.1025Z" stroke="white" stroke-width="1.4" mask="url(#path-1-outside-1_438_1337)"/>
<path d="M155.215 83.988V98.6287H154.112V83.988H149.589V82.956H159.737V83.988H155.215Z" stroke="white" stroke-width="1.4" mask="url(#path-1-outside-1_438_1337)"/>
<path d="M173.113 92.3657C173.113 96.7231 171.248 98.9018 167.518 98.9018C163.97 98.9018 162.196 96.8041 162.196 92.6085V82.956H163.309V92.4567C163.309 96.0654 164.783 97.8698 167.731 97.8698C170.577 97.8698 172 96.116 172 92.6085V82.956H173.113V92.3657Z" stroke="white" stroke-width="1.4" mask="url(#path-1-outside-1_438_1337)"/>
<path d="M185.022 98.6287L182.897 94.0452C182.506 93.1751 182.101 92.5613 181.683 92.2038C181.265 91.8463 180.702 91.6675 179.994 91.6675H178.071V98.6287H176.948V82.956H181.319C182.661 82.956 183.737 83.3303 184.547 84.0791C185.363 84.821 185.771 85.8092 185.771 87.0436C185.771 88.1836 185.44 89.1313 184.779 89.8868C184.118 90.6422 183.221 91.1245 182.088 91.3336V91.3741C182.729 91.6372 183.346 92.396 183.94 93.6506L186.297 98.6287H185.022ZM178.071 83.988V90.6456H180.763C181.929 90.6456 182.864 90.3319 183.565 89.7046C184.267 89.0773 184.617 88.2274 184.617 87.1549C184.617 86.1634 184.304 85.3876 183.676 84.8278C183.049 84.2679 182.149 83.988 180.975 83.988H178.071Z" stroke="white" stroke-width="1.4" mask="url(#path-1-outside-1_438_1337)"/>
<path d="M189.434 98.6287V82.956H196.789V83.988H190.557V90.2105H196.334V91.2324H190.557V97.6169H197.143V98.6287H189.434Z" stroke="white" stroke-width="1.4" mask="url(#path-1-outside-1_438_1337)"/>
<path d="M70.6113 69.7727V54.1H74.9924C76.2942 54.1 77.3431 54.4272 78.1391 55.0815C78.935 55.7358 79.333 56.6025 79.333 57.6818C79.333 58.5587 79.0969 59.3276 78.6247 59.9887C78.1593 60.6497 77.4983 61.1252 76.6416 61.4153V61.4558C77.6871 61.5569 78.5269 61.9482 79.161 62.6294C79.8018 63.3107 80.1222 64.1944 80.1222 65.2803C80.1222 66.6092 79.6433 67.6918 78.6854 68.5282C77.7344 69.3579 76.5303 69.7727 75.0733 69.7727H70.6113ZM72.3314 55.6987V60.8487H74.2335C75.2723 60.8487 76.0818 60.6025 76.6619 60.1101C77.2419 59.6109 77.532 58.9162 77.532 58.0258C77.532 56.4744 76.5202 55.6987 74.4966 55.6987H72.3314ZM72.3314 62.4372V68.1741H74.871C75.9502 68.1741 76.7934 67.9178 77.4005 67.4051C78.0143 66.8857 78.3212 66.1707 78.3212 65.2601C78.3212 63.3782 77.0328 62.4372 74.4561 62.4372H72.3314Z" fill="white"/>
<path d="M94.6463 69.7727H92.5822L89.9516 65.3613C89.3917 64.417 88.8824 63.7998 88.4238 63.5097C87.9651 63.2129 87.4288 63.0645 86.815 63.0645H85.267V69.7727H83.5469V54.1H88.1607C89.5974 54.1 90.7408 54.471 91.5907 55.213C92.4406 55.9482 92.8655 56.9668 92.8655 58.2686C92.8655 60.4339 91.7087 61.8402 89.3951 62.4878V62.5283C89.8268 62.7171 90.1809 62.9633 90.4575 63.2669C90.7408 63.5704 91.1623 64.1707 91.7222 65.0679L94.6463 69.7727ZM85.267 55.6987V61.4659H87.8268C88.7779 61.4659 89.5536 61.1893 90.1539 60.6362C90.7543 60.0764 91.0544 59.3344 91.0544 58.4103C91.0544 57.5604 90.7812 56.8959 90.2349 56.417C89.6885 55.9381 88.8926 55.6987 87.847 55.6987H85.267Z" fill="white"/>
<path d="M96.0373 62.1236C96.0373 59.6076 96.7186 57.5975 98.0811 56.0933C99.4504 54.5891 101.299 53.837 103.626 53.837C105.784 53.837 107.521 54.5722 108.836 56.0427C110.159 57.5131 110.82 59.4086 110.82 61.729C110.82 64.2315 110.152 66.2416 108.816 67.7592C107.487 69.2769 105.67 70.0358 103.363 70.0358C101.157 70.0358 99.383 69.2972 98.0407 67.82C96.7051 66.3427 96.0373 64.4439 96.0373 62.1236ZM97.8484 61.9617C97.8484 63.8436 98.3476 65.4018 99.3459 66.6362C100.344 67.8638 101.68 68.4776 103.353 68.4776C105.14 68.4776 106.53 67.8975 107.521 66.7373C108.519 65.5704 109.019 63.9886 109.019 61.992C109.019 59.928 108.536 58.3158 107.572 57.1556C106.614 55.9955 105.255 55.4154 103.494 55.4154C101.781 55.4154 100.412 56.0359 99.3863 57.2771C98.3611 58.5114 97.8484 60.073 97.8484 61.9617Z" fill="white"/>
<path d="M123.3 55.6784H118.777V69.7727H117.047V55.6784H112.534V54.1H123.3V55.6784Z" fill="white"/>
<path d="M137.652 69.7727H135.932V62.5789H127.716V69.7727H125.996V54.1H127.716V61.0207H135.932V54.1H137.652V69.7727Z" fill="white"/>
<path d="M150.244 69.7727H142.008V54.1H149.889V55.6784H143.728V61.0106H149.424V62.589H143.728V68.1943H150.244V69.7727Z" fill="white"/>
<path fill-rule="evenodd" clip-rule="evenodd" d="M70 70.3843V53.4887H74.9925C76.3978 53.4887 77.5959 53.8434 78.5275 54.6092C79.4723 55.3859 79.9446 56.4297 79.9446 57.6819C79.9446 58.6748 79.675 59.5697 79.1237 60.3424C78.8792 60.6893 78.5902 60.9902 78.2597 61.2461C78.7679 61.4743 79.2195 61.7951 79.6076 62.2118C80.3714 63.0245 80.7338 64.0662 80.7338 65.2804C80.7338 66.7768 80.1852 68.0305 79.0878 68.9889C78.0083 69.9305 76.654 70.3843 75.0735 70.3843H70ZM79.1611 62.6295C78.7399 62.177 78.228 61.8524 77.6252 61.6558C77.3247 61.5578 77.0016 61.4916 76.6559 61.4573C76.6512 61.4568 76.6465 61.4563 76.6417 61.4559V61.4154C76.6431 61.4149 76.6444 61.4145 76.6458 61.414C76.9753 61.3022 77.2757 61.1628 77.5473 60.996C77.9801 60.7301 78.3393 60.3943 78.6249 59.9888C79.097 59.3277 79.3331 58.5588 79.3331 57.6819C79.3331 56.6026 78.9351 55.7359 78.1392 55.0816C77.3433 54.4273 76.2944 54.1001 74.9925 54.1001H70.6115V69.7728H75.0735C76.5304 69.7728 77.7345 69.358 78.6856 68.5283C79.6434 67.6919 80.1223 66.6093 80.1223 65.2804C80.1223 64.1945 79.8019 63.3108 79.1611 62.6295ZM72.3315 60.8488V55.6988H74.4967C76.5203 55.6988 77.5321 56.4745 77.5321 58.0259C77.5321 58.9163 77.2421 59.611 76.662 60.1102C76.0819 60.6026 75.2725 60.8488 74.2337 60.8488H72.3315ZM76.2647 59.6454C76.6862 59.2819 76.9207 58.7695 76.9207 58.0259C76.9207 57.3944 76.7231 57.0126 76.4012 56.7658C76.0486 56.4954 75.4476 56.3102 74.4967 56.3102H72.943V60.2373H74.2337C75.1793 60.2373 75.8297 60.0138 76.2647 59.6454ZM72.3315 68.1742V62.4373H74.4563C77.033 62.4373 78.3213 63.3783 78.3213 65.2602C78.3213 66.1708 78.0144 66.8858 77.4006 67.4052C76.7935 67.9179 75.9504 68.1742 74.8711 68.1742H72.3315ZM77.0058 66.9383C77.4631 66.5513 77.7099 66.0176 77.7099 65.2602C77.7099 64.4746 77.4514 63.9705 76.9944 63.6368C76.5017 63.277 75.6883 63.0488 74.4563 63.0488H72.943V67.5627H74.8711C75.8575 67.5627 76.543 67.3289 77.0058 66.9383ZM95.7464 70.3843H92.2351L89.4257 65.6732C88.8746 64.7436 88.4264 64.2348 88.0971 64.0266L88.0917 64.0232C87.7439 63.7981 87.3261 63.6761 86.8151 63.6761H85.8785V70.3843H82.9356V53.4887H88.1608C89.7033 53.4887 91.0029 53.8887 91.9919 54.7516C92.9972 55.6218 93.4771 56.821 93.4771 58.2687C93.4771 59.4651 93.155 60.5034 92.4703 61.3359C92.0165 61.8875 91.4242 62.3237 90.7119 62.656C90.7797 62.7188 90.8448 62.7842 90.907 62.8524C91.2354 63.205 91.684 63.8516 92.2411 64.7442L92.2417 64.7452L95.7464 70.3843ZM90.0702 62.9164C89.8749 62.7702 89.6542 62.6427 89.4081 62.534C89.4038 62.5321 89.3995 62.5303 89.3952 62.5284V62.4879C89.4019 62.486 89.4087 62.4841 89.4154 62.4822C89.6751 62.4088 89.9202 62.3258 90.1505 62.2332C91.9606 61.5054 92.8657 60.1839 92.8657 58.2687C92.8657 56.9669 92.4407 55.9483 91.5908 55.2131C90.7409 54.4711 89.5976 54.1001 88.1608 54.1001H83.547V69.7728H85.2671V63.0646H86.8151C87.4289 63.0646 87.9652 63.213 88.4239 63.5098C88.8826 63.7999 89.3918 64.417 89.9517 65.3614L92.5824 69.7728H94.6464L91.7223 65.068C91.1625 64.1708 90.7409 63.5705 90.4576 63.267C90.342 63.1401 90.2129 63.0233 90.0702 62.9164ZM85.2671 61.466V55.6988H87.8472C88.8927 55.6988 89.6886 55.9382 90.235 56.4171C90.7814 56.896 91.0545 57.5605 91.0545 58.4104C91.0545 59.3345 90.7544 60.0765 90.154 60.6363C89.5537 61.1894 88.778 61.466 87.8269 61.466H85.2671ZM85.8785 56.3102V60.8545H87.8269C88.6508 60.8545 89.2696 60.6192 89.7384 60.1878C90.1976 59.7589 90.4431 59.1877 90.4431 58.4104C90.4431 57.7036 90.2229 57.2197 89.8319 56.8769C89.4374 56.5311 88.8085 56.3102 87.8472 56.3102H85.8785ZM97.6281 55.6829L97.6291 55.6817C99.1315 54.0313 101.154 53.2256 103.626 53.2256C105.94 53.2256 107.849 54.0218 109.292 55.6348C110.732 57.2364 111.431 59.2859 111.431 61.729C111.431 64.3432 110.731 66.5086 109.276 68.1627C107.814 69.8324 105.818 70.6473 103.363 70.6473C101.005 70.6473 99.0594 69.8502 97.5882 68.2313L97.5872 68.2301C96.1335 66.6222 95.426 64.5689 95.426 62.1236C95.426 59.4939 96.1408 57.3248 97.6281 55.6829ZM108.816 67.7593C110.152 66.2416 110.82 64.2316 110.82 61.729C110.82 59.4087 110.159 57.5132 108.837 56.0428C107.521 54.5723 105.784 53.8371 103.626 53.8371C101.299 53.8371 99.4505 54.5892 98.0813 56.0934C96.7187 57.5976 96.0374 59.6077 96.0374 62.1236C96.0374 64.444 96.7052 66.3428 98.0408 67.82C99.3831 69.2973 101.157 70.0359 103.363 70.0359C105.67 70.0359 107.488 69.277 108.816 67.7593ZM107.057 66.3399C107.935 65.3135 108.407 63.8875 108.407 61.9921C108.407 60.0185 107.946 58.5626 107.102 57.5466L107.1 57.545C106.279 56.5502 105.107 56.0269 103.494 56.0269C101.95 56.0269 100.759 56.5761 99.8579 57.6666L99.8568 57.6678C98.9383 58.7737 98.46 60.1893 98.46 61.9618C98.46 63.7304 98.9265 65.1448 99.8208 66.251C100.696 67.3264 101.852 67.8663 103.353 67.8663C104.995 67.8663 106.202 67.3404 107.057 66.3399ZM123.911 56.29H119.389V70.3843H116.436V56.29H111.923V53.4887H123.911V56.29ZM117.047 55.6785V69.7728H118.777V55.6785H123.3V54.1001H112.535V55.6785H117.047ZM138.264 70.3843H135.321V63.1904H128.328V70.3843H125.385V53.4887H128.328V60.4093H135.321V53.4887H138.264V70.3843ZM135.932 61.0208H127.716V54.1001H125.996V69.7728H127.716V62.579H135.932V69.7728H137.652V54.1001H135.932V61.0208ZM150.855 70.3843H141.396V53.4887H150.501V56.29H144.339V60.3992H150.036V63.2005H144.339V67.583H150.855V70.3843ZM143.728 68.1944V62.5891H149.424V61.0107H143.728V55.6785H149.89V54.1001H142.008V69.7728H150.244V68.1944H143.728ZM99.346 66.6362C98.3477 65.4019 97.8485 63.8437 97.8485 61.9618C97.8485 60.0731 98.3612 58.5115 99.3865 57.2772C100.412 56.036 101.781 55.4155 103.494 55.4155C105.255 55.4155 106.614 55.9955 107.572 57.1557C108.536 58.3159 109.019 59.9281 109.019 61.9921C109.019 63.9887 108.52 65.5705 107.521 66.7374C106.53 67.8976 105.14 68.4777 103.353 68.4777C101.68 68.4777 100.344 67.8639 99.346 66.6362Z" fill="white"/>
<path d="M165.172 69.7513H163.108L160.478 65.3399C159.918 64.3956 159.408 63.7784 158.95 63.4883C158.491 63.1915 157.955 63.0432 157.341 63.0432H155.793V69.7513H154.073V54.0787H158.687C160.123 54.0787 161.267 54.4497 162.117 55.1916C162.967 55.9269 163.391 56.9454 163.391 58.2472C163.391 60.4125 162.235 61.8189 159.921 62.4664V62.5069C160.353 62.6958 160.707 62.942 160.983 63.2455C161.267 63.549 161.688 64.1494 162.248 65.0465L165.172 69.7513ZM155.793 55.6773V61.4445H158.353C159.304 61.4445 160.08 61.168 160.68 60.6148C161.28 60.055 161.58 59.313 161.58 58.3889C161.58 57.539 161.307 56.8746 160.761 56.3957C160.214 55.9168 159.419 55.6773 158.373 55.6773H155.793Z" fill="white"/>
<path fill-rule="evenodd" clip-rule="evenodd" d="M166.272 70.3629H162.761L159.952 65.6519C159.401 64.7223 158.952 64.2135 158.623 64.0053L158.618 64.0018C158.27 63.7768 157.852 63.6547 157.341 63.6547H156.405V70.3629H153.462V53.4673H158.687C160.229 53.4673 161.529 53.8674 162.518 54.7302C163.523 55.6005 164.003 56.7997 164.003 58.2474C164.003 59.4437 163.681 60.4821 162.996 61.3145C162.543 61.8661 161.95 62.3024 161.238 62.6347C161.306 62.6974 161.371 62.7629 161.433 62.8311C161.762 63.1838 162.21 63.8304 162.767 64.7229L162.768 64.7239L166.272 70.3629ZM160.984 63.2456C160.868 63.1188 160.739 63.0019 160.596 62.8951C160.401 62.7488 160.18 62.6214 159.934 62.5127C159.93 62.5108 159.926 62.5089 159.921 62.507V62.4665C159.928 62.4647 159.935 62.4628 159.941 62.4609C160.201 62.3875 160.446 62.3044 160.677 62.2118C162.487 61.484 163.392 60.1625 163.392 58.2474C163.392 56.9455 162.967 55.927 162.117 55.1917C161.267 54.4498 160.124 54.0788 158.687 54.0788H154.073V69.7515H155.793V63.0433H157.341C157.955 63.0433 158.491 63.1917 158.95 63.4885C159.409 63.7785 159.918 64.3957 160.478 65.34L163.108 69.7515H165.173L162.248 65.0466C161.689 64.1495 161.267 63.5492 160.984 63.2456ZM155.793 61.4446V55.6774H158.373C159.419 55.6774 160.215 55.9169 160.761 56.3958C161.307 56.8747 161.581 57.5391 161.581 58.389C161.581 59.3131 161.28 60.0551 160.68 60.615C160.08 61.1681 159.304 61.4446 158.353 61.4446H155.793ZM160.264 60.1665C160.724 59.7376 160.969 59.1663 160.969 58.389C160.969 57.6823 160.749 57.1983 160.358 56.8556C159.963 56.5097 159.335 56.2889 158.373 56.2889H156.405V60.8332H158.353C159.177 60.8332 159.796 60.5978 160.264 60.1665Z" fill="white"/>
<path d="M168.34 67.3028C168.779 67.7008 169.409 68.0347 170.232 68.3045C171.062 68.5675 171.828 68.6991 172.529 68.6991C174.809 68.6991 175.949 67.8694 175.949 66.2101C175.949 65.7446 175.831 65.3298 175.595 64.9656C175.359 64.6013 175.038 64.2877 174.634 64.0246C174.236 63.7548 173.447 63.3163 172.266 62.7093C170.566 61.8391 169.49 61.0803 169.038 60.4327C168.587 59.7852 168.361 59.0533 168.361 58.2371C168.361 56.9758 168.873 55.9673 169.898 55.2119C170.924 54.4564 172.212 54.0787 173.764 54.0787C175.328 54.0787 176.438 54.2642 177.092 54.6351V56.6284C176.175 55.9943 174.991 55.6773 173.541 55.6773C172.549 55.6773 171.74 55.8898 171.113 56.3147C170.485 56.7329 170.172 57.3231 170.172 58.0854C170.172 58.5575 170.28 58.969 170.495 59.3198C170.718 59.6638 171.018 59.9639 171.396 60.2202C171.774 60.4766 172.509 60.8779 173.602 61.4243C175.14 62.1865 176.215 62.9319 176.829 63.6603C177.443 64.3821 177.75 65.1915 177.75 66.0887C177.75 67.4242 177.264 68.4562 176.293 69.1847C175.322 69.9132 173.963 70.2775 172.216 70.2775C171.683 70.2775 170.988 70.1898 170.131 70.0144C169.281 69.839 168.684 69.6266 168.34 69.377V67.3028Z" fill="white"/>
<path fill-rule="evenodd" clip-rule="evenodd" d="M167.729 65.9221L168.751 66.8502C169.103 67.1696 169.646 67.4684 170.42 67.7226C171.203 67.9705 171.904 68.0877 172.529 68.0877C173.613 68.0877 174.316 67.8873 174.734 67.5826C175.117 67.3041 175.338 66.8836 175.338 66.2102C175.338 65.8539 175.249 65.5562 175.082 65.2982C174.897 65.0137 174.641 64.759 174.301 64.5374L174.296 64.5341L174.291 64.5308C173.928 64.2848 173.171 63.8621 171.987 63.2534C171.122 62.8106 170.401 62.3888 169.832 61.9873C169.269 61.5905 168.822 61.1908 168.537 60.7828C168.011 60.029 167.749 59.1741 167.749 58.2372C167.749 56.7794 168.356 55.5891 169.536 54.7197C170.687 53.8712 172.111 53.4673 173.764 53.4673C175.343 53.4673 176.592 53.6486 177.394 54.1034L177.704 54.2791V57.7944L176.745 57.1315C175.956 56.5865 174.904 56.2889 173.541 56.2889C172.634 56.2889 171.955 56.483 171.456 56.8211L171.452 56.8236C170.997 57.1269 170.783 57.525 170.783 58.0855C170.783 58.4584 170.867 58.7538 171.013 58.9937C171.186 59.2591 171.424 59.5004 171.739 59.7144C172.079 59.9448 172.779 60.3294 173.874 60.877C175.436 61.6509 176.601 62.4408 177.296 63.2654C177.998 64.0907 178.362 65.0383 178.362 66.0888C178.362 67.5946 177.802 68.8173 176.66 69.674C175.545 70.51 174.039 70.889 172.216 70.889C171.624 70.889 170.884 70.7927 170.009 70.6136L170.008 70.6134C169.143 70.435 168.437 70.2024 167.981 69.872L167.729 69.6889V65.9221ZM176.829 63.6605C176.216 62.932 175.14 62.1866 173.602 61.4244C172.509 60.878 171.774 60.4767 171.396 60.2204C171.018 59.964 170.718 59.6639 170.496 59.3199C170.28 58.9691 170.172 58.5576 170.172 58.0855C170.172 57.3233 170.485 56.733 171.113 56.3148C171.74 55.8899 172.55 55.6774 173.541 55.6774C174.688 55.6774 175.668 55.8755 176.481 56.2718C176.697 56.3768 176.9 56.4957 177.092 56.6285V54.6353C176.438 54.2643 175.329 54.0788 173.764 54.0788C172.212 54.0788 170.924 54.4565 169.899 55.212C168.873 55.9675 168.361 56.9759 168.361 58.2372C168.361 59.0534 168.587 59.7853 169.039 60.4328C169.491 61.0804 170.566 61.8392 172.266 62.7094C173.447 63.3164 174.236 63.7549 174.634 64.0247C175.039 64.2878 175.359 64.6014 175.595 64.9657C175.831 65.3299 175.949 65.7448 175.949 66.2102C175.949 67.8695 174.809 68.6992 172.529 68.6992C171.828 68.6992 171.062 68.5677 170.233 68.3046C169.736 68.1416 169.309 67.9553 168.952 67.7456C168.718 67.6081 168.514 67.4605 168.34 67.3029V69.3771C168.684 69.6267 169.281 69.8391 170.131 70.0145C170.988 70.1899 171.683 70.2776 172.216 70.2776C173.963 70.2776 175.322 69.9133 176.293 69.1849C177.264 68.4564 177.75 67.4243 177.75 66.0888C177.75 65.1916 177.443 64.3822 176.829 63.6605Z" fill="white"/>
<path d="M57.4804 25.2083L48.2225 38.9687H57.2477V40.5471H45.6121V40.1322L54.7688 26.4528H46.3406V24.8744H57.4804V25.2083Z" fill="white"/>
<path d="M71.8932 40.5471H70.1732V33.3532H61.9574V40.5471H60.2373V24.8744H61.9574V31.7951H70.1732V24.8744H71.8932V40.5471Z" fill="white"/>
<path d="M75.2167 32.8979C75.2167 30.3819 75.898 28.3718 77.2606 26.8676C78.6299 25.3634 80.4781 24.6113 82.8052 24.6113C84.9637 24.6113 86.7006 25.3466 88.0159 26.817C89.338 28.2875 89.999 30.1829 89.999 32.5033C89.999 35.0058 89.3313 37.0159 87.9957 38.5336C86.6669 40.0513 84.849 40.8101 82.5421 40.8101C80.3364 40.8101 78.5624 40.0715 77.2201 38.5943C75.8845 37.1171 75.2167 35.2183 75.2167 32.8979ZM77.0279 32.736C77.0279 34.618 77.527 36.1761 78.5253 37.4105C79.5236 38.6382 80.8592 39.252 82.532 39.252C84.3195 39.252 85.709 38.6719 86.7006 37.5117C87.6989 36.3448 88.1981 34.763 88.1981 32.7664C88.1981 30.7023 87.7158 29.0902 86.7512 27.93C85.7934 26.7698 84.4342 26.1897 82.6737 26.1897C80.9604 26.1897 79.5911 26.8103 78.5658 28.0514C77.5405 29.2858 77.0279 30.8474 77.0279 32.736Z" fill="white"/>
<path d="M101.387 40.5471H93.3327V24.8744H95.0528V38.9687H101.387V40.5471Z" fill="white"/>
<path d="M121.106 40.5471V24.8744H125.487C126.789 24.8744 127.838 25.2015 128.634 25.8558C129.43 26.5101 129.828 27.3769 129.828 28.4561C129.828 29.333 129.592 30.102 129.119 30.763C128.654 31.4241 127.993 31.8996 127.136 32.1897V32.2301C128.182 32.3313 129.022 32.7225 129.656 33.4038C130.297 34.0851 130.617 34.9687 130.617 36.0547C130.617 37.3835 130.138 38.4662 129.18 39.3026C128.229 40.1322 127.025 40.5471 125.568 40.5471H121.106ZM122.826 26.473V31.6231H124.728C125.767 31.6231 126.576 31.3769 127.157 30.8844C127.737 30.3853 128.027 29.6905 128.027 28.8002C128.027 27.2487 127.015 26.473 124.991 26.473H122.826ZM122.826 33.2116V38.9484H125.366C126.445 38.9484 127.288 38.6921 127.895 38.1795C128.509 37.6601 128.816 36.9451 128.816 36.0345C128.816 34.1525 127.528 33.2116 124.951 33.2116H122.826Z" fill="white"/>
<path d="M162.68 24.8744L156.852 40.5471H154.96L149.254 24.8744H151.176L155.588 37.4004C155.722 37.7849 155.827 38.2436 155.901 38.7764H155.952C155.999 38.3515 156.117 37.8861 156.306 37.3802L160.819 24.8744H162.68Z" fill="white"/>
<path d="M175.252 24.8744L170.081 34.7495V40.5471H168.351V34.7799L163.558 25.5142V24.8653L165.275 24.8744L168.837 32.0379C168.891 32.1458 169.019 32.4595 169.221 32.9789H169.252C169.326 32.7428 169.467 32.4291 169.677 32.0379L173.42 24.8744H175.252Z" fill="white"/>
<path d="M188.309 39.8793C187.155 40.4999 185.715 40.8101 183.988 40.8101C181.789 40.8101 180.015 40.085 178.666 38.6348C177.324 37.1846 176.653 35.3094 176.653 33.0092C176.653 30.5944 177.391 28.5911 178.869 26.9992C180.346 25.4073 182.265 24.6113 184.626 24.6113C186.11 24.6113 187.337 24.8272 188.309 25.2589V27.1206C187.182 26.5 185.941 26.1897 184.585 26.1897C182.723 26.1897 181.236 26.817 180.123 28.0717C179.017 29.3263 178.464 30.9384 178.464 32.908C178.464 34.7765 178.983 36.3009 180.022 37.4813C181.061 38.6618 182.454 39.252 184.201 39.252C185.779 39.252 187.148 38.9012 188.309 38.1997V39.8793Z" fill="white"/>
<path d="M203.389 40.5471H201.669V33.3532H193.453V40.5471H191.733V24.8744H193.453V31.7951H201.669V24.8744H203.389V40.5471Z" fill="white"/>
<path fill-rule="evenodd" clip-rule="evenodd" d="M162.692 24.2631H160.389L155.945 36.5769L151.608 24.2631H148.38L154.532 41.1587H157.277L162.692 26.5955V24.2631ZM163.557 26.7226L167.739 34.9268V41.1587H170.692V34.9L176.261 24.2631H173.049L169.259 31.5154L165.654 24.2631H163.557V24.8745H165.275L168.836 32.038C168.853 32.0718 168.877 32.1259 168.909 32.2001C168.977 32.3611 169.08 32.6171 169.216 32.9681L169.221 32.979H169.251L169.255 32.9655C169.318 32.7699 169.426 32.5223 169.579 32.2227C169.61 32.1632 169.642 32.1016 169.676 32.038L173.42 24.8745H175.251L170.081 34.7496V40.5472H168.351V34.78L163.557 25.3761V26.7226ZM49.3702 38.3574L58.0913 25.395V24.2631H45.7285V27.0644H53.6231L45 39.9466V41.1587H57.8585V38.3574H49.3702ZM45.6115 40.1324L54.7682 26.4529H46.3399V24.8745H57.4798V25.2084L48.2219 38.9688H57.2471V40.5472H45.6115V40.1324ZM69.5611 41.1587H72.5041V24.2631H69.5611V31.1837H62.5682V24.2631H59.6253V41.1587H62.5682V33.9648H69.5611V41.1587ZM61.9568 31.7952H70.1725V24.8745H71.8926V40.5472H70.1725V33.3534H61.9568V40.5472H60.2367V24.8745H61.9568V31.7952ZM76.8078 26.4561L76.8068 26.4573C75.3195 28.0992 74.6047 30.2683 74.6047 32.898C74.6047 35.3433 75.3122 37.3966 76.7659 39.0045L76.767 39.0057C78.2381 40.6246 80.1837 41.4217 82.5415 41.4217C84.9963 41.4217 86.9924 40.6068 88.4546 38.9371C89.9099 37.283 90.6099 35.1176 90.6099 32.5034C90.6099 30.0603 89.9104 28.0108 88.4707 26.4092C87.0278 24.7962 85.1186 24 82.8046 24C80.3327 24 78.3102 24.8057 76.8078 26.4561ZM89.9984 32.5034C89.9984 35.0059 89.3307 37.016 87.9951 38.5337C86.6663 40.0514 84.8484 40.8103 82.5415 40.8103C80.3358 40.8103 78.5618 40.0717 77.2195 38.5944C75.8839 37.1172 75.2161 35.2184 75.2161 32.898C75.2161 30.3821 75.8974 28.372 77.26 26.8678C78.6293 25.3636 80.4775 24.6115 82.8046 24.6115C84.9631 24.6115 86.7 25.3467 88.0153 26.8172C89.3374 28.2876 89.9984 30.1831 89.9984 32.5034ZM87.586 32.7665C87.586 34.6619 87.1135 36.0879 86.2354 37.1143C85.3803 38.1148 84.174 38.6407 82.5314 38.6407C81.0307 38.6407 79.8742 38.1008 78.9995 37.0254C78.1052 35.9192 77.6387 34.5048 77.6387 32.7362C77.6387 30.9637 78.117 29.5481 79.0355 28.4422L79.0366 28.441C79.9374 27.3505 81.1287 26.8013 82.6731 26.8013C84.2857 26.8013 85.4577 27.3246 86.2791 28.3194L86.2804 28.321C87.125 29.3369 87.586 30.7929 87.586 32.7665ZM92.7206 41.1587H101.997V38.3574H95.6636V24.2631H92.7206V41.1587ZM95.0522 24.8745V38.9688H101.386V40.5472H93.3321V24.8745H95.0522ZM120.494 24.2631V41.1587H125.567C127.148 41.1587 128.502 40.7049 129.582 39.7633C130.679 38.8049 131.228 37.5512 131.228 36.0548C131.228 34.8406 130.865 33.7989 130.102 32.9862C129.713 32.5695 129.262 32.2487 128.754 32.0205C129.084 31.7646 129.373 31.4638 129.617 31.1171C130.169 30.3443 130.439 29.4493 130.439 28.4563C130.439 27.2041 129.966 26.1603 129.021 25.3836C128.09 24.6178 126.892 24.2631 125.487 24.2631H120.494ZM128.119 32.4302C128.722 32.6268 129.234 32.9514 129.655 33.4039C130.296 34.0852 130.616 34.9689 130.616 36.0548C130.616 37.3837 130.137 38.4663 129.18 39.3027C128.228 40.1324 127.024 40.5472 125.567 40.5472H121.105V24.8745H125.487C126.788 24.8745 127.837 25.2017 128.633 25.856C129.429 26.5103 129.827 27.377 129.827 28.4563C129.827 29.3332 129.591 30.1021 129.119 30.7632C128.833 31.1687 128.474 31.5045 128.041 31.7704C127.77 31.9372 127.469 32.0766 127.14 32.1884L127.136 32.1898V32.2303L127.15 32.2317C127.496 32.266 127.819 32.3322 128.119 32.4302ZM122.825 26.4732V31.6232H124.728C125.766 31.6232 126.576 31.377 127.156 30.8846C127.736 30.3854 128.026 29.6907 128.026 28.8003C128.026 27.2489 127.014 26.4732 124.991 26.4732H122.825ZM127.415 28.8003C127.415 29.544 127.18 30.0564 126.759 30.4198C126.324 30.7882 125.673 31.0117 124.728 31.0117H123.437V27.0846H124.991C125.942 27.0846 126.543 27.2698 126.895 27.5402C127.217 27.787 127.415 28.1688 127.415 28.8003ZM122.825 33.2117V38.9486H125.365C126.444 38.9486 127.287 38.6923 127.895 38.1796C128.508 37.6602 128.815 36.9452 128.815 36.0346C128.815 34.1527 127.527 33.2117 124.95 33.2117H122.825ZM128.204 36.0346C128.204 36.7918 127.957 37.3255 127.5 37.7124C127.037 38.1032 126.352 38.3371 125.365 38.3371H123.437V33.8232H124.95C126.182 33.8232 126.996 34.0514 127.488 34.4112C127.945 34.7449 128.204 35.249 128.204 36.0346ZM160.818 24.8745H162.68L156.852 40.5472H154.96L149.253 24.8745H151.176L155.587 37.4005C155.598 37.4307 155.608 37.4614 155.618 37.4925C155.738 37.8561 155.832 38.2822 155.9 38.7709L155.901 38.7766H155.951L155.952 38.7694C155.996 38.3807 156.099 37.9583 156.261 37.5021C156.275 37.4617 156.29 37.4211 156.305 37.3803L160.818 24.8745ZM188.598 40.4179L188.919 40.2448V37.1156L187.992 37.6766C186.942 38.3115 185.686 38.6407 184.2 38.6407C182.607 38.6407 181.389 38.1105 180.48 37.0775C179.558 36.029 179.075 34.6574 179.075 32.9082C179.075 31.0598 179.59 29.6003 180.581 28.4767C181.564 27.3687 182.877 26.8013 184.585 26.8013C185.843 26.8013 186.982 27.0882 188.013 27.6563L188.919 28.1557V24.8616L188.556 24.7002C187.482 24.2229 186.163 24 184.625 24C182.111 24 180.023 24.8552 178.42 26.5834C176.826 28.3013 176.041 30.459 176.041 33.0093C176.041 35.4365 176.753 37.4687 178.217 39.0503L178.218 39.0514C179.696 40.6404 181.64 41.4217 183.988 41.4217C185.784 41.4217 187.331 41.0992 188.598 40.4179ZM184.585 26.1899C182.723 26.1899 181.236 26.8172 180.123 28.0718C179.016 29.3264 178.463 30.9385 178.463 32.9082C178.463 34.7766 178.983 36.301 180.021 37.4815C181.06 38.6619 182.453 39.2521 184.2 39.2521C185.509 39.2521 186.675 39.0107 187.697 38.528C187.906 38.4288 188.11 38.3194 188.308 38.1998V39.8794C187.155 40.5 185.714 40.8103 183.988 40.8103C181.789 40.8103 180.015 40.0852 178.666 38.6349C177.323 37.1847 176.652 35.3095 176.652 33.0093C176.652 30.5945 177.391 28.5912 178.868 26.9993C180.345 25.4074 182.264 24.6115 184.625 24.6115C186.109 24.6115 187.337 24.8273 188.308 25.259V27.1207C188.108 27.0104 187.904 26.9099 187.697 26.8192C186.737 26.3996 185.699 26.1899 184.585 26.1899ZM201.057 41.1587H204V24.2631H201.057V31.1837H194.064V24.2631H191.121V41.1587H194.064V33.9648H201.057V41.1587ZM193.453 31.7952H201.669V24.8745H203.389V40.5472H201.669V33.3534H193.453V40.5472H191.733V24.8745H193.453V31.7952ZM77.0272 32.7362C77.0272 34.6181 77.5264 36.1763 78.5247 37.4106C79.523 38.6383 80.8586 39.2521 82.5314 39.2521C84.3189 39.2521 85.7084 38.672 86.7 37.5118C87.6983 36.3449 88.1975 34.7631 88.1975 32.7665C88.1975 30.7025 87.7152 29.0903 86.7506 27.9301C85.7928 26.7699 84.4336 26.1899 82.6731 26.1899C80.9598 26.1899 79.5905 26.8104 78.5652 28.0516C77.5399 29.2859 77.0272 30.8475 77.0272 32.7362Z" fill="white"/>
<path d="M102.793 33.004C102.793 30.488 103.474 28.4779 104.836 26.9737C106.206 25.4695 108.054 24.7174 110.381 24.7174C112.54 24.7174 114.276 25.4526 115.592 26.9231C116.914 28.3936 117.575 30.289 117.575 32.6094C117.575 35.1119 116.907 37.122 115.572 38.6397C114.243 40.1574 112.425 40.9162 110.118 40.9162C107.912 40.9162 106.138 40.1776 104.796 38.7004C103.46 37.2231 102.793 35.3243 102.793 33.004ZM104.604 32.8421C104.604 34.724 105.103 36.2822 106.101 37.5166C107.099 38.7442 108.435 39.358 110.108 39.358C111.895 39.358 113.285 38.7779 114.276 37.6177C115.275 36.4508 115.774 34.869 115.774 32.8724C115.774 30.8084 115.292 29.1963 114.327 28.0361C113.369 26.8759 112.01 26.2958 110.25 26.2958C108.536 26.2958 107.167 26.9163 106.142 28.1575C105.116 29.3919 104.604 30.9534 104.604 32.8421Z" fill="white"/>
<path fill-rule="evenodd" clip-rule="evenodd" d="M104.484 26.6543L104.485 26.6534C105.957 25.0355 107.941 24.2417 110.381 24.2417C112.66 24.2417 114.531 25.0242 115.946 26.6054C117.359 28.1779 118.05 30.1933 118.05 32.6093C118.05 35.1986 117.358 37.3295 115.929 38.9533C114.496 40.5892 112.54 41.3917 110.118 41.3917C107.794 41.3917 105.886 40.6075 104.444 39.0201L104.443 39.0192C103.016 37.4403 102.317 35.4214 102.317 33.0039C102.317 30.3994 103.024 28.2656 104.484 26.6543ZM115.571 38.6395C116.907 37.1219 117.575 35.1118 117.575 32.6093C117.575 30.2889 116.914 28.3934 115.592 26.923C114.276 25.4525 112.539 24.7173 110.381 24.7173C108.054 24.7173 106.206 25.4694 104.836 26.9736C103.474 28.4778 102.792 30.4879 102.792 33.0039C102.792 35.3242 103.46 37.223 104.796 38.7002C106.138 40.1775 107.912 40.9161 110.118 40.9161C112.425 40.9161 114.243 40.1572 115.571 38.6395ZM113.915 37.3086L113.915 37.3085C114.82 36.2508 115.298 34.7902 115.298 32.8723C115.298 30.8786 114.832 29.3879 113.961 28.34L113.96 28.3387C113.109 27.3071 111.895 26.7712 110.249 26.7712C108.668 26.7712 107.437 27.3363 106.508 28.4602L106.507 28.4612C105.565 29.5956 105.079 31.0437 105.079 32.842C105.079 34.6358 105.553 36.0823 106.47 37.2169C107.373 38.3261 108.569 38.8823 110.108 38.8823C111.783 38.8823 113.029 38.3446 113.915 37.3086ZM106.101 37.5165C105.103 36.2821 104.604 34.7239 104.604 32.842C104.604 30.9533 105.116 29.3917 106.142 28.1574C107.167 26.9162 108.536 26.2957 110.249 26.2957C112.01 26.2957 113.369 26.8758 114.327 28.0359C115.291 29.1961 115.774 30.8083 115.774 32.8723C115.774 34.8689 115.275 36.4507 114.276 37.6176C113.285 38.7778 111.895 39.3579 110.108 39.3579C108.435 39.3579 107.099 38.7441 106.101 37.5165Z" fill="white"/>
<path d="M133.365 33.004C133.365 30.488 134.046 28.4779 135.409 26.9737C136.778 25.4695 138.626 24.7174 140.953 24.7174C143.112 24.7174 144.849 25.4526 146.164 26.9231C147.486 28.3936 148.147 30.289 148.147 32.6094C148.147 35.1119 147.48 37.122 146.144 38.6397C144.815 40.1574 142.997 40.9162 140.69 40.9162C138.485 40.9162 136.711 40.1776 135.368 38.7004C134.033 37.2231 133.365 35.3243 133.365 33.004ZM135.176 32.8421C135.176 34.724 135.675 36.2822 136.674 37.5166C137.672 38.7442 139.007 39.358 140.68 39.358C142.468 39.358 143.857 38.7779 144.849 37.6177C145.847 36.4508 146.346 34.869 146.346 32.8724C146.346 30.8084 145.864 29.1963 144.899 28.0361C143.942 26.8759 142.582 26.2958 140.822 26.2958C139.109 26.2958 137.739 26.9163 136.714 28.1575C135.689 29.3919 135.176 30.9534 135.176 32.8421Z" fill="white"/>
<path fill-rule="evenodd" clip-rule="evenodd" d="M135.057 26.6543L135.057 26.6534C136.53 25.0355 138.514 24.2417 140.954 24.2417C143.233 24.2417 145.104 25.0242 146.518 26.6054C147.932 28.1779 148.623 30.1933 148.623 32.6093C148.623 35.1986 147.93 37.3295 146.502 38.9533C145.069 40.5892 143.113 41.3917 140.691 41.3917C138.367 41.3917 136.459 40.6075 135.017 39.0201L135.016 39.0192C133.588 37.4403 132.89 35.4214 132.89 33.0039C132.89 30.3994 133.597 28.2656 135.057 26.6543ZM146.144 38.6395C147.48 37.1219 148.148 35.1118 148.148 32.6093C148.148 30.2889 147.486 28.3934 146.164 26.923C144.849 25.4525 143.112 24.7173 140.954 24.7173C138.627 24.7173 136.778 25.4694 135.409 26.9736C134.046 28.4778 133.365 30.4879 133.365 33.0039C133.365 35.3242 134.033 37.223 135.369 38.7002C136.711 40.1775 138.485 40.9161 140.691 40.9161C142.998 40.9161 144.815 40.1572 146.144 38.6395ZM144.488 37.3086L144.488 37.3085C145.393 36.2508 145.871 34.7902 145.871 32.8723C145.871 30.8786 145.405 29.3879 144.534 28.34L144.533 28.3387C143.681 27.3071 142.468 26.7712 140.822 26.7712C139.24 26.7712 138.009 27.3363 137.081 28.4602L137.08 28.4612C136.138 29.5956 135.652 31.0437 135.652 32.842C135.652 34.6358 136.126 36.0823 137.043 37.2169C137.945 38.3261 139.142 38.8823 140.68 38.8823C142.355 38.8823 143.602 38.3446 144.488 37.3086ZM136.674 37.5165C135.675 36.2821 135.176 34.7239 135.176 32.842C135.176 30.9533 135.689 29.3917 136.714 28.1574C137.74 26.9162 139.109 26.2957 140.822 26.2957C142.583 26.2957 143.942 26.8758 144.9 28.0359C145.864 29.1961 146.347 30.8083 146.347 32.8723C146.347 34.8689 145.847 36.4507 144.849 37.6176C143.858 38.7778 142.468 39.3579 140.68 39.3579C139.008 39.3579 137.672 38.7441 136.674 37.5165Z" fill="white"/>
<rect x="1.5" y="1.5" width="246" height="120" stroke="white" stroke-width="3"/>
</svg>
