<svg width="17" height="17" viewBox="0 0 17 17" fill="none" xmlns="http://www.w3.org/2000/svg">
<g clip-path="url(#clip0_325_1703)">
<path d="M14.4996 5.12624C14.4947 5.06112 14.4402 5.01074 14.375 5.01074H12.125V4.38574C12.125 2.38687 10.4987 0.760742 8.49998 0.760742C6.50123 0.760742 4.87498 2.38687 4.87498 4.38574V5.01074H2.62498C2.55973 5.01074 2.50523 5.06112 2.50036 5.12624L1.62536 16.6262C1.62273 16.6609 1.63461 16.6951 1.65836 16.7206C1.68198 16.7462 1.71523 16.7607 1.74998 16.7607H15.25C15.2847 16.7607 15.318 16.7462 15.3416 16.7207C15.3652 16.6952 15.3772 16.661 15.3746 16.6264L14.4996 5.12624ZM5.87498 4.38574C5.87498 2.93837 7.05248 1.76074 8.49998 1.76074C9.94748 1.76074 11.125 2.93837 11.125 4.38574V5.01074H5.87498V4.38574ZM5.37498 8.51074C4.68561 8.51074 4.12498 7.94999 4.12498 7.26074C4.12498 6.76187 4.37498 6.31237 4.87498 6.11512V7.26074C4.87498 7.53649 5.09936 7.76074 5.37498 7.76074C5.65061 7.76074 5.87498 7.53649 5.87498 7.26074V6.11587C6.37498 6.31312 6.62498 6.76599 6.62498 7.26074C6.62498 7.94999 6.06436 8.51074 5.37498 8.51074ZM11.625 8.51074C10.9356 8.51074 10.375 7.94999 10.375 7.26074C10.375 6.76187 10.625 6.31237 11.125 6.11512V7.26074C11.125 7.53649 11.3494 7.76074 11.625 7.76074C11.9006 7.76074 12.125 7.53649 12.125 7.26074V6.11587C12.625 6.31312 12.875 6.76599 12.875 7.26074C12.875 7.94999 12.3144 8.51074 11.625 8.51074Z" fill="white"/>
</g>
<defs>
<clipPath id="clip0_325_1703">
<rect width="16" height="16" fill="white" transform="translate(0.5 0.760742)"/>
</clipPath>
</defs>
</svg>
