<svg width="57" height="57" viewBox="0 0 57 57" fill="none" xmlns="http://www.w3.org/2000/svg">
<path d="M21.2186 45.8927L11.7787 36.5146C11.4328 36.1716 11.4328 35.6158 11.7787 35.2729C12.1246 34.9301 12.6855 34.9301 13.0313 35.2729L22.4713 44.6511C25.0789 47.2363 28.5462 48.6601 32.2346 48.6601C35.9228 48.6601 39.3901 47.2363 41.9977 44.6511C42.0065 44.6423 42.0156 44.6336 42.0248 44.6252C46.4127 40.2517 47.3051 33.4739 44.193 28.1292L40.6765 22.2111C40.432 21.7912 40.5773 21.2542 41.001 21.0118C41.4247 20.7693 41.9664 20.9134 42.211 21.3335L45.7274 27.2514C49.2457 33.2935 48.2276 40.959 43.2518 45.8926C43.2424 45.902 43.2327 45.911 43.2229 45.9199C40.2839 48.8198 36.3832 50.416 32.2346 50.416C28.0729 50.4162 24.1607 48.8096 21.2186 45.8927Z" fill="black"/>
<path d="M8.34137 31.4189C8.35117 30.3564 8.77422 29.3726 9.53255 28.6488C10.0939 28.1131 10.7798 27.7753 11.4988 27.6346L11.1587 27.2973C10.3951 26.5404 9.96292 25.4889 9.97284 24.4123C9.98276 23.3501 10.4055 22.3664 11.1637 21.6421C11.7248 21.1065 12.4112 20.7689 13.1302 20.628L12.7894 20.2903C12.0258 19.5326 11.5939 18.4805 11.6044 17.4037C11.6148 16.3419 12.0379 15.3587 12.7955 14.6357C14.1695 13.3233 16.2935 13.1981 17.8131 14.2476C17.9461 13.5092 18.2913 12.8022 18.8497 12.2274C19.5797 11.4759 20.572 11.0566 21.6438 11.0465C22.7256 11.0383 23.7912 11.4647 24.5547 12.2214L33.5216 21.1099C33.5005 20.6814 33.5474 20.2485 33.6648 19.8301C33.952 18.8067 34.6173 17.9654 35.5384 17.4611C37.414 16.4346 39.8119 17.096 40.8836 18.9354L42.1615 21.1281C42.4062 21.548 42.2611 22.0851 41.8375 22.3276C41.414 22.5701 40.8721 22.4264 40.6274 22.0066L39.3494 19.8138C38.7568 18.7967 37.4311 18.431 36.3946 18.9983C35.8934 19.2727 35.53 19.7353 35.3713 20.3008C35.2066 20.8875 35.2865 21.5233 35.5901 22.0449L37.1674 24.752L37.6965 25.5006C38.2513 26.2856 38.1578 27.3473 37.4741 28.0249L36.8389 28.6545C36.5654 28.9257 36.4148 29.2861 36.4148 29.6695V30.7307C36.4148 31.2156 36.0182 31.6088 35.529 31.6088C35.0399 31.6088 34.6433 31.2156 34.6433 30.7307V29.6695C34.6433 28.817 34.9782 28.0156 35.5862 27.4128L36.2214 26.7832C36.2958 26.7094 36.306 26.5936 36.2456 26.5082L35.7387 25.791L23.3021 13.4634C22.8728 13.0377 22.2741 12.7987 21.6606 12.8028C21.0681 12.8083 20.5232 13.0367 20.1258 13.4456C19.3058 14.2899 19.318 15.6501 20.1513 16.4809C20.1528 16.4823 29.7243 25.9695 29.7243 25.9695L30.0042 25.6921C30.3501 25.3492 30.911 25.3492 31.2568 25.6921C31.6027 26.035 31.6027 26.5909 31.2568 26.9337L20.7444 37.354C20.5715 37.5254 20.3448 37.6111 20.1181 37.6111C19.8915 37.6111 19.6647 37.5254 19.4918 37.354C19.1459 37.011 19.1459 36.4552 19.4918 36.1123L19.7716 35.835L13.828 29.9433C12.9903 29.1128 11.6145 29.0995 10.7613 29.9137C10.3485 30.3077 10.1183 30.8479 10.1128 31.435C10.1071 32.0434 10.3503 32.6365 10.7803 33.0623L12.8341 35.0981C13.18 35.441 13.18 35.997 12.8341 36.3398C12.6612 36.5113 12.4345 36.597 12.2078 36.597C11.9812 36.597 11.7544 36.5113 11.5815 36.3398L9.52806 34.3043C8.76394 33.5477 8.33145 32.4959 8.34137 31.4189ZM17.091 15.93C16.2528 15.0993 14.8774 15.086 14.0245 15.9007C13.612 16.2944 13.3816 16.8344 13.3759 17.421C13.37 18.0296 13.6129 18.6232 14.0422 19.049L25.3743 30.2815L28.4716 27.2114L17.091 15.93ZM12.4113 26.0557L21.0243 34.5933L24.1216 31.5232L15.4594 22.9369C15.4583 22.9357 15.4573 22.9344 15.4561 22.9332C14.6171 22.1067 13.2438 22.0946 12.3925 22.9069C11.9799 23.3012 11.7497 23.8415 11.7443 24.4286C11.7387 25.0368 11.9818 25.6299 12.4113 26.0557Z" fill="black"/>
<path d="M41.1562 37.3636L35.1797 43.2878L28.5 38.0606V36.3182L28.8516 35.2727L29.9062 33.8788L31.6641 33.5303L33.4219 33.8788L34.8281 35.9697L35.5312 34.5757L37.2891 33.5303H39.0469L40.8047 34.9242L41.1562 37.3636Z" fill="#F0C200"/>
<path d="M30.3384 38.6969C30.6843 39.0399 30.8258 39.5209 30.4798 39.8638C30.1339 40.2066 29.573 40.2066 29.2272 39.8638L29.0053 39.8638C28.2225 39.0879 27.6073 37.65 27.6143 36.5527C27.6213 35.4553 28.0619 34.4289 28.8554 33.6617C30.4248 32.1479 32.9861 32.1386 34.5662 33.6423C34.6633 33.735 34.7555 33.8321 34.8424 33.933C34.9297 33.8318 35.0223 33.7344 35.12 33.6415C36.6988 32.1376 39.26 32.1467 40.8292 33.6621C41.6223 34.4279 42.063 35.4539 42.0706 36.5507C42.078 37.6485 41.6511 38.6806 40.8681 39.4576L37.1561 43.1371C36.5183 43.7692 35.6804 44.0853 34.8427 44.0853C34.005 44.0853 33.167 43.7692 32.5293 43.1371L29.0053 39.8638C28.6594 39.5208 28.6594 38.9649 29.0053 38.622C29.3512 38.2793 29.9121 38.2793 30.2579 38.622L33.7819 41.8953C34.3668 42.4751 35.3185 42.4751 35.9035 41.8953L39.6151 38.2162C40.0604 37.7745 40.3033 37.1871 40.299 36.5627C40.2948 35.9389 40.0441 35.3555 39.593 34.9199C38.7009 34.0582 37.2449 34.0528 36.3475 34.9077C36.0313 35.2089 35.8077 35.5888 35.7007 36.0065C35.601 36.3959 35.2475 36.6686 34.8421 36.6686C34.4366 36.6686 34.0832 36.3959 33.9835 36.0065C33.8766 35.5889 33.653 35.2087 33.3382 34.9079C32.4403 34.0535 30.9835 34.059 30.0915 34.9196C29.6402 35.3558 29.3896 35.9396 29.3856 36.5637C29.3816 37.1878 29.4832 37.8494 29.9284 38.2906L30.3384 38.6969Z" fill="black"/>
</svg>
