<svg width="57" height="57" viewBox="0 0 57 57" fill="none" xmlns="http://www.w3.org/2000/svg">
<rect x="30.2612" y="47.1899" width="3.18039" height="6.30998" fill="#F0C200"/>
<path d="M46 18.5C46 16.5958 45.6249 14.7103 44.8963 12.9511C44.1676 11.1919 43.0995 9.5934 41.753 8.24695C40.4066 6.9005 38.8081 5.83244 37.0489 5.10375C35.2897 4.37505 33.4042 4 31.5 4C29.5958 4 27.7103 4.37505 25.9511 5.10375C24.1919 5.83244 22.5934 6.9005 21.247 8.24695C19.9005 9.5934 18.8324 11.1919 18.1037 12.9511C17.3751 14.7103 17 16.5958 17 18.5L27.6666 18.5C27.6666 17.9966 27.7657 17.4981 27.9584 17.033C28.151 16.5679 28.4334 16.1453 28.7894 15.7894C29.1453 15.4334 29.5679 15.151 30.033 14.9584C30.4981 14.7657 30.9966 14.6666 31.5 14.6666C32.0034 14.6666 32.5019 14.7657 32.967 14.9584C33.4321 15.151 33.8547 15.4334 34.2106 15.7894C34.5666 16.1453 34.849 16.5679 35.0416 17.033C35.2343 17.4981 35.3334 17.9966 35.3334 18.5H46Z" fill="#F0C200"/>
<path fill-rule="evenodd" clip-rule="evenodd" d="M34.311 48.2999C34.311 46.7891 33.0763 45.564 31.553 45.564C30.0298 45.564 28.795 46.7891 28.795 48.2999V51.9479C28.795 53.4588 30.0298 54.6839 31.553 54.6839C33.0763 54.6839 34.311 53.4588 34.311 51.9479V48.2999ZM32.4724 48.2999C32.4724 47.7965 32.0608 47.388 31.553 47.388C31.0453 47.388 30.6337 47.7965 30.6337 48.2999V51.9479C30.6337 52.4513 31.0453 52.8599 31.553 52.8599C32.0608 52.8599 32.4724 52.4513 32.4724 51.9479V48.2999Z" fill="black"/>
<path fill-rule="evenodd" clip-rule="evenodd" d="M14.5986 22.6157C14.344 21.4392 14.2098 20.2189 14.2098 18.9677C14.2098 18.4643 14.6216 18.0557 15.1291 18.0557H16.0751C16.5522 9.92258 23.3599 3.46387 31.6771 3.46387C39.9942 3.46387 46.8019 9.92258 47.279 18.0557H48.225C48.7325 18.0557 49.1443 18.4643 49.1443 18.9677C49.1443 26.2773 44.5716 32.5363 38.1124 35.0798V49.9753C38.1124 51.1846 37.6279 52.3447 36.7665 53.2001C35.9041 54.0547 34.7347 54.5353 33.5157 54.5353C33.0082 54.5353 32.5964 54.1267 32.5964 53.6233C32.5964 53.1199 33.0082 52.7113 33.5157 52.7113C34.2475 52.7113 34.949 52.4231 35.4656 51.9097C35.9832 51.3971 36.2737 50.7013 36.2737 49.9753V30.8236H27.0804V49.9753C27.0804 50.7013 27.3709 51.3971 27.8885 51.9097C28.4052 52.4231 29.1066 52.7113 29.8384 52.7113C30.3459 52.7113 30.7577 53.1199 30.7577 53.6233C30.7577 54.1267 30.3459 54.5353 29.8384 54.5353C28.6194 54.5353 27.45 54.0547 26.5876 53.2001C25.7262 52.3447 25.2417 51.1846 25.2417 49.9753V35.0798C22.4488 33.98 20.008 32.1852 18.1381 29.9116H9.6131C8.08976 29.9116 6.8551 28.6868 6.8551 27.1756V25.3516C6.8551 23.8405 8.08976 22.6157 9.6131 22.6157H14.5986ZM37.193 21.8596C38.2641 22.2344 39.0317 23.2486 39.0317 24.4396V28.0876C39.0317 28.8974 38.6768 29.6261 38.1124 30.1268V33.0981C43.268 30.7816 46.9334 25.7702 47.279 19.8797H37.193V21.8596ZM20.6111 29.9116C21.9395 31.233 23.506 32.3183 25.2417 33.0981V29.9116C25.2197 29.8924 20.6111 29.9116 20.6111 29.9116ZM37.193 24.4396C37.193 23.9362 36.7812 23.5276 36.2737 23.5276H27.0804C26.5729 23.5276 26.1611 23.9362 26.1611 24.4396V28.0876C26.1611 28.591 26.5729 28.9996 27.0804 28.9996H36.2737C36.7812 28.9996 37.193 28.591 37.193 28.0876V24.4396ZM24.3224 24.4396H9.6131C9.10563 24.4396 8.69377 24.8482 8.69377 25.3516V27.1756C8.69377 27.679 9.10563 28.0876 9.6131 28.0876H24.327C24.3242 28.0365 24.3224 24.4396 24.3224 24.4396ZM24.8942 22.6157C25.216 22.2016 25.6545 21.8815 26.1611 21.7037V19.8797H16.0751C16.1302 20.8163 16.2691 21.731 16.4842 22.6157H24.8942ZM35.3544 21.7037V18.9677C35.3544 18.2418 35.0639 17.5459 34.5463 17.0334C34.0296 16.5199 33.3282 16.2317 32.5964 16.2317H30.7577C30.0259 16.2317 29.3245 16.5199 28.8078 17.0334C28.2902 17.5459 27.9997 18.2418 27.9997 18.9677V21.7037H35.3544ZM45.4367 18.0557C44.9632 10.9303 38.9793 5.28785 31.6771 5.28785C24.3748 5.28785 18.3909 10.9303 17.9174 18.0557H26.2539C26.4332 17.1866 26.8653 16.3804 27.507 15.7429C28.3693 14.8884 29.5387 14.4077 30.7577 14.4077H32.5964C33.8154 14.4077 34.9848 14.8884 35.8471 15.7429C36.4888 16.3804 36.9209 17.1866 37.1002 18.0557H45.4367Z" fill="black"/>
<path fill-rule="evenodd" clip-rule="evenodd" d="M31.677 8.9358C32.1848 8.9358 32.5964 8.52748 32.5964 8.02381C32.5964 7.52013 32.1848 7.11182 31.677 7.11182C31.1693 7.11182 30.7577 7.52013 30.7577 8.02381C30.7577 8.52748 31.1693 8.9358 31.677 8.9358Z" fill="black"/>
<path fill-rule="evenodd" clip-rule="evenodd" d="M37.193 10.76C37.7007 10.76 38.1123 10.3517 38.1123 9.84802C38.1123 9.34435 37.7007 8.93604 37.193 8.93604C36.6853 8.93604 36.2737 9.34435 36.2737 9.84802C36.2737 10.3517 36.6853 10.76 37.193 10.76Z" fill="black"/>
<path fill-rule="evenodd" clip-rule="evenodd" d="M26.161 10.76C26.6688 10.76 27.0804 10.3517 27.0804 9.84802C27.0804 9.34435 26.6688 8.93604 26.161 8.93604C25.6533 8.93604 25.2417 9.34435 25.2417 9.84802C25.2417 10.3517 25.6533 10.76 26.161 10.76Z" fill="black"/>
<path fill-rule="evenodd" clip-rule="evenodd" d="M40.8704 14.408C41.3781 14.408 41.7897 13.9997 41.7897 13.496C41.7897 12.9923 41.3781 12.584 40.8704 12.584C40.3626 12.584 39.951 12.9923 39.951 13.496C39.951 13.9997 40.3626 14.408 40.8704 14.408Z" fill="black"/>
<path fill-rule="evenodd" clip-rule="evenodd" d="M22.4837 14.408C22.9914 14.408 23.403 13.9997 23.403 13.496C23.403 12.9923 22.9914 12.584 22.4837 12.584C21.9759 12.584 21.5643 12.9923 21.5643 13.496C21.5643 13.9997 21.9759 14.408 22.4837 14.408Z" fill="black"/>
</svg>
