<svg width="55" height="55" viewBox="0 0 55 55" fill="none" xmlns="http://www.w3.org/2000/svg">
<path d="M27.506 32.207L6.56996 39.6509C5.69249 39.9629 5.68037 41.1995 6.55156 41.5286L27.506 49.4447L48.4603 41.5286C49.3315 41.1995 49.3194 39.9629 48.4419 39.6509L27.506 32.207Z" fill="#F0C200" stroke="black"/>
<mask id="path-2-inside-1_258_807" fill="white">
<path d="M50.4581 13.7523C50.452 13.7301 50.442 13.7102 50.4336 13.6895C50.4168 13.6458 50.3984 13.6037 50.3739 13.5639C50.3601 13.5416 50.3455 13.5217 50.3294 13.501C50.3034 13.4658 50.2743 13.4336 50.2413 13.4037C50.2222 13.3854 50.203 13.3685 50.1816 13.3524C50.1693 13.3432 50.1601 13.3317 50.1478 13.3233C50.1195 13.3041 50.0881 13.2934 50.0582 13.2781C50.0429 13.2704 50.0314 13.2589 50.0153 13.252L27.7978 4.05861C27.6094 3.98046 27.3994 3.98046 27.211 4.05861L4.9935 13.252C4.97741 13.2589 4.96516 13.2704 4.94983 13.2781C4.91996 13.2927 4.88931 13.3041 4.86173 13.3225C4.84947 13.331 4.84028 13.3424 4.82802 13.3516C4.80657 13.3677 4.78818 13.3854 4.76903 13.403C4.73685 13.4329 4.70774 13.465 4.68093 13.5003C4.66484 13.521 4.65028 13.5409 4.63649 13.5631C4.61197 13.6029 4.59359 13.6451 4.57673 13.6887C4.56831 13.7102 4.55835 13.7293 4.55222 13.7516C4.5346 13.819 4.52234 13.8887 4.52234 13.9599V40.7741C4.52234 41.0844 4.70927 41.3641 4.99503 41.482L27.2125 50.6755C27.2225 50.6793 27.2332 50.6778 27.2432 50.6816C27.3282 50.713 27.4155 50.7337 27.5059 50.7337C27.5963 50.7337 27.6837 50.713 27.7687 50.6816C27.7787 50.6778 27.7894 50.6793 27.7994 50.6755L50.0168 41.482C50.3026 41.3641 50.4895 41.0844 50.4895 40.7741V13.9599C50.4895 13.8887 50.4773 13.819 50.4581 13.7523ZM26.7398 48.8207L6.05458 40.2624V15.1061L26.7398 23.6652V48.8207ZM27.5059 22.3244L7.29186 13.9599L27.5059 5.59544L47.72 13.9599L27.5059 22.3244ZM48.9573 40.2624L28.2721 48.8215V23.6652L48.9573 15.1061V40.2624Z"/>
</mask>
<path d="M50.4581 13.7523C50.452 13.7301 50.442 13.7102 50.4336 13.6895C50.4168 13.6458 50.3984 13.6037 50.3739 13.5639C50.3601 13.5416 50.3455 13.5217 50.3294 13.501C50.3034 13.4658 50.2743 13.4336 50.2413 13.4037C50.2222 13.3854 50.203 13.3685 50.1816 13.3524C50.1693 13.3432 50.1601 13.3317 50.1478 13.3233C50.1195 13.3041 50.0881 13.2934 50.0582 13.2781C50.0429 13.2704 50.0314 13.2589 50.0153 13.252L27.7978 4.05861C27.6094 3.98046 27.3994 3.98046 27.211 4.05861L4.9935 13.252C4.97741 13.2589 4.96516 13.2704 4.94983 13.2781C4.91996 13.2927 4.88931 13.3041 4.86173 13.3225C4.84947 13.331 4.84028 13.3424 4.82802 13.3516C4.80657 13.3677 4.78818 13.3854 4.76903 13.403C4.73685 13.4329 4.70774 13.465 4.68093 13.5003C4.66484 13.521 4.65028 13.5409 4.63649 13.5631C4.61197 13.6029 4.59359 13.6451 4.57673 13.6887C4.56831 13.7102 4.55835 13.7293 4.55222 13.7516C4.5346 13.819 4.52234 13.8887 4.52234 13.9599V40.7741C4.52234 41.0844 4.70927 41.3641 4.99503 41.482L27.2125 50.6755C27.2225 50.6793 27.2332 50.6778 27.2432 50.6816C27.3282 50.713 27.4155 50.7337 27.5059 50.7337C27.5963 50.7337 27.6837 50.713 27.7687 50.6816C27.7787 50.6778 27.7894 50.6793 27.7994 50.6755L50.0168 41.482C50.3026 41.3641 50.4895 41.0844 50.4895 40.7741V13.9599C50.4895 13.8887 50.4773 13.819 50.4581 13.7523ZM26.7398 48.8207L6.05458 40.2624V15.1061L26.7398 23.6652V48.8207ZM27.5059 22.3244L7.29186 13.9599L27.5059 5.59544L47.72 13.9599L27.5059 22.3244ZM48.9573 40.2624L28.2721 48.8215V23.6652L48.9573 15.1061V40.2624Z" fill="black"/>
<path d="M50.4581 13.7523L48.5301 14.2842L48.533 14.2944L48.5359 14.3047L50.4581 13.7523ZM50.4336 13.6895L48.5678 14.4097L48.5744 14.4269L48.5814 14.4441L50.4336 13.6895ZM50.3739 13.5639L52.0772 12.5157L52.0731 12.5091L50.3739 13.5639ZM50.3294 13.501L48.7211 14.6898L48.7357 14.7095L48.7507 14.7289L50.3294 13.501ZM50.2413 13.4037L48.8563 14.8465L48.8767 14.8661L48.8977 14.8852L50.2413 13.4037ZM50.1816 13.3524L51.3816 11.7524L50.1816 13.3524ZM50.1478 13.3233L51.2809 11.6752L51.2743 11.6706L51.2676 11.6661L50.1478 13.3233ZM50.0582 13.2781L50.9708 11.4985L50.9618 11.4938L50.9526 11.4892L50.0582 13.2781ZM50.0153 13.252L50.8032 11.4138L50.7916 11.4088L50.78 11.404L50.0153 13.252ZM27.7978 4.05861L27.0318 5.90609L27.0331 5.90664L27.7978 4.05861ZM27.211 4.05861L27.9757 5.90664L27.977 5.90609L27.211 4.05861ZM4.9935 13.252L4.2288 11.404L4.2172 11.4088L4.20566 11.4138L4.9935 13.252ZM4.94983 13.2781L5.82577 15.0761L5.83504 15.0716L5.84426 15.0669L4.94983 13.2781ZM4.86173 13.3225L3.75233 11.6584L3.74044 11.6664L3.72867 11.6744L4.86173 13.3225ZM4.82802 13.3516L3.62802 11.7516H3.62802L4.82802 13.3516ZM4.76903 13.403L3.4149 11.9311L3.40813 11.9374L4.76903 13.403ZM4.68093 13.5003L6.25963 14.7282L6.26615 14.7198L6.27258 14.7113L4.68093 13.5003ZM4.63649 13.5631L2.9372 12.5084L2.93317 12.5149L4.63649 13.5631ZM4.57673 13.6887L6.43827 14.4201L6.44258 14.4089L4.57673 13.6887ZM4.55222 13.7516L2.62423 13.2197L2.62064 13.2327L2.61722 13.2458L4.55222 13.7516ZM4.99503 41.482L5.75974 39.634L5.75828 39.6334L4.99503 41.482ZM27.2125 50.6755L26.4478 52.5235L26.4711 52.5331L26.4946 52.5422L27.2125 50.6755ZM27.2432 50.6816L26.5252 52.5483L26.5377 52.5531L26.5502 52.5577L27.2432 50.6816ZM27.7687 50.6816L28.4617 52.5577L28.4742 52.5531L28.4867 52.5483L27.7687 50.6816ZM27.7994 50.6755L28.5173 52.5422L28.5408 52.5331L28.5641 52.5235L27.7994 50.6755ZM50.0168 41.482L49.2536 39.6334L49.2521 39.634L50.0168 41.482ZM26.7398 48.8207L25.9752 50.6688L28.7398 51.8126V48.8207H26.7398ZM6.05458 40.2624H4.05458V41.5993L5.28996 42.1104L6.05458 40.2624ZM6.05458 15.1061L6.81926 13.258L4.05458 12.1141V15.1061H6.05458ZM26.7398 23.6652H28.7398V22.3283L27.5045 21.8171L26.7398 23.6652ZM27.5059 22.3244L26.7412 24.1725L27.5059 24.4889L28.2706 24.1725L27.5059 22.3244ZM7.29186 13.9599L6.52716 12.1119L2.06111 13.9599L6.52716 15.808L7.29186 13.9599ZM27.5059 5.59544L28.2706 3.74741L27.5059 3.43098L26.7412 3.74741L27.5059 5.59544ZM47.72 13.9599L48.4847 15.808L52.9508 13.9599L48.4847 12.1119L47.72 13.9599ZM48.9573 40.2624L49.722 42.1104L50.9573 41.5993V40.2624H48.9573ZM28.2721 48.8215H26.2721V51.8135L29.0367 50.6695L28.2721 48.8215ZM28.2721 23.6652L27.5074 21.8171L26.2721 22.3283V23.6652H28.2721ZM48.9573 15.1061H50.9573V12.1141L48.1926 13.258L48.9573 15.1061ZM52.3861 13.2205C52.3509 13.0928 52.311 12.9946 52.2929 12.951C52.288 12.9394 52.2838 12.9297 52.2811 12.9233C52.2788 12.9179 52.276 12.9115 52.276 12.9113C52.2739 12.9065 52.2791 12.9186 52.2858 12.9349L48.5814 14.4441C48.5923 14.4708 48.602 14.4931 48.6043 14.4985C48.609 14.5094 48.6048 14.4997 48.6006 14.4896C48.5911 14.4668 48.5592 14.3896 48.5301 14.2842L52.3861 13.2205ZM52.2995 12.9694C52.2649 12.8799 52.1952 12.7075 52.0772 12.5157L48.6705 14.6121C48.6015 14.4999 48.5686 14.4118 48.5678 14.4097L52.2995 12.9694ZM52.0731 12.5091C52.0082 12.4045 51.9473 12.3235 51.9081 12.2732L48.7507 14.7289C48.7437 14.7199 48.7119 14.6787 48.6746 14.6186L52.0731 12.5091ZM51.9378 12.3123C51.8327 12.1701 51.7148 12.04 51.5849 11.9223L48.8977 14.8852C48.8338 14.8272 48.774 14.7615 48.7211 14.6898L51.9378 12.3123ZM51.6264 11.961C51.5659 11.9029 51.4844 11.8295 51.3816 11.7524L48.9816 14.9524C48.9216 14.9074 48.8784 14.8678 48.8563 14.8465L51.6264 11.961ZM51.3816 11.7524C51.4415 11.7974 51.4865 11.8367 51.5115 11.8592C51.5241 11.8705 51.5336 11.8795 51.5379 11.8835C51.5402 11.8857 51.5453 11.8905 51.5394 11.8849C51.5355 11.8812 51.5051 11.8522 51.4661 11.8185C51.4247 11.7826 51.3619 11.7309 51.2809 11.6752L49.0148 14.9714C48.9399 14.9199 48.8828 14.8728 48.847 14.8417C48.8289 14.8261 48.8146 14.813 48.8054 14.8046C48.7967 14.7966 48.7902 14.7904 48.79 14.7902C48.7898 14.79 48.7897 14.7899 48.7901 14.7903C48.7903 14.7905 48.791 14.7911 48.7917 14.7918C48.7932 14.7932 48.7961 14.796 48.7996 14.7993C48.8066 14.8058 48.8189 14.8173 48.8342 14.8311C48.8648 14.8586 48.9155 14.9028 48.9816 14.9524L51.3816 11.7524ZM51.2676 11.6661C51.1184 11.5653 50.9874 11.5044 50.9424 11.4837C50.93 11.4779 50.9193 11.4731 50.9147 11.471C50.9077 11.4679 50.9095 11.4687 50.9104 11.4691C50.9133 11.4704 50.938 11.4816 50.9708 11.4985L49.1456 15.0577C49.1934 15.0823 49.2332 15.1005 49.2513 15.1088C49.2597 15.1126 49.2691 15.1169 49.2698 15.1171C49.2727 15.1185 49.2696 15.1171 49.2648 15.1148C49.2553 15.1105 49.2253 15.0965 49.1863 15.0757C49.1461 15.0543 49.091 15.023 49.0281 14.9805L51.2676 11.6661ZM50.9526 11.4892C51.0373 11.5316 51.1013 11.5715 51.1367 11.5945C51.1544 11.606 51.1678 11.6152 51.1732 11.6189C51.176 11.6208 51.178 11.6222 51.1777 11.622C51.1767 11.6212 51.1784 11.6224 51.1766 11.6212C51.1758 11.6207 51.1746 11.6198 51.1731 11.6188C51.1649 11.6131 51.1202 11.5821 51.0624 11.547C51.0008 11.5097 50.913 11.4608 50.8032 11.4138L49.2275 15.0903C49.1256 15.0467 49.0454 15.0018 48.9909 14.9689C48.9639 14.9525 48.9421 14.9384 48.9275 14.9287C48.9134 14.9193 48.9029 14.9121 48.901 14.9108C48.9005 14.9104 48.8989 14.9094 48.9015 14.9111C48.9029 14.9121 48.9066 14.9147 48.9111 14.9177C48.9199 14.9238 48.9367 14.9353 48.9579 14.949C49.0003 14.9765 49.0715 15.0208 49.1638 15.0669L50.9526 11.4892ZM50.78 11.404L28.5625 2.21057L27.0331 5.90664L49.2506 15.1001L50.78 11.404ZM28.5639 2.21112C27.885 1.92963 27.1239 1.92963 26.445 2.21112L27.977 5.90609C27.675 6.0313 27.3338 6.0313 27.0318 5.90609L28.5639 2.21112ZM26.4463 2.21057L4.2288 11.404L5.75821 15.1001L27.9757 5.90664L26.4463 2.21057ZM4.20566 11.4138C4.1016 11.4584 4.01866 11.504 3.96134 11.538C3.90718 11.5702 3.86519 11.5985 3.85672 11.6042C3.85523 11.6052 3.85397 11.6061 3.85318 11.6066C3.85278 11.6069 3.85241 11.6071 3.85219 11.6073C3.85192 11.6074 3.85182 11.6075 3.85172 11.6076C3.85121 11.6079 3.85281 11.6068 3.85508 11.6053C3.8595 11.6024 3.87135 11.5945 3.88709 11.5845C3.91822 11.5646 3.97719 11.5283 4.05541 11.4892L5.84426 15.0669C5.93014 15.024 5.99639 14.9834 6.03463 14.9591C6.05392 14.9468 6.06929 14.9366 6.0772 14.9313C6.08122 14.9286 6.08457 14.9264 6.0858 14.9255C6.08789 14.9241 6.08674 14.9249 6.08605 14.9254C6.08419 14.9266 6.07448 14.9331 6.06141 14.9416C6.0479 14.9503 6.02775 14.963 6.00275 14.9779C5.95273 15.0076 5.87736 15.0492 5.78134 15.0903L4.20566 11.4138ZM4.0739 11.4801C4.09214 11.4712 4.10536 11.4653 4.09974 11.4679C4.09832 11.4685 4.09784 11.4687 4.09489 11.4701C4.09262 11.4711 4.08923 11.4726 4.08543 11.4744C4.07793 11.4778 4.06637 11.4831 4.05277 11.4895C4.00284 11.513 3.88624 11.5692 3.75233 11.6584L5.97113 14.9866C5.8648 15.0575 5.77732 15.0987 5.75707 15.1083C5.74868 15.1122 5.73869 15.1167 5.75494 15.1093C5.76434 15.1051 5.79259 15.0922 5.82577 15.0761L4.0739 11.4801ZM3.72867 11.6744C3.64766 11.7301 3.58483 11.7819 3.54341 11.8177C3.50449 11.8515 3.47405 11.8805 3.47012 11.8842C3.46422 11.8898 3.46932 11.885 3.47168 11.8827C3.47595 11.8787 3.4855 11.8698 3.49811 11.8584C3.52308 11.8359 3.56805 11.7966 3.62802 11.7516L6.02802 14.9516C6.09412 14.9021 6.14483 14.8579 6.17536 14.8304C6.19074 14.8165 6.20303 14.805 6.21 14.7985C6.21355 14.7952 6.21645 14.7924 6.21793 14.791C6.21865 14.7903 6.21935 14.7897 6.21956 14.7895C6.2199 14.7891 6.21981 14.7892 6.21963 14.7894C6.21938 14.7896 6.21291 14.7958 6.20417 14.8038C6.19504 14.8122 6.1807 14.8253 6.16262 14.8409C6.12675 14.872 6.06967 14.9191 5.99479 14.9706L3.72867 11.6744ZM3.62802 11.7516C3.55702 11.8049 3.50157 11.8528 3.46708 11.8836C3.44997 11.8988 3.43575 11.9119 3.42766 11.9193C3.4237 11.923 3.41976 11.9266 3.418 11.9283C3.4169 11.9293 3.41621 11.9299 3.41565 11.9304C3.41511 11.9309 3.41491 11.9311 3.41492 11.9311L6.12314 14.8748C6.12777 14.8706 6.13194 14.8667 6.13436 14.8645C6.13736 14.8617 6.13817 14.861 6.13896 14.8602C6.14038 14.8589 6.13569 14.8633 6.12825 14.8699C6.1131 14.8834 6.07757 14.9145 6.02802 14.9516L3.62802 11.7516ZM3.40813 11.9374C3.29057 12.0465 3.18447 12.1641 3.08927 12.2892L6.27258 14.7113C6.23101 14.766 6.18314 14.8192 6.12993 14.8686L3.40813 11.9374ZM3.10222 12.2724C3.06305 12.3228 3.00212 12.4038 2.93721 12.5084L6.33577 14.6178C6.29844 14.678 6.26662 14.7192 6.25963 14.7282L3.10222 12.2724ZM2.93317 12.5149C2.81515 12.7067 2.74546 12.879 2.71089 12.9686L6.44258 14.4089C6.44172 14.4111 6.4088 14.4992 6.33981 14.6113L2.93317 12.5149ZM2.71523 12.9574C2.72454 12.9337 2.73196 12.9165 2.73236 12.9156C2.73691 12.905 2.72574 12.9309 2.72001 12.9445C2.70345 12.9839 2.66111 13.086 2.62423 13.2197L6.4802 14.2834C6.44946 14.3949 6.41516 14.4763 6.40721 14.4952C6.40496 14.5005 6.40341 14.5041 6.40374 14.5034C6.40398 14.5028 6.40403 14.5027 6.40493 14.5006C6.4056 14.4991 6.40675 14.4964 6.40806 14.4933C6.41288 14.4821 6.42471 14.4545 6.43824 14.42L2.71523 12.9574ZM2.61722 13.2458C2.57312 13.4146 2.52234 13.6627 2.52234 13.9599H6.52234C6.52234 14.1147 6.49608 14.2234 6.48722 14.2573L2.61722 13.2458ZM2.52234 13.9599V40.7741H6.52234V13.9599H2.52234ZM2.52234 40.7741C2.52234 41.8918 3.1954 42.9028 4.23179 43.3307L5.75828 39.6334C6.22315 39.8253 6.52234 40.277 6.52234 40.7741H2.52234ZM4.23033 43.3301L26.4478 52.5235L27.9772 48.8274L5.75974 39.634L4.23033 43.3301ZM26.4946 52.5422C26.5729 52.5723 26.6452 52.5945 26.7086 52.6112C26.7717 52.6277 26.8268 52.639 26.8704 52.6467C26.9135 52.6544 26.9488 52.6592 26.9708 52.662C26.9819 52.6634 26.9911 52.6645 26.9969 52.6652C26.9999 52.6655 27.0023 52.6658 27.0039 52.666C27.0054 52.6661 27.0068 52.6663 27.0069 52.6663C27.0083 52.6664 27.0049 52.6661 27.0008 52.6656C26.9963 52.6651 26.9884 52.6642 26.9785 52.6629C26.9592 52.6604 26.9264 52.656 26.8859 52.6488C26.8449 52.6415 26.7923 52.6308 26.7317 52.6149C26.6708 52.5989 26.601 52.5775 26.5252 52.5483L27.9611 48.8149C27.8828 48.7848 27.8105 48.7625 27.747 48.7459C27.684 48.7293 27.6288 48.7181 27.5853 48.7104C27.5422 48.7027 27.5068 48.6979 27.4849 48.6951C27.4737 48.6937 27.4646 48.6926 27.4588 48.6919C27.4558 48.6916 27.4533 48.6913 27.4517 48.6911C27.4502 48.6909 27.4489 48.6908 27.4487 48.6908C27.4474 48.6906 27.4508 48.691 27.4549 48.6915C27.4594 48.692 27.4673 48.6929 27.4772 48.6942C27.4965 48.6966 27.5293 48.7011 27.5698 48.7083C27.6108 48.7156 27.6634 48.7263 27.7239 48.7422C27.7848 48.7582 27.8546 48.7796 27.9305 48.8088L26.4946 52.5422ZM26.5502 52.5577C26.7802 52.6427 27.109 52.7337 27.5059 52.7337V48.7337C27.722 48.7337 27.8762 48.7833 27.9361 48.8055L26.5502 52.5577ZM27.5059 52.7337C27.9028 52.7337 28.2316 52.6427 28.4617 52.5577L27.0757 48.8055C27.1357 48.7833 27.2898 48.7337 27.5059 48.7337V52.7337ZM28.4867 52.5483C28.4108 52.5775 28.341 52.5989 28.2801 52.6149C28.2196 52.6308 28.167 52.6415 28.126 52.6488C28.0855 52.656 28.0527 52.6604 28.0334 52.6629C28.0235 52.6642 28.0156 52.6651 28.0111 52.6656C28.007 52.6661 28.0036 52.6664 28.0049 52.6663C28.0051 52.6663 28.0064 52.6661 28.0079 52.666C28.0095 52.6658 28.012 52.6655 28.015 52.6652C28.0208 52.6645 28.0299 52.6634 28.0411 52.662C28.063 52.6592 28.0984 52.6544 28.1415 52.6467C28.185 52.639 28.2402 52.6277 28.3032 52.6112C28.3667 52.5945 28.439 52.5723 28.5173 52.5422L27.0814 48.8088C27.1572 48.7796 27.227 48.7582 27.2879 48.7422C27.3485 48.7263 27.4011 48.7156 27.4421 48.7083C27.4826 48.7011 27.5154 48.6966 27.5347 48.6942C27.5446 48.6929 27.5525 48.692 27.557 48.6915C27.5611 48.691 27.5645 48.6906 27.5631 48.6908C27.563 48.6908 27.5617 48.6909 27.5602 48.6911C27.5585 48.6913 27.5561 48.6916 27.5531 48.6919C27.5473 48.6926 27.5381 48.6937 27.527 48.6951C27.505 48.6979 27.4697 48.7027 27.4266 48.7104C27.383 48.7181 27.3279 48.7293 27.2648 48.7459C27.2014 48.7625 27.1291 48.7848 27.0508 48.8149L28.4867 52.5483ZM28.5641 52.5235L50.7815 43.3301L49.2521 39.634L27.0347 48.8274L28.5641 52.5235ZM50.7801 43.3307C51.8165 42.9028 52.4895 41.8918 52.4895 40.7741H48.4895C48.4895 40.277 48.7887 39.8253 49.2536 39.6334L50.7801 43.3307ZM52.4895 40.7741V13.9599H48.4895V40.7741H52.4895ZM52.4895 13.9599C52.4895 13.6606 52.4383 13.4016 52.3803 13.2L48.5359 14.3047C48.5163 14.2363 48.4895 14.1168 48.4895 13.9599H52.4895ZM27.5044 46.9726L6.8192 38.4143L5.28996 42.1104L25.9752 50.6688L27.5044 46.9726ZM8.05458 40.2624V15.1061H4.05458V40.2624H8.05458ZM5.2899 16.9541L25.9751 25.5132L27.5045 21.8171L6.81926 13.258L5.2899 16.9541ZM24.7398 23.6652V48.8207H28.7398V23.6652H24.7398ZM28.2706 20.4764L8.05657 12.1119L6.52716 15.808L26.7412 24.1725L28.2706 20.4764ZM8.05657 15.808L28.2706 7.44348L26.7412 3.74741L6.52716 12.1119L8.05657 15.808ZM26.7412 7.44348L46.9553 15.808L48.4847 12.1119L28.2706 3.74741L26.7412 7.44348ZM46.9553 12.1119L26.7412 20.4764L28.2706 24.1725L48.4847 15.808L46.9553 12.1119ZM48.1926 38.4143L27.5074 46.9734L29.0367 50.6695L49.722 42.1104L48.1926 38.4143ZM30.2721 48.8215V23.6652H26.2721V48.8215H30.2721ZM29.0367 25.5132L49.722 16.9541L48.1926 13.258L27.5074 21.8171L29.0367 25.5132ZM46.9573 15.1061V40.2624H50.9573V15.1061H46.9573Z" fill="black" mask="url(#path-2-inside-1_258_807)"/>
<path d="M50.4581 13.7523L48.5301 14.2842L48.533 14.2944L48.5359 14.3047L50.4581 13.7523ZM50.4336 13.6895L48.5678 14.4097L48.5744 14.4269L48.5814 14.4441L50.4336 13.6895ZM50.3739 13.5639L52.0772 12.5157L52.0731 12.5091L50.3739 13.5639ZM50.3294 13.501L48.7211 14.6898L48.7357 14.7095L48.7507 14.7289L50.3294 13.501ZM50.2413 13.4037L48.8563 14.8465L48.8767 14.8661L48.8977 14.8852L50.2413 13.4037ZM50.1816 13.3524L51.3816 11.7524L50.1816 13.3524ZM50.1478 13.3233L51.2809 11.6752L51.2743 11.6706L51.2676 11.6661L50.1478 13.3233ZM50.0582 13.2781L50.9708 11.4985L50.9618 11.4938L50.9526 11.4892L50.0582 13.2781ZM50.0153 13.252L50.8032 11.4138L50.7916 11.4088L50.78 11.404L50.0153 13.252ZM27.7978 4.05861L27.0318 5.90609L27.0331 5.90664L27.7978 4.05861ZM27.211 4.05861L27.9757 5.90664L27.977 5.90609L27.211 4.05861ZM4.9935 13.252L4.2288 11.404L4.2172 11.4088L4.20566 11.4138L4.9935 13.252ZM4.94983 13.2781L5.82577 15.0761L5.83504 15.0716L5.84426 15.0669L4.94983 13.2781ZM4.86173 13.3225L3.75233 11.6584L3.74044 11.6664L3.72867 11.6744L4.86173 13.3225ZM4.82802 13.3516L3.62802 11.7516H3.62802L4.82802 13.3516ZM4.76903 13.403L3.4149 11.9311L3.40813 11.9374L4.76903 13.403ZM4.68093 13.5003L6.25963 14.7282L6.26615 14.7198L6.27258 14.7113L4.68093 13.5003ZM4.63649 13.5631L2.9372 12.5084L2.93317 12.5149L4.63649 13.5631ZM4.57673 13.6887L6.43827 14.4201L6.44258 14.4089L4.57673 13.6887ZM4.55222 13.7516L2.62423 13.2197L2.62064 13.2327L2.61722 13.2458L4.55222 13.7516ZM4.99503 41.482L5.75974 39.634L5.75828 39.6334L4.99503 41.482ZM27.2125 50.6755L26.4478 52.5235L26.4711 52.5331L26.4946 52.5422L27.2125 50.6755ZM27.2432 50.6816L26.5252 52.5483L26.5377 52.5531L26.5502 52.5577L27.2432 50.6816ZM27.7687 50.6816L28.4617 52.5577L28.4742 52.5531L28.4867 52.5483L27.7687 50.6816ZM27.7994 50.6755L28.5173 52.5422L28.5408 52.5331L28.5641 52.5235L27.7994 50.6755ZM50.0168 41.482L49.2536 39.6334L49.2521 39.634L50.0168 41.482ZM26.7398 48.8207L25.9752 50.6688L28.7398 51.8126V48.8207H26.7398ZM6.05458 40.2624H4.05458V41.5993L5.28996 42.1104L6.05458 40.2624ZM6.05458 15.1061L6.81926 13.258L4.05458 12.1141V15.1061H6.05458ZM26.7398 23.6652H28.7398V22.3283L27.5045 21.8171L26.7398 23.6652ZM27.5059 22.3244L26.7412 24.1725L27.5059 24.4889L28.2706 24.1725L27.5059 22.3244ZM7.29186 13.9599L6.52716 12.1119L2.06111 13.9599L6.52716 15.808L7.29186 13.9599ZM27.5059 5.59544L28.2706 3.74741L27.5059 3.43098L26.7412 3.74741L27.5059 5.59544ZM47.72 13.9599L48.4847 15.808L52.9508 13.9599L48.4847 12.1119L47.72 13.9599ZM48.9573 40.2624L49.722 42.1104L50.9573 41.5993V40.2624H48.9573ZM28.2721 48.8215H26.2721V51.8135L29.0367 50.6695L28.2721 48.8215ZM28.2721 23.6652L27.5074 21.8171L26.2721 22.3283V23.6652H28.2721ZM48.9573 15.1061H50.9573V12.1141L48.1926 13.258L48.9573 15.1061ZM52.3861 13.2205C52.3509 13.0928 52.311 12.9946 52.2929 12.951C52.288 12.9394 52.2838 12.9297 52.2811 12.9233C52.2788 12.9179 52.276 12.9115 52.276 12.9113C52.2739 12.9065 52.2791 12.9186 52.2858 12.9349L48.5814 14.4441C48.5923 14.4708 48.602 14.4931 48.6043 14.4985C48.609 14.5094 48.6048 14.4997 48.6006 14.4896C48.5911 14.4668 48.5592 14.3896 48.5301 14.2842L52.3861 13.2205ZM52.2995 12.9694C52.2649 12.8799 52.1952 12.7075 52.0772 12.5157L48.6705 14.6121C48.6015 14.4999 48.5686 14.4118 48.5678 14.4097L52.2995 12.9694ZM52.0731 12.5091C52.0082 12.4045 51.9473 12.3235 51.9081 12.2732L48.7507 14.7289C48.7437 14.7199 48.7119 14.6787 48.6746 14.6186L52.0731 12.5091ZM51.9378 12.3123C51.8327 12.1701 51.7148 12.04 51.5849 11.9223L48.8977 14.8852C48.8338 14.8272 48.774 14.7615 48.7211 14.6898L51.9378 12.3123ZM51.6264 11.961C51.5659 11.9029 51.4844 11.8295 51.3816 11.7524L48.9816 14.9524C48.9216 14.9074 48.8784 14.8678 48.8563 14.8465L51.6264 11.961ZM51.3816 11.7524C51.4415 11.7974 51.4865 11.8367 51.5115 11.8592C51.5241 11.8705 51.5336 11.8795 51.5379 11.8835C51.5402 11.8857 51.5453 11.8905 51.5394 11.8849C51.5355 11.8812 51.5051 11.8522 51.4661 11.8185C51.4247 11.7826 51.3619 11.7309 51.2809 11.6752L49.0148 14.9714C48.9399 14.9199 48.8828 14.8728 48.847 14.8417C48.8289 14.8261 48.8146 14.813 48.8054 14.8046C48.7967 14.7966 48.7902 14.7904 48.79 14.7902C48.7898 14.79 48.7897 14.7899 48.7901 14.7903C48.7903 14.7905 48.791 14.7911 48.7917 14.7918C48.7932 14.7932 48.7961 14.796 48.7996 14.7993C48.8066 14.8058 48.8189 14.8173 48.8342 14.8311C48.8648 14.8586 48.9155 14.9028 48.9816 14.9524L51.3816 11.7524ZM51.2676 11.6661C51.1184 11.5653 50.9874 11.5044 50.9424 11.4837C50.93 11.4779 50.9193 11.4731 50.9147 11.471C50.9077 11.4679 50.9095 11.4687 50.9104 11.4691C50.9133 11.4704 50.938 11.4816 50.9708 11.4985L49.1456 15.0577C49.1934 15.0823 49.2332 15.1005 49.2513 15.1088C49.2597 15.1126 49.2691 15.1169 49.2698 15.1171C49.2727 15.1185 49.2696 15.1171 49.2648 15.1148C49.2553 15.1105 49.2253 15.0965 49.1863 15.0757C49.1461 15.0543 49.091 15.023 49.0281 14.9805L51.2676 11.6661ZM50.9526 11.4892C51.0373 11.5316 51.1013 11.5715 51.1367 11.5945C51.1544 11.606 51.1678 11.6152 51.1732 11.6189C51.176 11.6208 51.178 11.6222 51.1777 11.622C51.1767 11.6212 51.1784 11.6224 51.1766 11.6212C51.1758 11.6207 51.1746 11.6198 51.1731 11.6188C51.1649 11.6131 51.1202 11.5821 51.0624 11.547C51.0008 11.5097 50.913 11.4608 50.8032 11.4138L49.2275 15.0903C49.1256 15.0467 49.0454 15.0018 48.9909 14.9689C48.9639 14.9525 48.9421 14.9384 48.9275 14.9287C48.9134 14.9193 48.9029 14.9121 48.901 14.9108C48.9005 14.9104 48.8989 14.9094 48.9015 14.9111C48.9029 14.9121 48.9066 14.9147 48.9111 14.9177C48.9199 14.9238 48.9367 14.9353 48.9579 14.949C49.0003 14.9765 49.0715 15.0208 49.1638 15.0669L50.9526 11.4892ZM50.78 11.404L28.5625 2.21057L27.0331 5.90664L49.2506 15.1001L50.78 11.404ZM28.5639 2.21112C27.885 1.92963 27.1239 1.92963 26.445 2.21112L27.977 5.90609C27.675 6.0313 27.3338 6.0313 27.0318 5.90609L28.5639 2.21112ZM26.4463 2.21057L4.2288 11.404L5.75821 15.1001L27.9757 5.90664L26.4463 2.21057ZM4.20566 11.4138C4.1016 11.4584 4.01866 11.504 3.96134 11.538C3.90718 11.5702 3.86519 11.5985 3.85672 11.6042C3.85523 11.6052 3.85397 11.6061 3.85318 11.6066C3.85278 11.6069 3.85241 11.6071 3.85219 11.6073C3.85192 11.6074 3.85182 11.6075 3.85172 11.6076C3.85121 11.6079 3.85281 11.6068 3.85508 11.6053C3.8595 11.6024 3.87135 11.5945 3.88709 11.5845C3.91822 11.5646 3.97719 11.5283 4.05541 11.4892L5.84426 15.0669C5.93014 15.024 5.99639 14.9834 6.03463 14.9591C6.05392 14.9468 6.06929 14.9366 6.0772 14.9313C6.08122 14.9286 6.08457 14.9264 6.0858 14.9255C6.08789 14.9241 6.08674 14.9249 6.08605 14.9254C6.08419 14.9266 6.07448 14.9331 6.06141 14.9416C6.0479 14.9503 6.02775 14.963 6.00275 14.9779C5.95273 15.0076 5.87736 15.0492 5.78134 15.0903L4.20566 11.4138ZM4.0739 11.4801C4.09214 11.4712 4.10536 11.4653 4.09974 11.4679C4.09832 11.4685 4.09784 11.4687 4.09489 11.4701C4.09262 11.4711 4.08923 11.4726 4.08543 11.4744C4.07793 11.4778 4.06637 11.4831 4.05277 11.4895C4.00284 11.513 3.88624 11.5692 3.75233 11.6584L5.97113 14.9866C5.8648 15.0575 5.77732 15.0987 5.75707 15.1083C5.74868 15.1122 5.73869 15.1167 5.75494 15.1093C5.76434 15.1051 5.79259 15.0922 5.82577 15.0761L4.0739 11.4801ZM3.72867 11.6744C3.64766 11.7301 3.58483 11.7819 3.54341 11.8177C3.50449 11.8515 3.47405 11.8805 3.47012 11.8842C3.46422 11.8898 3.46932 11.885 3.47168 11.8827C3.47595 11.8787 3.4855 11.8698 3.49811 11.8584C3.52308 11.8359 3.56805 11.7966 3.62802 11.7516L6.02802 14.9516C6.09412 14.9021 6.14483 14.8579 6.17536 14.8304C6.19074 14.8165 6.20303 14.805 6.21 14.7985C6.21355 14.7952 6.21645 14.7924 6.21793 14.791C6.21865 14.7903 6.21935 14.7897 6.21956 14.7895C6.2199 14.7891 6.21981 14.7892 6.21963 14.7894C6.21938 14.7896 6.21291 14.7958 6.20417 14.8038C6.19504 14.8122 6.1807 14.8253 6.16262 14.8409C6.12675 14.872 6.06967 14.9191 5.99479 14.9706L3.72867 11.6744ZM3.62802 11.7516C3.55702 11.8049 3.50157 11.8528 3.46708 11.8836C3.44997 11.8988 3.43575 11.9119 3.42766 11.9193C3.4237 11.923 3.41976 11.9266 3.418 11.9283C3.4169 11.9293 3.41621 11.9299 3.41565 11.9304C3.41511 11.9309 3.41491 11.9311 3.41492 11.9311L6.12314 14.8748C6.12777 14.8706 6.13194 14.8667 6.13436 14.8645C6.13736 14.8617 6.13817 14.861 6.13896 14.8602C6.14038 14.8589 6.13569 14.8633 6.12825 14.8699C6.1131 14.8834 6.07757 14.9145 6.02802 14.9516L3.62802 11.7516ZM3.40813 11.9374C3.29057 12.0465 3.18447 12.1641 3.08927 12.2892L6.27258 14.7113C6.23101 14.766 6.18314 14.8192 6.12993 14.8686L3.40813 11.9374ZM3.10222 12.2724C3.06305 12.3228 3.00212 12.4038 2.93721 12.5084L6.33577 14.6178C6.29844 14.678 6.26662 14.7192 6.25963 14.7282L3.10222 12.2724ZM2.93317 12.5149C2.81515 12.7067 2.74546 12.879 2.71089 12.9686L6.44258 14.4089C6.44172 14.4111 6.4088 14.4992 6.33981 14.6113L2.93317 12.5149ZM2.71523 12.9574C2.72454 12.9337 2.73196 12.9165 2.73236 12.9156C2.73691 12.905 2.72574 12.9309 2.72001 12.9445C2.70345 12.9839 2.66111 13.086 2.62423 13.2197L6.4802 14.2834C6.44946 14.3949 6.41516 14.4763 6.40721 14.4952C6.40496 14.5005 6.40341 14.5041 6.40374 14.5034C6.40398 14.5028 6.40403 14.5027 6.40493 14.5006C6.4056 14.4991 6.40675 14.4964 6.40806 14.4933C6.41288 14.4821 6.42471 14.4545 6.43824 14.42L2.71523 12.9574ZM2.61722 13.2458C2.57312 13.4146 2.52234 13.6627 2.52234 13.9599H6.52234C6.52234 14.1147 6.49608 14.2234 6.48722 14.2573L2.61722 13.2458ZM2.52234 13.9599V40.7741H6.52234V13.9599H2.52234ZM2.52234 40.7741C2.52234 41.8918 3.1954 42.9028 4.23179 43.3307L5.75828 39.6334C6.22315 39.8253 6.52234 40.277 6.52234 40.7741H2.52234ZM4.23033 43.3301L26.4478 52.5235L27.9772 48.8274L5.75974 39.634L4.23033 43.3301ZM26.4946 52.5422C26.5729 52.5723 26.6452 52.5945 26.7086 52.6112C26.7717 52.6277 26.8268 52.639 26.8704 52.6467C26.9135 52.6544 26.9488 52.6592 26.9708 52.662C26.9819 52.6634 26.9911 52.6645 26.9969 52.6652C26.9999 52.6655 27.0023 52.6658 27.0039 52.666C27.0054 52.6661 27.0068 52.6663 27.0069 52.6663C27.0083 52.6664 27.0049 52.6661 27.0008 52.6656C26.9963 52.6651 26.9884 52.6642 26.9785 52.6629C26.9592 52.6604 26.9264 52.656 26.8859 52.6488C26.8449 52.6415 26.7923 52.6308 26.7317 52.6149C26.6708 52.5989 26.601 52.5775 26.5252 52.5483L27.9611 48.8149C27.8828 48.7848 27.8105 48.7625 27.747 48.7459C27.684 48.7293 27.6288 48.7181 27.5853 48.7104C27.5422 48.7027 27.5068 48.6979 27.4849 48.6951C27.4737 48.6937 27.4646 48.6926 27.4588 48.6919C27.4558 48.6916 27.4533 48.6913 27.4517 48.6911C27.4502 48.6909 27.4489 48.6908 27.4487 48.6908C27.4474 48.6906 27.4508 48.691 27.4549 48.6915C27.4594 48.692 27.4673 48.6929 27.4772 48.6942C27.4965 48.6966 27.5293 48.7011 27.5698 48.7083C27.6108 48.7156 27.6634 48.7263 27.7239 48.7422C27.7848 48.7582 27.8546 48.7796 27.9305 48.8088L26.4946 52.5422ZM26.5502 52.5577C26.7802 52.6427 27.109 52.7337 27.5059 52.7337V48.7337C27.722 48.7337 27.8762 48.7833 27.9361 48.8055L26.5502 52.5577ZM27.5059 52.7337C27.9028 52.7337 28.2316 52.6427 28.4617 52.5577L27.0757 48.8055C27.1357 48.7833 27.2898 48.7337 27.5059 48.7337V52.7337ZM28.4867 52.5483C28.4108 52.5775 28.341 52.5989 28.2801 52.6149C28.2196 52.6308 28.167 52.6415 28.126 52.6488C28.0855 52.656 28.0527 52.6604 28.0334 52.6629C28.0235 52.6642 28.0156 52.6651 28.0111 52.6656C28.007 52.6661 28.0036 52.6664 28.0049 52.6663C28.0051 52.6663 28.0064 52.6661 28.0079 52.666C28.0095 52.6658 28.012 52.6655 28.015 52.6652C28.0208 52.6645 28.0299 52.6634 28.0411 52.662C28.063 52.6592 28.0984 52.6544 28.1415 52.6467C28.185 52.639 28.2402 52.6277 28.3032 52.6112C28.3667 52.5945 28.439 52.5723 28.5173 52.5422L27.0814 48.8088C27.1572 48.7796 27.227 48.7582 27.2879 48.7422C27.3485 48.7263 27.4011 48.7156 27.4421 48.7083C27.4826 48.7011 27.5154 48.6966 27.5347 48.6942C27.5446 48.6929 27.5525 48.692 27.557 48.6915C27.5611 48.691 27.5645 48.6906 27.5631 48.6908C27.563 48.6908 27.5617 48.6909 27.5602 48.6911C27.5585 48.6913 27.5561 48.6916 27.5531 48.6919C27.5473 48.6926 27.5381 48.6937 27.527 48.6951C27.505 48.6979 27.4697 48.7027 27.4266 48.7104C27.383 48.7181 27.3279 48.7293 27.2648 48.7459C27.2014 48.7625 27.1291 48.7848 27.0508 48.8149L28.4867 52.5483ZM28.5641 52.5235L50.7815 43.3301L49.2521 39.634L27.0347 48.8274L28.5641 52.5235ZM50.7801 43.3307C51.8165 42.9028 52.4895 41.8918 52.4895 40.7741H48.4895C48.4895 40.277 48.7887 39.8253 49.2536 39.6334L50.7801 43.3307ZM52.4895 40.7741V13.9599H48.4895V40.7741H52.4895ZM52.4895 13.9599C52.4895 13.6606 52.4383 13.4016 52.3803 13.2L48.5359 14.3047C48.5163 14.2363 48.4895 14.1168 48.4895 13.9599H52.4895ZM27.5044 46.9726L6.8192 38.4143L5.28996 42.1104L25.9752 50.6688L27.5044 46.9726ZM8.05458 40.2624V15.1061H4.05458V40.2624H8.05458ZM5.2899 16.9541L25.9751 25.5132L27.5045 21.8171L6.81926 13.258L5.2899 16.9541ZM24.7398 23.6652V48.8207H28.7398V23.6652H24.7398ZM28.2706 20.4764L8.05657 12.1119L6.52716 15.808L26.7412 24.1725L28.2706 20.4764ZM8.05657 15.808L28.2706 7.44348L26.7412 3.74741L6.52716 12.1119L8.05657 15.808ZM26.7412 7.44348L46.9553 15.808L48.4847 12.1119L28.2706 3.74741L26.7412 7.44348ZM46.9553 12.1119L26.7412 20.4764L28.2706 24.1725L48.4847 15.808L46.9553 12.1119ZM48.1926 38.4143L27.5074 46.9734L29.0367 50.6695L49.722 42.1104L48.1926 38.4143ZM30.2721 48.8215V23.6652H26.2721V48.8215H30.2721ZM29.0367 25.5132L49.722 16.9541L48.1926 13.258L27.5074 21.8171L29.0367 25.5132ZM46.9573 15.1061V40.2624H50.9573V15.1061H46.9573Z" fill="black" mask="url(#path-2-inside-1_258_807)"/>
<path d="M5.5 14L27.5 23M5.5 14L27.1214 5.1549C27.364 5.05562 27.636 5.05562 27.8786 5.15489L49.5 14M5.5 14V39.8426C5.5 40.2416 5.73723 40.6024 6.10356 40.7606L27.5 50M27.5 23L49.5 14M27.5 23V50M49.5 14V39.8426C49.5 40.2416 49.2628 40.6024 48.8964 40.7606L27.5 50" stroke="black" stroke-width="1.5"/>
</svg>
