<svg width="57" height="57" viewBox="0 0 57 57" fill="none" xmlns="http://www.w3.org/2000/svg">
<path d="M3.43341 15.3196C3.35383 15.1576 3.31602 14.9781 3.32342 14.7977C3.33082 14.6173 3.38319 14.4416 3.47578 14.2866C3.56837 14.1315 3.69823 14.0021 3.85357 13.91C4.0089 13.818 4.18479 13.7662 4.36523 13.7594C4.54621 13.7513 4.72633 13.7887 4.88912 13.8682C5.05191 13.9477 5.19216 14.0668 5.29705 14.2145C5.70629 14.6985 6.2167 15.0868 6.79231 15.3522M3.43341 15.3196L3.51431 15.2609C3.51603 15.2632 3.51775 15.2656 3.51948 15.268M3.43341 15.3196L3.52317 15.2756C3.52193 15.273 3.5207 15.2705 3.51948 15.268M3.43341 15.3196C4.02391 16.1324 4.80535 16.7873 5.70879 17.2266C6.81398 17.8659 7.33407 18.2235 7.33407 18.8086C7.33407 19.3937 6.85732 19.7296 5.70879 20.4013L5.70432 20.404C4.55622 21.0755 3 21.9857 3 23.8686C3 25.7426 4.58443 26.6745 5.68886 27.3241L5.70879 27.3358C6.81398 27.986 7.33407 28.3652 7.33407 28.9286C7.33407 29.492 6.85732 29.8388 5.70879 30.5105L5.70433 30.5132C4.55622 31.1847 3 32.0949 3 33.9778C3 35.8518 4.58443 36.7837 5.68886 37.4333L5.70879 37.4451C6.81398 38.0952 7.33407 38.4636 7.33407 39.0378C7.33407 39.6121 6.79231 39.9805 5.70879 40.6306C4.80535 41.0699 4.02391 41.7248 3.43341 42.5376M3.51948 15.268C3.44977 15.1228 3.41673 14.9628 3.42334 14.8018C3.43005 14.6381 3.47759 14.4786 3.56163 14.3378C3.64568 14.1971 3.76355 14.0796 3.90455 13.9961C4.04555 13.9125 4.20521 13.8655 4.369 13.8593L4.3697 13.8593C4.53398 13.8519 4.69747 13.8859 4.84524 13.9581C4.993 14.0302 5.12031 14.1383 5.21552 14.2724L5.22042 14.2793L5.22069 14.279C5.63839 14.773 6.15912 15.1697 6.74632 15.4411M3.51948 15.268C4.09973 16.0641 4.86648 16.7058 5.75252 17.1367L5.75264 17.1365L5.75886 17.1401C6.3097 17.4587 6.72556 17.713 7.00294 17.9637C7.28447 18.2183 7.43407 18.4789 7.43407 18.8086C7.43407 19.1363 7.29713 19.3916 7.01973 19.6461C6.74767 19.8958 6.33154 20.1529 5.75928 20.4877C4.60101 21.1651 3.1 22.0487 3.1 23.8686C3.1 25.6853 4.63857 26.5903 5.75382 27.2463L5.75949 27.2497C6.31092 27.574 6.72637 27.8363 7.00355 28.0911C7.28392 28.3488 7.43407 28.6092 7.43407 28.9286C7.43407 29.2464 7.29633 29.4988 7.01973 29.7526C6.74778 30.0022 6.33194 30.2619 5.75928 30.5969C4.60101 31.2743 3.1 32.1579 3.1 33.9778C3.1 35.7945 4.63857 36.6995 5.75382 37.3555L5.75949 37.3589C6.31057 37.683 6.72616 37.9427 7.00335 38.1961C7.2842 38.4528 7.43407 38.7133 7.43407 39.0378C7.43407 39.3635 7.27759 39.624 6.99485 39.8799C6.71536 40.1328 6.30007 40.3924 5.76024 40.7163L5.76044 40.7167L5.75253 40.7205C4.86648 41.1514 4.09973 41.7931 3.51948 42.5893M6.74632 15.4411C6.74502 15.4403 6.74373 15.4396 6.74243 15.4388L6.79231 15.3522M6.74632 15.4411C6.7477 15.4417 6.74907 15.4423 6.75044 15.443L6.79231 15.3522M6.74632 15.4411C7.90348 16.107 9.4011 16.9909 9.4011 18.8086C9.4011 20.6285 7.89965 21.5232 6.74243 22.1891C6.16975 22.5187 5.75349 22.7759 5.48116 23.0272C5.20371 23.2832 5.06703 23.5411 5.06703 23.8686C5.06703 24.1983 5.21663 24.4589 5.49816 24.7134C5.77554 24.9642 6.1914 25.2185 6.74224 25.5371C7.85663 26.1817 9.4011 27.0979 9.4011 28.9286C9.4011 30.7542 7.9087 31.6271 6.75154 32.3039L6.74182 32.3095C6.16956 32.6443 5.75343 32.9014 5.48137 33.1511C5.20397 33.4056 5.06703 33.6609 5.06703 33.9886C5.06703 34.3183 5.21663 34.5789 5.49796 34.8346C5.77516 35.0866 6.1909 35.3437 6.74161 35.6676L6.74729 35.6709C7.86253 36.327 9.4011 37.232 9.4011 39.0487C9.4011 40.866 7.90441 41.7496 6.74683 42.4267M6.79231 15.3522C7.94084 16.0131 9.5011 16.9233 9.5011 18.8086C9.5011 20.6939 7.94084 21.6149 6.79231 22.2758C5.64378 22.9368 5.16703 23.2835 5.16703 23.8686C5.16703 24.4537 5.68712 24.8113 6.79231 25.4505C7.89749 26.0898 9.5011 27.0325 9.5011 28.9286C9.5011 30.8117 7.96227 31.7116 6.81612 32.3819L6.79231 32.3959C5.64378 33.0676 5.16703 33.4035 5.16703 33.9886C5.16703 34.5737 5.68712 34.9313 6.79231 35.5814L6.81224 35.5931C7.91667 36.2427 9.5011 37.1746 9.5011 39.0487C9.5011 40.9315 7.94488 41.8418 6.79678 42.5133L6.79231 42.5159M6.79231 42.5159L6.75223 42.4243C6.75043 42.4251 6.74862 42.4259 6.74683 42.4267M6.79231 42.5159C6.22184 42.7655 5.71185 43.135 5.29706 43.5994C5.1972 43.7551 5.05914 43.8827 4.89603 43.9699C4.73291 44.0572 4.55018 44.1012 4.36523 44.0978M6.79231 42.5159L6.74182 42.4296C6.74349 42.4286 6.74516 42.4276 6.74683 42.4267M6.74683 42.4267C6.16538 42.682 5.64554 43.0592 5.22248 43.5328L5.21717 43.5387L5.21288 43.5454C5.12224 43.6868 4.99692 43.8026 4.84886 43.8818C4.7011 43.9608 4.5356 44.0008 4.36807 43.9979M4.36807 43.9979C4.36838 43.9979 4.36869 43.9979 4.369 43.9979L4.36523 44.0978M4.36807 43.9979C4.36773 43.9979 4.36739 43.9979 4.36706 43.9979L4.36523 44.0978M4.36807 43.9979C4.2046 43.9916 4.04529 43.9446 3.90456 43.8612C3.76355 43.7776 3.64568 43.6601 3.56164 43.5194C3.47759 43.3787 3.43005 43.2192 3.42334 43.0554C3.41673 42.8944 3.44977 42.7344 3.51948 42.5893M4.36523 44.0978C4.18479 44.091 4.0089 44.0393 3.85357 43.9472C3.69823 43.8551 3.56837 43.7257 3.47578 43.5707C3.38319 43.4156 3.33082 43.2399 3.32342 43.0595C3.31602 42.8791 3.35383 42.6997 3.43341 42.5376M3.43341 42.5376L3.51431 42.5964C3.51603 42.594 3.51776 42.5916 3.51948 42.5893M3.43341 42.5376L3.52317 42.5817C3.52193 42.5842 3.5207 42.5867 3.51948 42.5893" fill="black" stroke="white" stroke-width="0.2"/>
<path d="M10.2646 14.5613C10.185 14.3993 10.1472 14.2198 10.1546 14.0394C10.162 13.859 10.2144 13.6833 10.307 13.5283C10.3995 13.3732 10.5294 13.2438 10.6847 13.1517C10.8401 13.0597 11.016 13.0079 11.1964 13.0011C11.3774 12.993 11.5575 13.0304 11.7203 13.1099C11.8831 13.1894 12.0233 13.3085 12.1282 13.4562C12.5375 13.9402 13.0479 14.3285 13.6235 14.5939M10.2646 14.5613L10.3455 14.5026C10.3472 14.5049 10.3489 14.5073 10.3507 14.5097M10.2646 14.5613L10.3543 14.5173C10.3531 14.5147 10.3519 14.5122 10.3507 14.5097M10.2646 14.5613C10.8551 15.3741 11.6365 16.029 12.54 16.4683C13.6452 17.1076 14.1652 17.4652 14.1652 18.0503C14.1652 18.6354 13.6885 18.9713 12.54 19.643L12.5355 19.6457C11.3874 20.3172 9.83118 21.2274 9.83118 23.1103C9.83118 24.9843 11.4156 25.9162 12.52 26.5658L12.54 26.5775C13.6452 27.2277 14.1652 27.6069 14.1652 28.1703C14.1652 28.7337 13.6885 29.0805 12.54 29.7522L12.5355 29.7549C11.3874 30.4264 9.83118 31.3366 9.83118 33.2195C9.83118 35.0935 11.4156 36.0254 12.52 36.675L12.54 36.6868C13.6452 37.3369 14.1652 37.7053 14.1652 38.2795C14.1652 38.8538 13.6235 39.2222 12.54 39.8723C11.6365 40.3116 10.8551 40.9665 10.2646 41.7793M10.3507 14.5097C10.2809 14.3645 10.2479 14.2045 10.2545 14.0435C10.2612 13.8798 10.3088 13.7203 10.3928 13.5795C10.4769 13.4388 10.5947 13.3213 10.7357 13.2378C10.8767 13.1542 11.0364 13.1072 11.2002 13.101L11.2009 13.101C11.3652 13.0936 11.5287 13.1276 11.6764 13.1998C11.8242 13.2719 11.9515 13.38 12.0467 13.5141L12.0516 13.521L12.0519 13.5207C12.4696 14.0147 12.9903 14.4114 13.5775 14.6828M10.3507 14.5097C10.9309 15.3058 11.6977 15.9475 12.5837 16.3784L12.5838 16.3782L12.59 16.3818C13.1409 16.7004 13.5567 16.9547 13.8341 17.2054C14.1156 17.46 14.2652 17.7206 14.2652 18.0503C14.2652 18.378 14.1283 18.6333 13.8509 18.8878C13.5788 19.1375 13.1627 19.3946 12.5905 19.7294C11.4322 20.4068 9.93118 21.2904 9.93118 23.1103C9.93118 24.927 11.4697 25.832 12.585 26.488L12.5907 26.4914C13.1421 26.8157 13.5575 27.078 13.8347 27.3328C14.1151 27.5905 14.2652 27.8509 14.2652 28.1703C14.2652 28.4881 14.1275 28.7405 13.8509 28.9943C13.579 29.2439 13.1631 29.5036 12.5905 29.8386C11.4322 30.516 9.93118 31.3996 9.93118 33.2195C9.93118 35.0362 11.4697 35.9412 12.585 36.5972L12.5907 36.6006C13.1417 36.9247 13.5573 37.1844 13.8345 37.4378C14.1154 37.6945 14.2652 37.955 14.2652 38.2795C14.2652 38.6052 14.1088 38.8657 13.826 39.1216C13.5465 39.3745 13.1313 39.6341 12.5914 39.958L12.5916 39.9584L12.5837 39.9622C11.6983 40.3928 10.9321 41.0338 10.352 41.8292M13.5775 14.6828C13.5762 14.682 13.5749 14.6813 13.5736 14.6805L13.6235 14.5939M13.5775 14.6828C13.5789 14.6834 13.5802 14.684 13.5816 14.6847L13.6235 14.5939M13.5775 14.6828C14.7347 15.3487 16.2323 16.2326 16.2323 18.0503C16.2323 19.8702 14.7308 20.7649 13.5736 21.4308C13.0009 21.7604 12.5847 22.0176 12.3123 22.2689C12.0349 22.5249 11.8982 22.7828 11.8982 23.1103C11.8982 23.44 12.0478 23.7006 12.3293 23.9551C12.6067 24.2059 13.0226 24.4602 13.5734 24.7788C14.6878 25.4234 16.2323 26.3396 16.2323 28.1703C16.2323 29.9959 14.7399 30.8688 13.5827 31.5456L13.573 31.5512C13.0007 31.886 12.5846 32.1431 12.3125 32.3928C12.0351 32.6473 11.8982 32.9026 11.8982 33.2303C11.8982 33.56 12.0478 33.8206 12.3291 34.0763C12.6063 34.3283 13.0221 34.5853 13.5728 34.9093L13.5785 34.9126C14.6937 35.5687 16.2323 36.4737 16.2323 38.2904C16.2323 40.1077 14.7356 40.9913 13.578 41.6684M13.6235 14.5939C14.772 15.2548 16.3323 16.1649 16.3323 18.0503C16.3323 19.9356 14.772 20.8566 13.6235 21.5175C12.475 22.1785 11.9982 22.5252 11.9982 23.1103C11.9982 23.6954 12.5183 24.0529 13.6235 24.6922C14.7287 25.3315 16.3323 26.2742 16.3323 28.1703C16.3323 30.0534 14.7934 30.9533 13.6473 31.6236L13.6235 31.6376C12.475 32.3093 11.9982 32.6452 11.9982 33.2303C11.9982 33.8154 12.5183 34.173 13.6235 34.8231L13.6434 34.8348C14.7478 35.4844 16.3323 36.4163 16.3323 38.2904C16.3323 40.1732 14.7761 41.0835 13.628 41.755L13.6235 41.7576M13.6235 41.7576L13.5834 41.666C13.5816 41.6668 13.5798 41.6676 13.578 41.6684M13.6235 41.7576C13.053 42.0072 12.543 42.3767 12.1282 42.8411C12.0233 42.9888 11.8831 43.1079 11.7203 43.1874C11.5575 43.2669 11.3774 43.3043 11.1964 43.2962M13.6235 41.7576L13.573 41.6713C13.5747 41.6703 13.5763 41.6693 13.578 41.6684M13.578 41.6684C12.9966 41.9237 12.4767 42.3009 12.0537 42.7745L12.0462 42.7829L12.0467 42.7832C11.9515 42.9173 11.8242 43.0254 11.6764 43.0975C11.5288 43.1696 11.3656 43.2036 11.2015 43.1963M11.2015 43.1963C11.2017 43.1963 11.2018 43.1964 11.202 43.1964L11.1964 43.2962M11.2015 43.1963C11.2013 43.1963 11.2011 43.1963 11.2009 43.1963L11.1964 43.2962M11.2015 43.1963C11.0431 43.1874 10.8893 43.1403 10.753 43.059C10.6166 42.9776 10.502 42.8645 10.4189 42.7292C10.3358 42.5939 10.2866 42.4404 10.2757 42.282C10.265 42.1271 10.2912 41.9719 10.352 41.8292M11.1964 43.2962C11.0217 43.2864 10.852 43.2345 10.7018 43.1449C10.5515 43.0553 10.4252 42.9306 10.3337 42.7815C10.2421 42.6324 10.188 42.4634 10.176 42.2889C10.1639 42.1144 10.1943 41.9395 10.2646 41.7793M10.2646 41.7793L10.3455 41.8381C10.3476 41.8351 10.3498 41.8321 10.352 41.8292M10.2646 41.7793L10.3562 41.8194C10.3547 41.8227 10.3534 41.8259 10.352 41.8292" fill="black" stroke="white" stroke-width="0.2"/>
<path d="M51.8652 13.7594C51.6843 13.7513 51.5041 13.7887 51.3413 13.8682C51.1786 13.9477 51.0383 14.0668 50.9334 14.2145C50.5242 14.6985 50.0138 15.0868 49.4382 15.3522C48.2896 16.0131 46.7294 16.9233 46.7294 18.8086C46.7294 20.6939 48.2896 21.6149 49.4382 22.2758C50.5867 22.9368 51.0634 23.2835 51.0634 23.8686C51.0634 24.4537 50.5433 24.8113 49.4382 25.4505C48.333 26.0898 46.7294 27.0325 46.7294 28.9286C46.7294 30.8117 48.2682 31.7116 49.4144 32.3819L49.4382 32.3959C50.5867 33.0676 51.0634 33.4035 51.0634 33.9886C51.0634 34.5737 50.5433 34.9313 49.4382 35.5814L49.4182 35.5931C48.3138 36.2427 46.7294 37.1746 46.7294 39.0487C46.7294 40.9315 48.2856 41.8418 49.4337 42.5133L49.4382 42.5159C50.0086 42.7655 50.5186 43.135 50.9334 43.5994C51.0333 43.7551 51.1713 43.8827 51.3344 43.9699C51.4976 44.0572 51.6803 44.1012 51.8652 44.0978L51.8652 13.7594ZM51.8652 13.7594C52.0457 13.7662 52.2216 13.818 52.3769 13.91C52.5322 14.0021 52.6621 14.1315 52.7547 14.2866C52.8473 14.4416 52.8996 14.6173 52.907 14.7977C52.9144 14.9781 52.8766 15.1576 52.7971 15.3196C52.2066 16.1324 51.4251 16.7873 50.5217 17.2266L51.8652 13.7594ZM50.4702 40.7163L50.47 40.7167L50.4779 40.7205C51.364 41.1514 52.1307 41.7931 52.711 42.5893C52.7807 42.7344 52.8137 42.8944 52.8071 43.0554C52.8004 43.2192 52.7529 43.3787 52.6688 43.5194C52.5848 43.6601 52.4669 43.7776 52.3259 43.8612C52.1852 43.9446 52.0259 43.9916 51.8624 43.9979C51.6949 44.0008 51.5294 43.9608 51.3816 43.8818C51.2335 43.8026 51.1082 43.6868 51.0176 43.5454L51.0133 43.5387L51.008 43.5328C50.5849 43.0592 50.0651 42.682 49.4836 42.4267C48.3261 41.7496 46.8294 40.866 46.8294 39.0487C46.8294 37.232 48.3679 36.327 49.4832 35.6709L49.4889 35.6676C50.0396 35.3437 50.4553 35.0866 50.7325 34.8346C51.0138 34.5789 51.1634 34.3183 51.1634 33.9886C51.1634 33.6609 51.0265 33.4056 50.7491 33.1511C50.477 32.9014 50.0609 32.6443 49.4886 32.3095L49.4789 32.3039C48.3218 31.6271 46.8294 30.7542 46.8294 28.9286C46.8294 27.0979 48.3738 26.1817 49.4882 25.5371C50.0391 25.2185 50.4549 24.9642 50.7323 24.7134C51.0138 24.4589 51.1634 24.1983 51.1634 23.8686C51.1634 23.5411 51.0268 23.2832 50.7493 23.0272C50.477 22.7759 50.0607 22.5187 49.488 22.1891C48.3308 21.5232 46.8294 20.6285 46.8294 18.8086C46.8294 16.9909 48.327 16.107 49.4841 15.4411C50.0714 15.1697 50.5921 14.773 51.0098 14.279L51.01 14.2793L51.0149 14.2724C51.1102 14.1383 51.2375 14.0302 51.3852 13.9581C51.533 13.8859 51.6965 13.8519 51.8608 13.8593L51.8615 13.8593C52.0253 13.8655 52.1849 13.9125 52.3259 13.9961C52.4669 14.0796 52.5848 14.1971 52.6688 14.3378C52.7529 14.4786 52.8004 14.6381 52.8071 14.8018C52.8137 14.9628 52.7807 15.1228 52.711 15.268C52.1307 16.0641 51.364 16.7058 50.4779 17.1367L50.4778 17.1365L50.4716 17.1401C49.9208 17.4587 49.5049 17.713 49.2275 17.9637C48.946 18.2183 48.7964 18.4789 48.7964 18.8086C48.7964 19.1363 48.9333 19.3916 49.2107 19.6461C49.4828 19.8958 49.8989 20.1529 50.4712 20.4877C51.6295 21.1651 53.1305 22.0487 53.1305 23.8686C53.1305 25.6853 51.5919 26.5903 50.4767 27.2463L50.471 27.2497C49.9195 27.574 49.5041 27.8363 49.2269 28.0911C48.9465 28.3488 48.7964 28.6092 48.7964 28.9286C48.7964 29.2464 48.9341 29.4988 49.2107 29.7526C49.4827 30.0022 49.8985 30.2619 50.4712 30.5969C51.6295 31.2743 53.1305 32.1579 53.1305 33.9778C53.1305 35.7945 51.5919 36.6995 50.4767 37.3555L50.471 37.3589C49.9199 37.683 49.5043 37.9427 49.2271 38.1961C48.9463 38.4528 48.7964 38.7133 48.7964 39.0378C48.7964 39.3635 48.9529 39.624 49.2356 39.8799C49.5151 40.1328 49.9304 40.3924 50.4702 40.7163Z" fill="black" stroke="white" stroke-width="0.2"/>
<path d="M45.9659 14.5613C46.0455 14.3993 46.0833 14.2198 46.0759 14.0394C46.0685 13.859 46.0161 13.6833 45.9235 13.5283C45.8309 13.3732 45.7011 13.2438 45.5457 13.1517C45.3904 13.0597 45.2145 13.0079 45.0341 13.0011C44.8531 12.993 44.673 13.0304 44.5102 13.1099C44.3474 13.1894 44.2071 13.3085 44.1022 13.4562C43.693 13.9402 43.1826 14.3285 42.607 14.5939M45.9659 14.5613L45.885 14.5026C45.8833 14.5049 45.8815 14.5073 45.8798 14.5097M45.9659 14.5613L45.8761 14.5173C45.8774 14.5147 45.8786 14.5122 45.8798 14.5097M45.9659 14.5613C45.3754 15.3741 44.5939 16.029 43.6905 16.4683C42.5853 17.1076 42.0652 17.4652 42.0652 18.0503C42.0652 18.6354 42.542 18.9713 43.6905 19.643L43.695 19.6457C44.8431 20.3172 46.3993 21.2274 46.3993 23.1103C46.3993 24.9843 44.8149 25.9162 43.7104 26.5658L43.6905 26.5775C42.5853 27.2277 42.0652 27.6069 42.0652 28.1703C42.0652 28.7337 42.542 29.0805 43.6905 29.7522L43.695 29.7549C44.8431 30.4264 46.3993 31.3366 46.3993 33.2195C46.3993 35.0935 44.8149 36.0254 43.7104 36.675L43.6905 36.6868C42.5853 37.3369 42.0652 37.7053 42.0652 38.2795C42.0652 38.8538 42.607 39.2222 43.6905 39.8723C44.5939 40.3116 45.3754 40.9665 45.9659 41.7793M45.8798 14.5097C45.9495 14.3645 45.9826 14.2045 45.976 14.0435C45.9692 13.8798 45.9217 13.7203 45.8377 13.5795C45.7536 13.4388 45.6357 13.3213 45.4947 13.2378C45.3537 13.1542 45.1941 13.1072 45.0303 13.101L45.0296 13.101C44.8653 13.0936 44.7018 13.1276 44.5541 13.1998C44.4063 13.2719 44.279 13.38 44.1838 13.5141L44.1789 13.521L44.1786 13.5207C43.7609 14.0147 43.2402 14.4114 42.653 14.6828M45.8798 14.5097C45.2996 15.3058 44.5328 15.9475 43.6468 16.3784L43.6467 16.3782L43.6404 16.3818C43.0896 16.7004 42.6737 16.9547 42.3964 17.2054C42.1148 17.46 41.9652 17.7206 41.9652 18.0503C41.9652 18.378 42.1022 18.6333 42.3796 18.8878C42.6516 19.1375 43.0678 19.3946 43.64 19.7294C44.7983 20.4068 46.2993 21.2904 46.2993 23.1103C46.2993 24.927 44.7607 25.832 43.6455 26.488L43.6398 26.4914C43.0884 26.8157 42.6729 27.078 42.3957 27.3328C42.1154 27.5905 41.9652 27.8509 41.9652 28.1703C41.9652 28.4881 42.103 28.7405 42.3796 28.9943C42.6515 29.2439 43.0674 29.5036 43.64 29.8386C44.7983 30.516 46.2993 31.3996 46.2993 33.2195C46.2993 35.0362 44.7607 35.9412 43.6455 36.5972L43.6398 36.6006C43.0887 36.9247 42.6731 37.1844 42.3959 37.4378C42.1151 37.6945 41.9652 37.955 41.9652 38.2795C41.9652 38.6052 42.1217 38.8657 42.4044 39.1216C42.6839 39.3745 43.0992 39.6341 43.6391 39.958L43.6389 39.9584L43.6468 39.9622C44.5321 40.3928 45.2984 41.0338 45.8785 41.8292M42.653 14.6828C42.6543 14.682 42.6556 14.6813 42.6569 14.6805L42.607 14.5939M42.653 14.6828C42.6516 14.6834 42.6502 14.684 42.6488 14.6847L42.607 14.5939M42.653 14.6828C41.4958 15.3487 39.9982 16.2326 39.9982 18.0503C39.9982 19.8702 41.4996 20.7649 42.6569 21.4308C43.2295 21.7604 43.6458 22.0176 43.9181 22.2689C44.1956 22.5249 44.3323 22.7828 44.3323 23.1103C44.3323 23.44 44.1827 23.7006 43.9011 23.9551C43.6238 24.2059 43.2079 24.4602 42.6571 24.7788C41.5427 25.4234 39.9982 26.3396 39.9982 28.1703C39.9982 29.9959 41.4906 30.8688 42.6478 31.5456L42.6575 31.5512C43.2297 31.886 43.6459 32.1431 43.9179 32.3928C44.1953 32.6473 44.3323 32.9026 44.3323 33.2303C44.3323 33.56 44.1827 33.8206 43.9013 34.0763C43.6241 34.3283 43.2084 34.5853 42.6577 34.9093L42.652 34.9126C41.5368 35.5687 39.9982 36.4737 39.9982 38.2904C39.9982 40.1077 41.4949 40.9913 42.6525 41.6684M42.607 14.5939C41.4585 15.2548 39.8982 16.1649 39.8982 18.0503C39.8982 19.9356 41.4585 20.8566 42.607 21.5175C43.7555 22.1785 44.2323 22.5252 44.2323 23.1103C44.2323 23.6954 43.7122 24.0529 42.607 24.6922C41.5018 25.3315 39.8982 26.2742 39.8982 28.1703C39.8982 30.0534 41.437 30.9533 42.5832 31.6236L42.607 31.6376C43.7555 32.3093 44.2323 32.6452 44.2323 33.2303C44.2323 33.8154 43.7122 34.173 42.607 34.8231L42.5871 34.8348C41.4826 35.4844 39.8982 36.4163 39.8982 38.2904C39.8982 40.1732 41.4544 41.0835 42.6025 41.755L42.607 41.7576M42.607 41.7576L42.6471 41.666C42.6489 41.6668 42.6507 41.6676 42.6525 41.6684M42.607 41.7576C43.1774 42.0072 43.6874 42.3767 44.1022 42.8411C44.2071 42.9888 44.3474 43.1079 44.5102 43.1874C44.673 43.2669 44.8531 43.3043 45.0341 43.2962M42.607 41.7576L42.6575 41.6713C42.6558 41.6703 42.6541 41.6693 42.6525 41.6684M42.6525 41.6684C43.2339 41.9237 43.7538 42.3009 44.1768 42.7745L44.1843 42.7829L44.1838 42.7832C44.279 42.9173 44.4063 43.0254 44.5541 43.0975C44.7016 43.1696 44.8649 43.2036 45.029 43.1963M45.029 43.1963C45.0288 43.1963 45.0286 43.1964 45.0285 43.1964L45.0341 43.2962M45.029 43.1963C45.0292 43.1963 45.0294 43.1963 45.0296 43.1963L45.0341 43.2962M45.029 43.1963C45.1874 43.1874 45.3412 43.1403 45.4775 43.059C45.6138 42.9776 45.7285 42.8645 45.8116 42.7292C45.8947 42.5939 45.9438 42.4404 45.9548 42.282C45.9654 42.1271 45.9393 41.9719 45.8785 41.8292M45.0341 43.2962C45.2087 43.2864 45.3784 43.2345 45.5287 43.1449C45.6789 43.0553 45.8052 42.9306 45.8968 42.7815C45.9884 42.6324 46.0425 42.4634 46.0545 42.2889C46.0665 42.1144 46.0361 41.9395 45.9659 41.7793M45.9659 41.7793L45.885 41.8381C45.8828 41.8351 45.8807 41.8321 45.8785 41.8292M45.9659 41.7793L45.8743 41.8194C45.8757 41.8227 45.8771 41.8259 45.8785 41.8292" fill="black" stroke="white" stroke-width="0.2"/>
<circle cx="28.1495" cy="28.1342" r="7.33264" transform="rotate(75 28.1495 28.1342)" stroke="#F0C200" stroke-width="3.1627"/>
</svg>
