<svg width="57" height="57" viewBox="0 0 57 57" fill="none" xmlns="http://www.w3.org/2000/svg">
<path d="M39.7093 16.2925V12.9575H16.1188V16.2925C16.1188 21.4659 19.4255 25.8664 24.0406 27.4972C24.6775 27.7223 25.1035 28.3243 25.1035 28.9997C25.1035 29.6753 24.6775 30.2773 24.0406 30.5023C19.4256 32.133 16.1188 36.5335 16.1188 41.707V45.0419H39.7092V41.707C39.7092 36.5335 36.4025 32.133 31.7874 30.5023C31.1504 30.2772 30.7245 29.6752 30.7245 28.9997H30.8964C30.8964 28.3242 31.1504 27.7223 31.7874 27.4972C36.4025 25.8665 39.7093 21.4659 39.7093 16.2925Z" fill="white"/>
<path d="M16.1188 12.9575V14.6418H35.6524C36.564 14.6418 37.3031 15.3809 37.3031 16.2925C37.3031 21.4499 34.0168 25.8391 29.4242 27.4819C28.856 27.6851 28.4213 28.1703 28.3351 28.7675C28.2245 29.5339 28.6721 30.2517 29.3812 30.5023C33.9963 32.133 37.3031 36.5336 37.3031 41.707V45.0419H39.8812V41.707C39.8812 36.5496 36.5949 32.1603 32.0023 30.5176C31.4341 30.3143 30.9995 29.8292 30.9133 29.2318C30.8027 28.4655 31.2502 27.7477 31.9594 27.4971C36.5744 25.8664 39.8812 21.4658 39.8812 16.2924V14.6419V12.9575H16.1188Z" fill="white"/>
<path d="M33.7213 35.722H32.47C31.2116 35.722 29.9661 34.8117 29.7603 33.5703L29.2497 30.4909C28.9898 28.9236 30.1988 27.4977 31.7875 27.4977C34.8705 26.4084 37.3678 24.0819 38.6874 21.1157H17.1408C18.4603 24.0819 20.9576 26.4084 24.0406 27.4977C25.6293 27.4977 26.8383 28.9236 26.5784 30.4909L26.0679 33.5703C25.8621 34.8117 24.7884 35.722 23.5301 35.722H22.1068C18.8263 35.722 16.1368 38.3616 16.1191 41.6421C16.119 41.6639 16.1189 41.6857 16.1189 41.7076V45.0425H39.7093V41.7076C39.7093 41.6857 39.7093 41.6639 39.7092 41.6421C39.6914 38.3616 37.0019 35.722 33.7213 35.722Z" fill="#F0C200"/>
<path d="M39.8811 41.6421C39.8633 38.3616 37.1739 35.722 33.8933 35.722H32.47C31.2116 35.722 30.138 34.8117 29.9322 33.5703L29.4216 30.4909C29.1618 28.9236 30.3707 27.4977 31.9594 27.4977C35.0425 26.4084 37.5397 24.0819 38.8593 21.1157H36.2812C34.9617 24.0819 32.4643 26.4084 29.3813 27.4977C27.7926 27.4977 26.5836 28.9236 26.8435 30.4909L27.3541 33.5703C27.5599 34.8117 28.6336 35.722 29.8919 35.722H31.3152C34.5958 35.722 37.2853 38.3616 37.303 41.6421C37.303 41.6639 37.3031 41.6857 37.3031 41.7076V45.0425H39.8813V41.7076C39.8813 41.6857 39.8812 41.6639 39.8811 41.6421Z" fill="#FAC600"/>
<path d="M41.2421 44.3978H40.5257V41.7073L40.5255 41.6383C40.5255 41.6301 40.5249 41.6221 40.5248 41.6139C40.4856 36.3513 37.14 31.6495 32.1741 29.8948C31.7955 29.7609 31.541 29.4013 31.541 28.9999C31.541 28.5985 31.7955 28.2389 32.1741 28.105C32.3818 28.0317 32.5877 27.9523 32.7913 27.8679C34.874 27.0057 36.6421 25.6137 37.9597 23.8831C38.009 23.8181 38.0578 23.7527 38.1061 23.6868C38.631 22.9711 39.0829 22.198 39.448 21.3773C39.4563 21.3586 39.4627 21.3394 39.4692 21.3202C40.152 19.7658 40.5256 18.0601 40.5256 16.2926V13.6022H41.242C43.0623 13.6022 44.5432 12.1214 44.5432 10.3011C44.5432 8.48088 43.0624 7 41.2421 7H14.7579C12.9376 7 11.4567 8.48088 11.4567 10.3011C11.4567 12.1214 12.9375 13.6022 14.7579 13.6022H15.4742L15.5806 17.9323C15.5806 18.2884 15.8691 18.5769 16.2252 18.5769C16.5812 18.5769 16.8697 18.2884 16.8697 17.9323L16.7633 13.6022H39.2366V16.2927C39.2366 17.7534 38.9514 19.1669 38.4278 20.4709H34.7492C34.3931 20.4709 34.1046 20.7594 34.1046 21.1154C34.1046 21.4714 34.3931 21.7599 34.7492 21.7599H37.8125C37.5526 22.2259 37.2607 22.673 36.9381 23.0973C36.702 23.4067 36.45 23.7037 36.1838 23.9875C35.3362 24.8885 34.3431 25.6488 33.2459 26.2303C32.7908 26.4709 32.3199 26.6798 31.8361 26.8554C30.9351 26.8896 30.0914 27.2987 29.5056 27.9895C28.8932 28.7118 28.6308 29.6619 28.7857 30.596L29.2962 33.6754C29.5548 35.2346 30.8895 36.3662 32.4699 36.3662H33.8931C36.7913 36.3662 39.1661 38.6827 39.2335 41.5484C39.2342 41.5986 39.2364 41.6485 39.2365 41.6989L39.2366 44.3977H35.3485C34.9925 44.3977 34.704 44.6863 34.704 45.0422C34.704 45.3983 34.9925 45.6867 35.3485 45.6867H41.242C42.3515 45.6867 43.2541 46.5893 43.2541 47.6988C43.2542 48.8083 42.3515 49.7109 41.2421 49.7109H14.7579C13.6484 49.7109 12.7457 48.8083 12.7457 47.6989C12.7457 46.5894 13.6484 45.6868 14.7579 45.6868H37.7115C38.0676 45.6868 38.3561 45.3983 38.3561 45.0423C38.3561 44.6863 38.0676 44.3978 37.7115 44.3978H16.7633V41.7073C16.7633 41.6551 16.7656 41.6033 16.7664 41.5512C16.8329 38.6837 19.2081 36.3662 22.1068 36.3662H23.53C25.1104 36.3662 26.4452 35.2346 26.7038 33.6754L27.2143 30.596C27.3691 29.6619 27.1067 28.7118 26.4944 27.9895C25.9083 27.2984 25.0644 26.8894 24.163 26.8553C23.5317 26.626 22.9179 26.3413 22.3394 25.9994C20.6101 24.9868 19.1665 23.5198 18.1833 21.7599H35.8226C36.1786 21.7599 36.4671 21.4714 36.4671 21.1153C36.4671 20.7593 36.1786 20.4708 35.8226 20.4708H17.5676C17.2146 19.5902 16.9724 18.6651 16.8524 17.7148C16.8077 17.3616 16.4844 17.1118 16.1322 17.156C15.7791 17.2007 15.5288 17.523 15.5734 17.8763C15.8659 20.1924 16.8018 22.3768 18.2799 24.1932C19.3242 25.4763 20.6044 26.5324 22.0425 27.3111C22.6145 27.6216 23.2121 27.8882 23.8258 28.1051C24.2045 28.239 24.4589 28.5986 24.4589 29C24.4589 29.4014 24.2045 29.761 23.8258 29.8949C18.8595 31.6497 15.5138 36.3522 15.4752 41.6155C15.4751 41.6234 15.4745 41.6314 15.4744 41.6393V41.6906C15.4744 41.6961 15.4742 41.7017 15.4742 41.7073V44.3978H14.7579C12.9375 44.3978 11.4567 45.8787 11.4567 47.6989C11.4567 49.5191 12.9375 51 14.7579 51H41.2421C43.0624 51 44.5433 49.5191 44.5433 47.6989C44.5433 45.8786 43.0624 44.3978 41.2421 44.3978ZM16.1188 12.3132H14.7579C13.6484 12.3132 12.7457 11.4106 12.7457 10.3011C12.7457 9.19166 13.6484 8.28906 14.7579 8.28906H41.2421C42.3515 8.28906 43.2542 9.19166 43.2542 10.3011C43.2542 11.4106 42.3515 12.3132 41.2421 12.3132H39.8812H16.1188ZM33.8931 35.0772H32.4699C31.5227 35.0772 30.7229 34.399 30.568 33.4646L30.0575 30.3852C29.9873 29.962 30.0602 29.5335 30.2584 29.1625C30.3226 30.0426 30.9034 30.813 31.7446 31.1103C34.4565 32.0686 36.6284 34.0076 37.9219 36.4425C36.8032 35.5875 35.4059 35.0772 33.8931 35.0772ZM24.2553 31.1103C25.0967 30.813 25.6774 30.0426 25.7416 29.1625C25.9399 29.5335 26.0128 29.9621 25.9425 30.3853L25.4321 33.4647C25.2771 34.3991 24.4773 35.0773 23.5301 35.0773H22.1069C20.5941 35.0773 19.1969 35.5877 18.0782 36.4427C19.3715 34.0077 21.5433 32.0686 24.2553 31.1103Z" fill="black"/>
</svg>
