<svg width="57" height="57" viewBox="0 0 57 57" fill="none" xmlns="http://www.w3.org/2000/svg">
<path d="M46 9.33337V50.6666C46 50.8313 45.9585 50.9808 45.8928 51.1216C44.7795 54.8765 30.2215 55 28.5 55C26.7785 55 12.2205 54.8765 11.1072 51.1217C11.0415 50.9809 11 50.8314 11 50.6667V9.33337C11 9.16873 11.0415 9.01923 11.1072 8.87837L46 9.33337ZM46 9.33337C46.0001 9.16863 45.9585 9.01913 45.8928 8.87837L46 9.33337ZM45.749 8.92101L45.7522 8.93167L45.7569 8.94175C45.8154 9.06723 45.8501 9.19503 45.85 9.33327V9.33337V50.6666C45.85 50.8049 45.8154 50.9327 45.7569 51.0583L45.7522 51.0683L45.749 51.079C45.6228 51.5048 45.3018 51.8926 44.8093 52.2443C44.3172 52.5956 43.6651 52.9028 42.8982 53.1701C41.3647 53.7045 39.399 54.0704 37.4058 54.3201C33.4214 54.8191 29.3589 54.85 28.5 54.85C27.6411 54.85 23.5786 54.8191 19.5942 54.3201C17.601 54.0704 15.6353 53.7046 14.1018 53.1701C13.3349 52.9029 12.6828 52.5957 12.1907 52.2443C11.6982 51.8927 11.3772 51.5049 11.251 51.0791L11.2478 51.0685L11.2431 51.0584C11.1846 50.9328 11.15 50.805 11.15 50.6667V9.33337C11.15 9.19512 11.1846 9.06727 11.2431 8.94171L11.2478 8.93165L11.251 8.92101C11.3772 8.49521 11.6982 8.10741 12.1907 7.75573C12.6828 7.40439 13.3349 7.09719 14.1018 6.82993C15.6353 6.29547 17.601 5.92959 19.5942 5.67995C23.5786 5.18089 27.6411 5.15 28.5 5.15C29.3589 5.15 33.4214 5.18089 37.4058 5.67995C39.399 5.92959 41.3647 6.29547 42.8982 6.82993C43.6651 7.09719 44.3172 7.40439 44.8093 7.75573C45.3018 8.10741 45.6228 8.49521 45.749 8.92101ZM43.7751 9.45207L43.9292 9.33326L43.7751 9.21446C43.4865 8.99203 42.9449 8.74766 42.1715 8.50518C41.3929 8.26111 40.3649 8.01455 39.091 7.79422C36.5429 7.35351 33.0047 7.01663 28.5 7.01663C23.9953 7.01663 20.4571 7.35351 17.909 7.79423C16.6351 8.01456 15.6071 8.26114 14.8285 8.50523C14.0551 8.74772 13.5135 8.99211 13.2249 9.21457L13.0708 9.33337L13.2249 9.45217C13.5135 9.6746 14.0551 9.91897 14.8286 10.1614C15.6071 10.4055 16.6351 10.6521 17.909 10.8724C20.4571 11.3131 23.9953 11.65 28.5 11.65C33.0047 11.65 36.5429 11.3131 39.091 10.8724C40.3649 10.6521 41.3929 10.4055 42.1715 10.1614C42.9449 9.91891 43.4865 9.67453 43.7751 9.45207ZM43.9305 50.6227L43.9625 50.582V50.5301V11.6451V11.4144L43.7517 11.508C41.5908 12.4674 38.1292 12.9717 35.019 13.2344C31.915 13.4966 29.1848 13.5166 28.5 13.5166C27.8152 13.5166 25.085 13.4966 21.981 13.2344C18.8708 12.9717 15.4092 12.4674 13.2483 11.508L13.0375 11.4144V11.6451V50.6666V50.7181L13.0691 50.7587C13.1523 50.8658 13.3142 50.9704 13.5227 51.0729C13.7381 51.1787 14.0251 51.2925 14.3817 51.41C15.0953 51.645 16.0978 51.8979 17.384 52.1307C19.9569 52.5965 23.6732 52.9833 28.5 52.9833C33.2696 52.9833 36.9507 52.6063 39.5207 52.1282C40.8054 51.8892 41.815 51.6245 42.5451 51.3679C42.91 51.2397 43.2078 51.1125 43.4364 50.9903C43.6611 50.8701 43.8327 50.7475 43.9305 50.6227Z" fill="black" stroke="white" stroke-width="0.3"/>
<path d="M41 4L43.1395 8.05518L47.6574 8.83688L44.4618 12.1248L45.1145 16.6631L41 14.64L36.8855 16.6631L37.5382 12.1248L34.3426 8.83688L38.8605 8.05518L41 4Z" fill="#F0C200"/>
<path d="M33 14L35.1395 18.0552L39.6574 18.8369L36.4618 22.1248L37.1145 26.6631L33 24.64L28.8855 26.6631L29.5382 22.1248L26.3426 18.8369L30.8605 18.0552L33 14Z" fill="#F0C200"/>
</svg>
