<svg width="57" height="57" viewBox="0 0 57 57" fill="none" xmlns="http://www.w3.org/2000/svg">
<g clip-path="url(#clip0_258_873)">
<path d="M35.3107 10.2551C39.5639 6.67318 44.6453 7.24755 47.2993 8.21187C47.7214 8.36521 47.9489 8.80641 47.8751 9.24931L46.2853 18.7882C46.1586 19.5482 45.2561 19.8855 44.662 19.3947L35.3479 11.7004C34.8932 11.3248 34.8596 10.635 35.3107 10.2551Z" fill="#F0C200"/>
<path d="M37.1439 25.9844L36.9915 25.9606L36.9019 26.0862C32.2095 32.663 24.9337 41.7885 18.7777 47.065C15.3699 49.9858 12.6327 51.4841 10.396 51.7194C7.38262 52.0361 5.09985 49.8568 5.25819 46.8995C5.37742 44.6709 6.76191 41.8846 9.56899 38.364C14.6302 32.0162 23.5825 24.3501 30.073 19.3699L30.1947 19.2765L30.1665 19.1257C29.5759 15.9589 30.7522 12.581 32.9243 10.2908C34.6953 8.42329 37.4864 7.08021 40.5966 6.52808C43.7042 5.97639 47.1053 6.21915 50.084 7.49439C50.7861 7.79499 50.9736 8.70522 50.4484 9.25901L50.6298 9.43106L50.4484 9.25903C48.5546 11.2559 48.4271 13.3835 48.2977 15.5422L48.292 15.6372C48.1603 17.829 48.0019 20.0809 46.0911 22.4695C44.0061 25.0758 40.4811 26.5048 37.1439 25.9844ZM47.6471 9.29549L47.8271 9.00844L47.4997 8.92113C45.0353 8.26387 42.4234 8.32039 40.116 8.8689C37.8119 9.41662 35.7889 10.4606 34.517 11.8016C33.4364 12.941 32.5126 14.6804 32.2713 16.5543C32.0288 18.4367 32.4754 20.4622 34.1482 22.1353L34.325 21.9585L34.1482 22.1353C37.0336 25.0207 41.9484 24.1336 44.3769 21.0979C45.8682 19.2337 46.0051 17.2931 46.1209 15.3386C46.123 15.3027 46.1251 15.2669 46.1272 15.231C46.2409 13.3057 46.3562 11.3546 47.6471 9.29549ZM34.6251 25.4926L34.7936 25.2596L34.5396 25.1251C33.0669 24.3455 31.8712 23.1034 31.0982 21.7152L30.9564 21.4605L30.7263 21.6395C29.8431 22.3265 28.4812 23.4019 26.8508 24.7428L26.638 24.9179L26.8328 25.1127L31.2549 29.5352L31.4566 29.7369L31.6301 29.5105C32.9258 27.8198 33.9633 26.4075 34.6251 25.4926ZM25.1085 26.493L24.9458 26.3302L24.7701 26.4789C22.614 28.3044 18.3734 31.9864 14.6324 35.9229C12.7622 37.8909 11.0115 39.9279 9.70784 41.8326C8.41072 43.7277 7.52982 45.5286 7.45026 47.0169C7.40791 47.8087 7.65911 48.4893 8.15242 48.9494C8.64536 49.4091 9.35115 49.6218 10.1662 49.536C11.6548 49.3794 13.4146 48.4387 15.2498 47.0893C17.0936 45.7337 19.0474 43.9397 20.9287 42.0298C24.6919 38.2093 28.1859 33.9038 29.9601 31.6574L30.0979 31.4829L29.9407 31.3257L25.1085 26.493Z" fill="black" stroke="white" stroke-width="0.5"/>
</g>
<defs>
<clipPath id="clip0_258_873">
<rect width="46" height="46" fill="white" transform="translate(51 52) rotate(-180)"/>
</clipPath>
</defs>
</svg>
