<svg width="57" height="57" viewBox="0 0 57 57" fill="none" xmlns="http://www.w3.org/2000/svg">
<path d="M34.676 11.0664L14.8946 21.5753C14.568 21.7488 14.3638 22.0885 14.3638 22.4584V29.6236C14.3638 30.1758 14.8115 30.6236 15.3638 30.6236H16.8716C17.1369 30.6236 17.3912 30.7289 17.5787 30.9164L18.5895 31.9272C19.2065 32.5442 20.2624 32.1304 20.2959 31.2586L20.5105 25.6789C20.5242 25.323 20.7261 25.0013 21.0406 24.8342L39.6417 14.9524C40.3511 14.5755 40.3491 13.5584 39.6383 13.1843L35.6109 11.0646C35.3182 10.9106 34.9682 10.9112 34.676 11.0664Z" fill="#F0C200"/>
<mask id="path-2-inside-1_258_890" fill="white">
<path d="M50.2242 17.3632L28.3492 6.42566C28.2408 6.37147 28.1212 6.34326 28 6.34326C27.8788 6.34326 27.7592 6.37147 27.6508 6.42566L5.77579 17.3632C5.64592 17.4281 5.53671 17.5279 5.46039 17.6514C5.38408 17.7749 5.34369 17.9172 5.34376 18.0624V39.9374C5.34297 40.0832 5.38301 40.2264 5.45936 40.3506C5.53572 40.4749 5.64533 40.5753 5.77579 40.6405L27.6508 51.578C27.7592 51.6322 27.8788 51.6604 28 51.6604C28.1212 51.6604 28.2408 51.6322 28.3492 51.578L50.2242 40.6405C50.3547 40.5753 50.4643 40.4749 50.5407 40.3506C50.617 40.2264 50.6571 40.0832 50.6563 39.9374V18.0624C50.6563 17.9172 50.6159 17.7749 50.5396 17.6514C50.4633 17.5279 50.3541 17.4281 50.2242 17.3632ZM28 28.1264L21.893 25.0725L41.4133 14.703L48.132 18.0624L28 28.1264ZM15.643 21.9475L35.1633 11.578L39.6945 13.8436L20.1766 24.2147L15.643 21.9475ZM14.7188 23.2327L19.4063 25.5764V31.8014L17.6149 30.01C17.4684 29.8635 17.2697 29.7812 17.0625 29.7811H14.7188V23.2327ZM28 7.99831L33.4469 10.7186L13.9266 21.0897L7.87189 18.0624L28 7.99831ZM6.90626 19.3264L13.1563 22.4514V30.5624C13.1563 30.7696 13.2386 30.9683 13.3851 31.1148C13.5316 31.2613 13.7303 31.3436 13.9375 31.3436H16.7391L19.6352 34.2397C19.7444 34.3489 19.8836 34.4233 20.0351 34.4535C20.1867 34.4836 20.3437 34.4681 20.4865 34.409C20.6292 34.3499 20.7512 34.2498 20.837 34.1213C20.9229 33.9929 20.9687 33.8419 20.9688 33.6874V26.3577L27.2188 29.4827V49.6108L6.90626 39.4546V19.3264ZM28.7813 49.6108V29.4827L49.0938 19.3264V39.4546L28.7813 49.6108Z"/>
</mask>
<path d="M50.2242 17.3632L28.3492 6.42566C28.2408 6.37147 28.1212 6.34326 28 6.34326C27.8788 6.34326 27.7592 6.37147 27.6508 6.42566L5.77579 17.3632C5.64592 17.4281 5.53671 17.5279 5.46039 17.6514C5.38408 17.7749 5.34369 17.9172 5.34376 18.0624V39.9374C5.34297 40.0832 5.38301 40.2264 5.45936 40.3506C5.53572 40.4749 5.64533 40.5753 5.77579 40.6405L27.6508 51.578C27.7592 51.6322 27.8788 51.6604 28 51.6604C28.1212 51.6604 28.2408 51.6322 28.3492 51.578L50.2242 40.6405C50.3547 40.5753 50.4643 40.4749 50.5407 40.3506C50.617 40.2264 50.6571 40.0832 50.6563 39.9374V18.0624C50.6563 17.9172 50.6159 17.7749 50.5396 17.6514C50.4633 17.5279 50.3541 17.4281 50.2242 17.3632ZM28 28.1264L21.893 25.0725L41.4133 14.703L48.132 18.0624L28 28.1264ZM15.643 21.9475L35.1633 11.578L39.6945 13.8436L20.1766 24.2147L15.643 21.9475ZM14.7188 23.2327L19.4063 25.5764V31.8014L17.6149 30.01C17.4684 29.8635 17.2697 29.7812 17.0625 29.7811H14.7188V23.2327ZM28 7.99831L33.4469 10.7186L13.9266 21.0897L7.87189 18.0624L28 7.99831ZM6.90626 19.3264L13.1563 22.4514V30.5624C13.1563 30.7696 13.2386 30.9683 13.3851 31.1148C13.5316 31.2613 13.7303 31.3436 13.9375 31.3436H16.7391L19.6352 34.2397C19.7444 34.3489 19.8836 34.4233 20.0351 34.4535C20.1867 34.4836 20.3437 34.4681 20.4865 34.409C20.6292 34.3499 20.7512 34.2498 20.837 34.1213C20.9229 33.9929 20.9687 33.8419 20.9688 33.6874V26.3577L27.2188 29.4827V49.6108L6.90626 39.4546V19.3264ZM28.7813 49.6108V29.4827L49.0938 19.3264V39.4546L28.7813 49.6108Z" fill="black"/>
<path d="M50.2242 17.3632L43.516 30.7796L43.5192 30.7812L50.2242 17.3632ZM28.3492 6.42566L35.0574 -6.99075L35.0542 -6.99235L28.3492 6.42566ZM27.6508 6.42566L20.9458 -6.99235L20.9426 -6.99075L27.6508 6.42566ZM5.77579 17.3632L12.4808 30.7812L12.484 30.7796L5.77579 17.3632ZM5.34376 18.0624H20.3438L20.3438 18.0554L5.34376 18.0624ZM5.34376 39.9374L20.3435 40.0192L20.3438 39.9783V39.9374H5.34376ZM5.77579 40.6405L12.484 27.2241L12.4806 27.2224L5.77579 40.6405ZM27.6508 51.578L20.9426 64.9944L20.9458 64.996L27.6508 51.578ZM28.3492 51.578L35.0542 64.996L35.0574 64.9944L28.3492 51.578ZM50.2242 40.6405L43.5195 27.2224L43.516 27.2241L50.2242 40.6405ZM50.6563 39.9374H35.6563V39.9783L35.6565 40.0192L50.6563 39.9374ZM50.6563 18.0624L35.6563 18.0554V18.0624H50.6563ZM28 28.1264L21.2911 41.5425L27.9989 44.8968L34.7072 41.5434L28 28.1264ZM21.893 25.0725L14.856 11.8256L-10.8391 25.4753L15.1841 38.4886L21.893 25.0725ZM41.4133 14.703L48.1215 1.28659L41.2052 -2.17155L34.3763 1.45609L41.4133 14.703ZM48.132 18.0624L54.8392 31.4793L81.6757 18.0637L54.8402 4.64596L48.132 18.0624ZM15.643 21.9475L8.60599 8.70061L-17.0886 22.35L8.93385 35.3635L15.643 21.9475ZM35.1633 11.578L41.8715 -1.83841L34.9552 -5.29655L28.1263 -1.66891L35.1633 11.578ZM39.6945 13.8436L46.733 27.0898L72.4247 13.4382L46.4028 0.427218L39.6945 13.8436ZM20.1766 24.2147L13.4674 37.6307L20.385 41.0901L27.2151 37.4608L20.1766 24.2147ZM14.7188 23.2327L21.427 9.81628L-0.281237 -1.03782V23.2327H14.7188ZM19.4063 25.5764H34.4063V16.3059L26.1145 12.16L19.4063 25.5764ZM19.4063 31.8014L8.79966 42.408L34.4063 68.0146V31.8014H19.4063ZM17.6149 30.01L7.00665 40.615L7.00826 40.6166L17.6149 30.01ZM17.0625 29.7811L17.0657 14.7811H17.0625V29.7811ZM14.7188 29.7811H-0.281237V44.7811H14.7188V29.7811ZM28 7.99831L34.7021 -5.42117L27.9962 -8.77027L21.2918 -5.4181L28 7.99831ZM33.4469 10.7186L40.4847 23.9651L66.1931 10.3063L40.1489 -2.70086L33.4469 10.7186ZM13.9266 21.0897L7.21837 34.5061L14.1352 37.9645L20.9644 34.3362L13.9266 21.0897ZM7.87189 18.0624L1.16368 4.64597L-25.6691 18.0624L1.16368 31.4788L7.87189 18.0624ZM6.90626 19.3264L13.6145 5.91003L-8.09374 -4.94407V19.3264H6.90626ZM13.1563 22.4514H28.1563V13.1809L19.8645 9.03503L13.1563 22.4514ZM16.7391 31.3436L27.3457 20.737L22.9523 16.3436H16.7391V31.3436ZM19.6352 34.2397L9.02857 44.8463L9.03017 44.8479L19.6352 34.2397ZM20.9688 33.6874L35.9688 33.6906V33.6874H20.9688ZM20.9688 26.3577L27.677 12.9413L5.96876 2.08718V26.3577H20.9688ZM27.2188 29.4827H42.2188V20.2122L33.927 16.0663L27.2188 29.4827ZM27.2188 49.6108L20.5106 63.0272L42.2188 73.8813V49.6108H27.2188ZM6.90626 39.4546H-8.09374V48.7251L0.198061 52.871L6.90626 39.4546ZM28.7813 49.6108H13.7813V73.8813L35.4895 63.0272L28.7813 49.6108ZM28.7813 29.4827L22.0731 16.0663L13.7813 20.2122V29.4827H28.7813ZM49.0938 19.3264H64.0938V-4.94407L42.3856 5.91003L49.0938 19.3264ZM49.0938 39.4546L55.802 52.871L64.0938 48.7251V39.4546H49.0938ZM56.9324 3.94675L35.0574 -6.99075L21.641 19.8421L43.516 30.7796L56.9324 3.94675ZM35.0542 -6.99235C32.8638 -8.08691 30.4487 -8.65674 28 -8.65674V21.3433C25.7937 21.3433 23.6178 20.8298 21.6442 19.8437L35.0542 -6.99235ZM28 -8.65674C25.5513 -8.65674 23.1362 -8.08692 20.9458 -6.99235L34.3558 19.8437C32.3822 20.8299 30.2062 21.3433 28 21.3433V-8.65674ZM20.9426 -6.99075L-0.93241 3.94675L12.484 30.7796L34.359 19.8421L20.9426 -6.99075ZM-0.929205 3.94514C-3.55266 5.25609 -5.75882 7.27209 -7.30026 9.76684L18.2211 25.5359C16.8322 27.7836 14.8445 29.6 12.4808 30.7812L-0.929205 3.94514ZM-7.30026 9.76684C-8.84175 12.2617 -9.6576 15.1367 -9.65624 18.0694L20.3438 18.0554C20.345 20.6977 19.6099 23.2881 18.2211 25.5359L-7.30026 9.76684ZM-9.65624 18.0624V39.9374H20.3438V18.0624H-9.65624ZM-9.65601 39.8555C-9.6721 42.8015 -8.86324 45.6932 -7.32087 48.2034L18.2396 32.4979C19.6293 34.7596 20.358 37.365 20.3435 40.0192L-9.65601 39.8555ZM-7.32087 48.2034C-5.77847 50.7136 -3.56425 52.7418 -0.928983 54.0586L12.4806 27.2224C14.8549 28.4088 16.8499 30.2362 18.2396 32.4979L-7.32087 48.2034ZM-0.932411 54.0569L20.9426 64.9944L34.359 38.1616L12.484 27.2241L-0.932411 54.0569ZM20.9458 64.996C23.1364 66.0906 25.5515 66.6604 28 66.6604V36.6604C30.2061 36.6604 32.3821 37.1737 34.3558 38.16L20.9458 64.996ZM28 66.6604C30.4486 66.6604 32.8637 66.0906 35.0542 64.996L21.6442 38.16C23.6179 37.1738 25.7939 36.6604 28 36.6604V66.6604ZM35.0574 64.9944L56.9324 54.0569L43.516 27.2241L21.641 38.1616L35.0574 64.9944ZM56.929 54.0586C59.5642 52.7419 61.7784 50.7137 63.3209 48.2034L37.7604 32.4979C39.1502 30.2361 41.1452 28.4087 43.5195 27.2224L56.929 54.0586ZM63.3209 48.2034C64.8633 45.6931 65.6721 42.8013 65.656 39.8555L35.6565 40.0192C35.642 37.3651 36.3707 34.7596 37.7604 32.4979L63.3209 48.2034ZM65.6563 39.9374V18.0624H35.6563V39.9374H65.6563ZM65.6563 18.0694C65.6576 15.1368 64.8418 12.2617 63.3003 9.76684L37.779 25.5359C36.3901 23.288 35.655 20.6976 35.6563 18.0554L65.6563 18.0694ZM63.3003 9.76684C61.7588 7.272 59.5526 5.25604 56.9292 3.94514L43.5192 30.7812C41.1556 29.6001 39.1679 27.7837 37.779 25.5359L63.3003 9.76684ZM34.7089 14.7104L28.6019 11.6565L15.1841 38.4886L21.2911 41.5425L34.7089 14.7104ZM28.93 38.3194L48.4503 27.9499L34.3763 1.45609L14.856 11.8256L28.93 38.3194ZM34.7051 28.1194L41.4238 31.4788L54.8402 4.64596L48.1215 1.28659L34.7051 28.1194ZM41.4249 4.64545L21.2929 14.7095L34.7072 41.5434L54.8392 31.4793L41.4249 4.64545ZM22.68 35.1944L42.2003 24.8249L28.1263 -1.66891L8.60599 8.70061L22.68 35.1944ZM28.4551 24.9944L32.9863 27.26L46.4028 0.427218L41.8715 -1.83841L28.4551 24.9944ZM32.6561 0.597501L13.1381 10.9686L27.2151 37.4608L46.733 27.0898L32.6561 0.597501ZM26.8857 10.7988L22.3521 8.53159L8.93385 35.3635L13.4674 37.6307L26.8857 10.7988ZM8.01056 36.6491L12.6981 38.9928L26.1145 12.16L21.427 9.81628L8.01056 36.6491ZM4.40626 25.5764V31.8014H34.4063V25.5764H4.40626ZM30.0129 21.1948L28.2215 19.4034L7.00826 40.6166L8.79966 42.408L30.0129 21.1948ZM28.2231 19.405C25.2641 16.4452 21.2508 14.782 17.0657 14.7811L17.0593 44.7811C13.2886 44.7803 9.67261 43.2818 7.00665 40.615L28.2231 19.405ZM17.0625 14.7811H14.7188V44.7811H17.0625V14.7811ZM29.7188 29.7811V23.2327H-0.281237V29.7811H29.7188ZM21.298 21.4178L26.7448 24.1381L40.1489 -2.70086L34.7021 -5.42117L21.298 21.4178ZM26.4091 -2.52785L6.88876 7.84324L20.9644 34.3362L40.4847 23.9651L26.4091 -2.52785ZM20.6348 7.67331L14.5801 4.64597L1.16368 31.4788L7.21837 34.5061L20.6348 7.67331ZM14.5801 31.4788L34.7082 21.4147L21.2918 -5.4181L1.16368 4.64597L14.5801 31.4788ZM0.198058 32.7428L6.44806 35.8678L19.8645 9.03503L13.6145 5.91003L0.198058 32.7428ZM-1.84374 22.4514V30.5624H28.1563V22.4514H-1.84374ZM-1.84374 30.5624C-1.84374 34.7478 -0.181065 38.7619 2.77848 41.7214L23.9917 20.5082C26.6582 23.1747 28.1563 26.7913 28.1563 30.5624H-1.84374ZM2.77848 41.7214C5.73807 44.681 9.7521 46.3436 13.9375 46.3436V16.3436C17.7085 16.3436 21.3251 17.8416 23.9917 20.5082L2.77848 41.7214ZM13.9375 46.3436H16.7391V16.3436H13.9375V46.3436ZM6.13247 41.9502L9.02857 44.8463L30.2418 23.6331L27.3457 20.737L6.13247 41.9502ZM9.03017 44.8479C11.2372 47.0542 14.0488 48.5568 17.1097 49.1654L22.9606 19.7415C25.7185 20.2899 28.2517 21.6437 30.2402 23.6315L9.03017 44.8479ZM17.1097 49.1654C20.1705 49.774 23.343 49.4615 26.2263 48.2674L14.7466 20.5506C17.3444 19.4747 20.2029 19.1931 22.9606 19.7415L17.1097 49.1654ZM26.2263 48.2674C29.1095 47.0732 31.574 45.051 33.3081 42.4564L8.36602 25.7862C9.92844 23.4485 12.1489 21.6266 14.7466 20.5506L26.2263 48.2674ZM33.3081 42.4564C35.0422 39.8618 35.9681 36.8113 35.9688 33.6906L5.96876 33.6842C5.96936 30.8725 6.80357 28.124 8.36602 25.7862L33.3081 42.4564ZM35.9688 33.6874V26.3577H5.96876V33.6874H35.9688ZM14.2606 39.7741L20.5106 42.8991L33.927 16.0663L27.677 12.9413L14.2606 39.7741ZM12.2188 29.4827V49.6108H42.2188V29.4827H12.2188ZM33.927 36.1944L13.6145 26.0382L0.198061 52.871L20.5106 63.0272L33.927 36.1944ZM21.9063 39.4546V19.3264H-8.09374V39.4546H21.9063ZM43.7813 49.6108V29.4827H13.7813V49.6108H43.7813ZM35.4895 42.8991L55.802 32.7428L42.3856 5.91003L22.0731 16.0663L35.4895 42.8991ZM34.0938 19.3264V39.4546H64.0938V19.3264H34.0938ZM42.3856 26.0382L22.0731 36.1944L35.4895 63.0272L55.802 52.871L42.3856 26.0382Z" fill="black" mask="url(#path-2-inside-1_258_890)"/>
</svg>
