<svg width="57" height="57" viewBox="0 0 57 57" fill="none" xmlns="http://www.w3.org/2000/svg">
<g clip-path="url(#clip0_258_878)">
<path d="M17.8035 30.9005V31.0329L17.9349 31.0493C23.0565 31.6908 27.032 36.0726 27.032 41.365V42.6834C27.032 43.3286 26.5089 43.8517 25.8637 43.8517H7.31884C6.6736 43.8517 6.15049 43.3286 6.15049 42.6834V41.365C6.15049 36.07 10.1642 31.685 15.3352 31.0481L15.4668 31.0319V30.8993V8.31835C15.4668 7.67311 15.99 7.15 16.6352 7.15C17.2804 7.15 17.8035 7.67311 17.8035 8.31835V30.9005ZM24.5453 41.515H24.6953V41.365C24.6953 36.9206 21.0797 33.3049 16.6352 33.3049C12.1439 33.3049 8.48719 36.919 8.48719 41.365V41.515H8.63719H24.5453Z" fill="black" stroke="white" stroke-width="0.3"/>
<path d="M41.5335 20.3524V20.4851L41.6652 20.5013C46.8362 21.1382 50.8499 25.5231 50.8499 30.8182V32.1366C50.8499 32.7818 50.3268 33.3049 49.6815 33.3049H31.1367C30.4915 33.3049 29.9684 32.7818 29.9684 32.1366V30.8182C29.9684 25.5258 33.9439 21.144 39.0655 20.5025L39.1968 20.4861V20.3537V8.31835C39.1968 7.67311 39.7199 7.15 40.3652 7.15C41.0104 7.15 41.5335 7.67311 41.5335 8.31835V20.3524ZM32.3051 30.8182V30.9682H32.4551H48.3632H48.5132V30.8182C48.5132 26.3722 44.8566 22.7581 40.3652 22.7581C35.9207 22.7581 32.3051 26.3737 32.3051 30.8182Z" fill="black" stroke="white" stroke-width="0.3"/>
<path d="M17.9532 50.6816V47.957C17.9532 47.2289 17.363 46.6387 16.6349 46.6387C15.9068 46.6387 15.3165 47.2289 15.3165 47.957V50.6816C15.3165 51.4097 15.9068 52 16.6349 52C17.363 52 17.9532 51.4097 17.9532 50.6816Z" fill="#F0C200"/>
<path d="M8.8564 47.3827L7.53804 50.1073C7.22093 50.7627 7.49515 51.551 8.15055 51.8682C8.80375 52.1843 9.59336 51.9133 9.91144 51.2557L11.2298 48.5311C11.5469 47.8757 11.2727 47.0873 10.6173 46.7701C9.96189 46.453 9.17351 46.7272 8.8564 47.3827Z" fill="#F0C200"/>
<path d="M25.1192 51.8682C25.7746 51.5511 26.0489 50.7626 25.7318 50.1072L24.4134 47.3826C24.0965 46.7272 23.3079 46.453 22.6525 46.7701C21.9971 47.0872 21.7229 47.8757 22.04 48.5311L23.3584 51.2557C23.6769 51.9144 24.4669 52.1839 25.1192 51.8682Z" fill="#F0C200"/>
<path d="M41.6835 40.0469V37.4102C41.6835 36.6821 41.0932 36.0918 40.3651 36.0918C39.637 36.0918 39.0468 36.6821 39.0468 37.4102V40.0469C39.0468 40.775 39.637 41.3652 40.3651 41.3652C41.0932 41.3652 41.6835 40.775 41.6835 40.0469Z" fill="#F0C200"/>
<path d="M33.6342 40.6362L34.9526 37.9995C35.2782 37.3482 35.0143 36.5564 34.363 36.2307C33.712 35.9053 32.92 36.169 32.5943 36.8203L31.276 39.457C30.9503 40.1083 31.2143 40.9002 31.8655 41.2258C32.5176 41.5519 33.3091 41.2866 33.6342 40.6362Z" fill="#F0C200"/>
<path d="M48.8649 41.2259C49.5161 40.9002 49.7801 40.1083 49.4544 39.4571L48.1361 36.8203C47.8105 36.1692 47.0186 35.9051 46.3674 36.2308C45.7161 36.5564 45.4522 37.3483 45.7778 37.9996L47.0962 40.6363C47.4213 41.2863 48.2125 41.5519 48.8649 41.2259Z" fill="#F0C200"/>
</g>
<defs>
<clipPath id="clip0_258_878">
<rect width="45" height="45" fill="white" transform="translate(6 7)"/>
</clipPath>
</defs>
</svg>
