<svg width="57" height="57" viewBox="0 0 57 57" fill="none" xmlns="http://www.w3.org/2000/svg">
<path d="M47.8086 19.7232L45.4681 17.3828L30.2554 27.3296L35.5213 31.4254L47.8086 19.7232Z" fill="#F0C200"/>
<path d="M49.22 43.299V36.5488C49.22 35.9555 48.7389 35.4746 48.1457 35.4746H8.85425C8.26106 35.4746 7.78003 35.9555 7.78003 36.5488V43.299C7.78003 47.6912 10.0211 51.5697 13.4198 53.8514H9.35097C8.75778 53.8514 8.27675 54.3323 8.27675 54.9256C8.27675 55.5189 8.75778 55.9998 9.35097 55.9998H47.649C48.2422 55.9998 48.7232 55.5189 48.7232 54.9256C48.7232 54.3323 48.2422 53.8514 47.649 53.8514H43.5802C46.9789 51.5697 49.22 47.6912 49.22 43.299ZM36.5191 53.8514H20.4809C14.6623 53.8514 9.92857 49.1176 9.92857 43.299V37.623H47.0716V43.299C47.0715 49.1176 42.3378 53.8514 36.5191 53.8514Z" fill="black"/>
<path d="M16.0235 27.0428C17.8167 27.0428 19.2756 25.584 19.2756 23.7908C19.2756 22.2455 17.3513 20.3053 16.7617 19.7474C16.3476 19.3557 15.6994 19.3556 15.2853 19.7474C14.6956 20.3052 12.7715 22.2454 12.7715 23.7907C12.7714 25.584 14.2303 27.0428 16.0235 27.0428ZM16.024 22.0811C16.6394 22.788 17.1144 23.5032 17.1271 23.7918C17.1265 24.3998 16.6317 24.8944 16.0235 24.8944C15.4149 24.8944 14.9199 24.3993 14.9199 23.7924C14.9317 23.5058 15.4077 22.7897 16.024 22.0811Z" fill="#F0C200"/>
<path d="M21.3266 26.7938C20.737 27.3517 18.8129 29.2918 18.8129 30.8371C18.8129 32.6303 20.2718 34.0892 22.0648 34.0892C23.8579 34.0892 25.3168 32.6303 25.3168 30.8371C25.3168 29.2918 23.3927 27.3517 22.8031 26.7938C22.3888 26.4021 21.7408 26.4021 21.3266 26.7938ZM23.1684 30.8383C23.1677 31.4463 22.673 31.9408 22.0648 31.9408C21.4563 31.9408 20.9613 31.4457 20.9613 30.8388C20.9731 30.5523 21.4489 29.8366 22.0648 29.1283C22.6805 29.8362 23.1559 30.5512 23.1684 30.8383Z" fill="#F0C200"/>
<path d="M15.7532 17.6896L20.6607 18.9459L33.4521 31.7375C34.0586 32.3439 34.8552 32.647 35.6517 32.647C36.4482 32.647 37.2448 32.3439 37.8513 31.7375L47.6146 21.9741C48.8273 20.7613 48.8273 18.788 47.6146 17.5751L31.354 1.31461C30.9344 0.895129 30.2544 0.895129 29.8347 1.31461L15.26 15.8894C14.9872 16.1624 14.8817 16.5607 14.9836 16.9328C15.0856 17.3049 15.3794 17.5939 15.7532 17.6896ZM30.5944 3.59335L46.0953 19.0942C46.4704 19.4693 46.4704 20.0798 46.0953 20.4549L36.3319 30.2183C35.9568 30.5933 35.3464 30.5934 34.9713 30.2183L32.255 27.502L33.3929 26.3641C33.8124 25.9446 33.8124 25.2644 33.3929 24.8448C32.9734 24.4254 32.2934 24.4254 31.8737 24.8448L30.7358 25.9828L27.6274 22.8744L28.7653 21.7365C29.1848 21.317 29.1848 20.6368 28.7653 20.2172C28.3457 19.7977 27.6657 19.7977 27.246 20.2172L26.1081 21.3551L22.7312 17.9782L29.3495 11.36C29.769 10.9405 29.769 10.2603 29.3495 9.84069C28.9301 9.42131 28.2499 9.4212 27.8302 9.84069L20.8852 16.7856L18.1119 16.0757L30.5944 3.59335Z" fill="black"/>
</svg>
