<svg width="28" height="28" viewBox="0 0 28 28" fill="none" xmlns="http://www.w3.org/2000/svg">
<g clip-path="url(#clip0_258_950)">
<path d="M19.9174 9.5679L13.0686 15.166L12.7464 15.4299C12.6756 15.4861 12.6294 15.5675 12.6175 15.6571L12.5453 16.2525L12.3474 17.9252C12.3492 17.9455 12.3429 17.9657 12.3298 17.9814C12.3167 17.9971 12.2979 18.007 12.2776 18.0088C12.2572 18.0106 12.237 18.0043 12.2213 17.9912C12.2056 17.9781 12.1958 17.9593 12.1939 17.939L11.6369 16.2663L11.0614 14.5552C11.0369 14.4786 11.04 14.3957 11.0703 14.3211C11.1006 14.2465 11.1561 14.1849 11.2271 14.147L18.3537 10.062L19.6949 9.29475C19.8898 9.18119 20.0893 9.42672 19.9174 9.5679Z" fill="white"/>
<path d="M24.317 0H4.67454C3.69776 0 2.76098 0.388025 2.07029 1.07871C1.3796 1.7694 0.991577 2.70618 0.991577 3.68296L0.991577 23.3254C0.991577 24.3022 1.3796 25.239 2.07029 25.9297C2.76098 26.6204 3.69776 27.0084 4.67454 27.0084H24.317C25.2938 27.0084 26.2306 26.6204 26.9212 25.9297C27.6119 25.239 28 24.3022 28 23.3254V3.68296C28 2.70618 27.6119 1.7694 26.9212 1.07871C26.2306 0.388025 25.2938 0 24.317 0V0ZM22.919 7.81708L20.2826 19.466C20.1583 20.0123 19.4647 20.2594 18.9782 19.9264L14.9976 17.2255L12.9704 19.1422C12.8877 19.2197 12.7874 19.276 12.6781 19.306C12.5688 19.336 12.4538 19.3389 12.3431 19.3144C12.2325 19.2899 12.1294 19.2387 12.043 19.1654C11.9566 19.0921 11.8893 18.9988 11.8471 18.8936L11.1151 16.7452L10.3831 14.5968L6.45924 13.5226C6.34953 13.4987 6.2508 13.4391 6.17841 13.3533C6.10603 13.2674 6.06403 13.1601 6.05895 13.0479C6.05388 12.9357 6.08601 12.825 6.15035 12.7329C6.21469 12.6409 6.30764 12.5727 6.41474 12.5389L21.5732 7.07742L21.8525 6.97768C22.4402 6.77204 23.0479 7.24776 22.919 7.81708Z" fill="white"/>
</g>
<defs>
<clipPath id="clip0_258_950">
<rect width="27.0084" height="27.0084" fill="white" transform="translate(0.991577)"/>
</clipPath>
</defs>
</svg>
